<svg id="Capa_1" data-name="Capa 1" xmlns="http://www.w3.org/2000/svg" viewBox="0 0 300.07 244.33"><defs><style>.cls-1{fill:#f5faff;}.cls-2{fill:#7b2e22;}.cls-3{fill:#f0c86a;}.cls-4{fill:#f1de91;}.cls-5{fill:#172e60;}.cls-6{fill:#3e364c;}.cls-7{fill:#12214a;}.cls-8{fill:#edb984;}.cls-9{fill:#e79b69;}.cls-10{fill:#dbb363;}.cls-11{fill:#dfcc9a;}.cls-12{fill:#d27558;}.cls-13{fill:#605875;}.cls-14{fill:#401f43;}.cls-15{fill:#5a4949;}</style></defs><rect id="Image_Place_Holder" data-name="Image Place Holder" class="cls-1" x="2.07" y="42.33" width="298" height="202" rx="10"/><path class="cls-2" d="M160.94,28.58c3.95-5.28,4.43-11.26,3.73-13.26s-5.16,2.49-5.16,2.49Z"/><path class="cls-3" d="M197.83,68.27c-2-7.68-8.38-17.84-22-28.31l4.27,52.45C196.38,100.43,200.27,77.92,197.83,68.27Z"/><path class="cls-4" d="M197.47,67c-3.45.93-10.73-3.68-16.9-10.67a51.5,51.5,0,0,1-3.8-4.89l3.33,40.93c16.28,8,20.17-14.49,17.73-24.14Q197.67,67.67,197.47,67Z"/><path class="cls-5" d="M182,100.23l-53.53,1.08c-1.44,35.36,9.87,107.15,9.87,107.15h1l20.53-64.53h.94l15.33,64.53h1S184.51,130.9,182,100.23Z"/><path class="cls-6" d="M182,96.84l-53.53,1.09c-.1,2.39-.13,4.95-.12,7.64a104,104,0,0,0,24.19,1.64c12.07-.48,22.78-2.6,29.76-5.54C182.21,100,182.11,98.34,182,96.84Z"/><path class="cls-7" d="M164.06,140.39a46.43,46.43,0,0,1-5.6-.72c-.05.45-9.65,31.46-15,30.77s-10.85-47.49-8.72-69.26l-6.26.13c-1.44,35.36,9.87,107.15,9.87,107.15h1l20.53-63.82h.94l15.33,63.82h1s.84-8.79,1.87-21.63C174.54,180.34,163.45,151.39,164.06,140.39Z"/><path class="cls-6" d="M153.72,138.74a21.66,21.66,0,0,0,15.44,1.38Z"/><path class="cls-8" d="M179.38,50.47l-57,11c4.45,10.1,6,42.38,6,42.38s36.38,3.36,53.79-3.21C182.17,100.67,182.27,56.24,179.38,50.47Z"/><path class="cls-9" d="M179.38,50.47l-57,11c4.45,10.1,6,42.38,6,42.38s1.38.12,3.73.28c-1.63-20.92,10.62-42.09,24.46-40.67s24.35,36.74,24.27,37.65c.46-.15.9-.31,1.33-.47C182.17,100.67,182.27,56.24,179.38,50.47Z"/><path class="cls-3" d="M125.57,74.9c-3.84-7.15-8.9-23.27-8.9-24.35,3.49-4.93,17-18.64,29.11-19.6s28.49,6.88,31.39,10.19c3.74,4.24,3.93,20.45,3.93,20.45C170.32,54.64,136.25,59.48,125.57,74.9Z"/><path class="cls-10" d="M145.78,31c-6.8.53-14,5.07-19.66,9.82a44.87,44.87,0,0,0,16.81,3c11.52,0,21.22-3.57,24.16-8.45C160.74,32.64,152.6,30.41,145.78,31Z"/><path class="cls-10" d="M172.62,58.89a21.34,21.34,0,0,1,8.48,2.7,89.53,89.53,0,0,0-1.17-12.85A16.05,16.05,0,0,1,172.62,58.89Z"/><path class="cls-10" d="M121.94,52.21c.59,6.29,2,17,3.63,22.69A40.62,40.62,0,0,1,134.23,67C127.68,62.44,123.82,57.08,121.94,52.21Z"/><path class="cls-3" d="M105.37,91c-5.78-14.52,4.14-31.58,12-41.41s12.27,41.26,11.67,54.38C129.09,103.94,112.09,107.85,105.37,91Z"/><path class="cls-10" d="M122.6,51.9a52.29,52.29,0,0,1-.07,9.59c-1.25,12.95-6.73,23-12.23,22.49-2.68-.26-4.87-3-6.27-7.2A26.86,26.86,0,0,0,105.37,91c6.72,16.88,23.72,13,23.72,13C129.54,94.05,127.18,62.58,122.6,51.9Z"/><path class="cls-8" d="M108,88.5c2.78-10.19,14.56-22,23.34-25.5l2.77,5.3s-4.25,34.73-5,35.64C125.73,107.79,104.67,100.89,108,88.5Z"/><path class="cls-9" d="M116.93,77.72a34.62,34.62,0,0,1,1.82-5.81c-5,4.92-9.19,11-10.72,16.59-3.36,12.39,17.7,19.29,21.06,15.44.24-.27.76-3.4,1.39-7.71C126.5,101,113.27,95.09,116.93,77.72Z"/><path class="cls-8" d="M183.63,90.22c7.27,4.94,17.66-9.92,10.51-23.07C191.4,62.11,173,54.69,173,54.69l-1.82,4.81S177.66,86.17,183.63,90.22Z"/><path class="cls-10" d="M194.14,67.15a6.16,6.16,0,0,0-.51-.74c1.74,6.45.83,12.29-2.76,14.53-4.21,2.63-10.7-.53-15.56-7.14,2.35,7,5.4,14.44,8.32,16.42C190.9,95.16,201.29,80.3,194.14,67.15Z"/><path class="cls-9" d="M134,35.13c8.9,7.36,25.4,9.11,33.14.19C157.69,30.1,145.71,28.09,134,35.13Z"/><path class="cls-11" d="M175.52,209.65H184s-5.83-3.23-7.44-3.3S175.52,209.65,175.52,209.65Z"/><path class="cls-11" d="M140,209.65h-8.46s5-2.83,6.62-2.89S140,209.65,140,209.65Z"/><path class="cls-10" d="M140,59.12a85.72,85.72,0,0,1,31.17-3.25,39.06,39.06,0,0,0-15.37-1.69C148.53,54.82,140,59.12,140,59.12Z"/><path class="cls-10" d="M134.78,59.55c10.79-6.27,24.14-7.29,24.14-7.29a36.45,36.45,0,0,0-13.35,1C139.89,54.88,134.78,59.55,134.78,59.55Z"/><path class="cls-8" d="M158.94,54.05c1.22.71,5,.19,9.69.12l-6.08,3.31C157.35,58.12,157.71,53.34,158.94,54.05Z"/><path class="cls-8" d="M173.19,64.34c3.54-5.11,1.72-8.58,0-9.54-3.36-1.86-10.19-1.12-11.91,1.64s-2.46,4.67-1.23,6.32,2.89.16,2.89.16-.39,1.47,1.45,2a1.65,1.65,0,0,0,2.18-.89,2,2,0,0,0,1.56,1.79c1.52.33,3.11-2.26,3.11-2.26Z"/><path class="cls-8" d="M140.56,56.3c-.68,1.23-4.23,2.75-8.25,5.07l6.91-.28C144,59,141.25,55.06,140.56,56.3Z"/><path class="cls-8" d="M133.62,72.44c-5.66-2.57-5.89-6.48-4.9-8.19,1.94-3.32,8.18-6.19,11.07-4.71s4.51,2.75,4.3,4.8-2.4,1.62-2.4,1.62a1.69,1.69,0,0,1-.21,2.47,1.65,1.65,0,0,1-2.33.35,2,2,0,0,1-.42,2.34c-1.13,1.06-3.83-.35-3.83-.35Z"/><path class="cls-12" d="M147.43,19.73c-2,2.33-6.09,12-6.09,12s2.91,3.49,9.2,3.43Z"/><path class="cls-8" d="M144.79,29.69c1.83-8.61,4-18.11,11.1-16.55s8.07,6.12,7.27,12.49c-.84,6.73-3.37,16-10.34,15.29S144.07,33.1,144.79,29.69Z"/><polygon class="cls-13" points="164.51 107.85 160.28 108.38 160.28 110.39 164.51 109.86 164.51 107.85"/><path class="cls-9" d="M162.85,100.91c0-.37-.69-.67-1.55-.67s-1.55.3-1.55.67.69.67,1.55.67S162.85,101.28,162.85,100.91Z"/><path class="cls-14" d="M143.51,26.87l2.13-1s2.28-9.68,5.44-10.18c2.65-.42,5.17,4.75,12.33,3.42,2.64-.49,2.19-7.67-3.86-9.8-3.25-1.15-6.75-1.41-9-.45C145.65,10.19,143.29,17.63,143.51,26.87Z"/><path class="cls-14" d="M151.18,13l-5.08,3.22-.8,8.76,2.85.29s2.22-10.09,6.19-8.25Z"/><path class="cls-8" d="M147.44,23.71c0-1.89-.72-3.42-1.61-3.42s-1.62,1.53-1.62,3.42.72,3.41,1.62,3.41S147.44,25.6,147.44,23.71Z"/><ellipse class="cls-12" cx="145.75" cy="24.03" rx="1.02" ry="2.16"/><ellipse class="cls-8" cx="145.79" cy="25.12" rx="0.77" ry="1.63"/><path class="cls-15" d="M153.75,27.21c.17-.66-.11-1.22-.62-1.26a1.35,1.35,0,0,0-1.24,1.1c-.17.65.11,1.22.62,1.26A1.37,1.37,0,0,0,153.75,27.21Z"/><path class="cls-2" d="M153.43,23.22l-2.71.12a.41.41,0,0,0-.38.46l.06.92a.44.44,0,0,0,.44.42l2.71-.12a.43.43,0,0,0,.39-.46l-.07-.92A.43.43,0,0,0,153.43,23.22Z"/><path class="cls-15" d="M159.93,29a1.45,1.45,0,0,0-.62-1.58c-.46-.2-.93.19-1.05.86a1.45,1.45,0,0,0,.61,1.58C159.34,30.07,159.81,29.68,159.93,29Z"/><path class="cls-2" d="M162.75,25.81l-2.39-1.27a.46.46,0,0,0-.6.26l-.51.95a.49.49,0,0,0,.13.66l2.39,1.27a.47.47,0,0,0,.6-.27l.5-.95A.47.47,0,0,0,162.75,25.81Z"/><path class="cls-12" d="M156.25,28.12c.17,2,.07,3.17-.68,3.4a1.83,1.83,0,0,1-1.41-.37l0,0s1.17,1.08,2,.9S156.75,30.49,156.25,28.12Z"/><path class="cls-12" d="M154.78,36.06l-2.22-.61s-.18.39.78.78A1.23,1.23,0,0,0,154.78,36.06Z"/><path class="cls-12" d="M156.24,35a2.14,2.14,0,0,0,.83-.23L151.2,33.6s-.12.17.34.44Z"/></svg>