<svg id="Capa_1" data-name="Capa 1" xmlns="http://www.w3.org/2000/svg" viewBox="0 0 298 269.14"><defs><style>.cls-1{fill:#f5faff;}.cls-2{fill:#d9cba5;}.cls-3{fill:#fbf5dd;}.cls-4{fill:#cbbb96;}.cls-5{fill:#c6b691;}.cls-6{fill:#7857a3;}.cls-7{fill:#66468e;}.cls-8{fill:#f0c86a;}.cls-9{fill:#ecb648;}.cls-10{fill:#edb984;}.cls-11{fill:#e79b69;}.cls-12{fill:#ede3c6;}.cls-13{fill:#d27558;}.cls-14{fill:#efe6ca;}.cls-15{fill:#fcf7e0;}.cls-16{fill:#675762;}.cls-17{fill:#e3d9be;}.cls-18{fill:#824240;}.cls-19{fill:#f8e9bd;}.cls-20{fill:#e33e4e;}.cls-21{fill:#a5593a;}.cls-22{fill:#d5caaa;}.cls-23{fill:#5a4949;}.cls-24{fill:#443239;}.cls-25{fill:#f4e9d6;}.cls-26{fill:#3e2d34;}.cls-27{fill:#f9eddb;}.cls-28{fill:#f6d738;}.cls-29{fill:#f3cc30;}.cls-30{fill:#edbd31;}.cls-31{fill:#f7db5e;}.cls-32{fill:#d49a34;}</style></defs><rect id="Image_Place_Holder" data-name="Image Place Holder" class="cls-1" y="67.14" width="298" height="202" rx="10"/><path class="cls-2" d="M150.45,188.89c-.16-2.41-11.2-3.64-24.67-2.75s-24.24,3.56-24.09,6,11.21,3.64,24.67,2.75S150.61,191.3,150.45,188.89Z"/><path class="cls-3" d="M190.37,68.62c-12.14,3.43-42,62.31-42,62.31s4.17,8.69,7.78,9.18c0,0,32.52-37,36.73-43.9C199.92,73.92,190.37,68.62,190.37,68.62Z"/><circle class="cls-4" cx="68.17" cy="60.84" r="3.3"/><rect class="cls-4" x="47.86" y="59.45" width="32.43" height="2.24"/><path class="cls-5" d="M192.84,183.09A332.31,332.31,0,0,0,229.75,187L213.15,155l-15.55,1.05Z"/><polygon class="cls-6" points="181.45 129.13 189.6 231.94 190.69 231.94 213.33 127.19 181.45 129.13"/><polygon class="cls-7" points="181.45 129.13 186.19 188.91 193.18 189.4 190.18 231.94 190.69 231.94 213.33 127.19 181.45 129.13"/><polygon class="cls-6" points="220.21 121.83 236.01 231.94 234.96 231.94 200.12 165.07 194.6 164.14 183.31 128.95 220.21 121.83"/><polygon class="cls-7" points="220.21 121.83 183.31 128.95 186.5 143.4 212.42 143.4 228.04 218.67 201.07 163.99 194.55 163.99 194.6 164.14 200.12 165.07 234.96 231.94 236.01 231.94 220.21 121.83"/><path class="cls-8" d="M183.34,76.56c-5.58,14-3.39,61.35-2,63s39.91-.35,42.72-1.64-6-64.58-7.88-68.55C215,67,205.08,60.55,197.1,62.64,191.94,64,184.16,74.51,183.34,76.56Z"/><path class="cls-9" d="M210.88,65.93l-6,.7c-2,20-1.67,45.37-.27,73.13l10.26-.71Z"/><path class="cls-9" d="M186.36,115.1c0-20.62,3-39,7.64-50.86-4.72,3.38-10,10.65-10.66,12.32-5.58,14-3.39,61.35-2,63,.34.41,2.88.59,6.57.63A195.17,195.17,0,0,1,186.36,115.1Z"/><path class="cls-9" d="M186.61,71.71c3,1.93,9.3,1.36,15.59-1.69a27.67,27.67,0,0,0,7.68-5.37c-3.74-1.83-8.54-3.12-12.78-2C193.84,63.49,189.55,68,186.61,71.71Z"/><path class="cls-10" d="M149.08,122.7c-3.82-15.45-10.64-39.58-10.64-39.58l-7.64,25.13s5,23.05,7,25.76c3.74,5,21.3,20.39,21.3,20.39l6.23-6.8Z"/><path class="cls-11" d="M145.17,107.61c-3.34-12.49-6.73-24.49-6.73-24.49l-7.64,25.13s5,23.05,7,25.76c1.78,2.35,9,9.17,13.61,13.48C150.14,144.56,142.34,112.91,145.17,107.61Z"/><path class="cls-10" d="M142.06,149.71a795.94,795.94,0,0,1,6,82.65h-.69l-28.21-77.92Z"/><path class="cls-11" d="M146.68,199.54c-.87-13.7-2.29-30.86-4.62-49.83l-22.92,4.73,17.71,48.92A35.86,35.86,0,0,1,146.68,199.54Z"/><path class="cls-10" d="M95.28,148.18C97.74,197.65,112,231.3,112,231.3h.79l3.28-76.71Z"/><path class="cls-11" d="M113.61,212.51l2.48-57.92-20.81-6.41a289.41,289.41,0,0,0,11.5,67.93Q110,214.3,113.61,212.51Z"/><path class="cls-10" d="M95.28,82.33c5.47-5.54,16.87-10.42,20.56-11S132.19,78,132.19,78L120.85,91.82Z"/><path class="cls-11" d="M115.76,81a14.46,14.46,0,0,0,11.59-5.56c-4-2-9.32-4.36-11.51-4.05-2.37.34-7.93,2.49-13.06,5.44A26.13,26.13,0,0,0,115.76,81Z"/><path class="cls-3" d="M139.8,81.11c2.74,10,2.46,20.37.4,30.85l-11.08-35.9C137.23,79.1,139.8,81.11,139.8,81.11Z"/><path class="cls-12" d="M133.54,90.39,140.2,112a81.82,81.82,0,0,0,1.58-14C139.07,96.86,136,94.16,133.54,90.39Z"/><path class="cls-12" d="M129.63,76.26l-.51-.2.35,1.12A8.38,8.38,0,0,1,129.63,76.26Z"/><path class="cls-3" d="M89.67,195.11c17,5.14,45.09-9.1,60.91-6.52,0,0-7.32-106.4-21.55-112.53l-9.3,11.67-17.8-11.07C83.34,83.38,90.46,145.67,89.67,195.11Z"/><path class="cls-12" d="M100.14,135.06c-1-12.31.3-29.36-1.47-37.94-1.51-7.32-6.13-7.53-7-3.38-5,23.36-1.41,65.71-2,101.37,6.56,2,14.76,1.08,23.27-.62C107,180.6,102.17,159.25,100.14,135.06Z"/><path class="cls-12" d="M142.8,131.48c1.87,22.3,1,42.61-1.93,57.16a35.13,35.13,0,0,1,9.71,0s-3.88-56.48-11.5-89.5C139.83,106.23,141.19,112.28,142.8,131.48Z"/><path class="cls-10" d="M87.5,89.31C80.46,99,71.68,135,69.51,155l7,3.56,20.37-43.84Z"/><path class="cls-11" d="M88.81,116.17c2.2.79,3.77,2.87,4.7,5.85l3.41-7.34L87.5,89.31c-4,5.53-8.58,19.56-12.17,34.3C79.89,117.79,84.89,114.77,88.81,116.17Z"/><path class="cls-3" d="M83.28,90.9l13.18,29.53,5.47-43.77C93.82,79.69,83.28,90.9,83.28,90.9Z"/><path class="cls-13" d="M108.56,73.88c-.19-6.53.3-16,.3-16l10.48,4.84,3,10.39C118.42,76.75,113.69,76.33,108.56,73.88Z"/><path class="cls-10" d="M110.73,68.65c-1.57-4.6-3.85-19.28.89-23s11.57-.1,11.77,8.9.36,13.9,0,14.24C122.2,69.83,111.31,70.32,110.73,68.65Z"/><path class="cls-13" d="M204.64,63.05c-1.68-6.73-5.86-17.55-5.86-17.55l-8.27,7.08,1.17,13.57C195.21,68.05,199.32,67.78,204.64,63.05Z"/><path class="cls-10" d="M200.84,60.36c.28-5.16-1.62-20.83-7.56-23.31s-11.86,3.24-9.47,12.5,4.27,14.45,4.74,14.69C190.08,65,200.74,62.23,200.84,60.36Z"/><path class="cls-3" d="M219.27,193.06l21.62-2.57s-20.38-118.29-22.12-121C216.32,65.61,207,63.32,207,63.32A354.54,354.54,0,0,0,219.27,193.06Z"/><path class="cls-14" d="M240.89,190.49s-13.67-79.34-19.57-109.56c-8.34-5.62-11.86,23.92-5.4,63.77,2.78,17.15,7.35,33.22,10.56,47.5Z"/><polygon class="cls-4" points="68.88 60.18 67.31 60.18 70.89 227.34 72.45 227.34 68.88 60.18"/><path class="cls-15" d="M48.46,63.74H64.81a0,0,0,0,1,0,0V83.49a3.91,3.91,0,0,1-3.91,3.91H52.37a3.91,3.91,0,0,1-3.91-3.91V63.74a0,0,0,0,1,0,0Z"/><polygon class="cls-4" points="78.84 224.81 62.7 224.81 57.74 227.77 83.8 227.77 78.84 224.81"/><circle class="cls-16" cx="71.5" cy="231.6" r="2.9"/><path class="cls-16" d="M84.51,231.6a2.91,2.91,0,1,0,2.91-2.9A2.9,2.9,0,0,0,84.51,231.6Z"/><circle class="cls-16" cx="54.59" cy="231.6" r="2.9"/><path class="cls-10" d="M114,234.2H103.23s7.76-3.71,9.15-3.49S114,234.2,114,234.2Z"/><path class="cls-10" d="M146.83,234.2h9.39s-7.5-3.6-8.67-3.39S146.83,234.2,146.83,234.2Z"/><path class="cls-17" d="M191.53,234.18h-8.61s6.31-3.38,7.43-3.18S191.53,234.18,191.53,234.18Z"/><path class="cls-17" d="M234.5,234.18h6.6s-4.84-3.38-5.69-3.18S234.5,234.18,234.5,234.18Z"/><path class="cls-3" d="M180.44,184.59l7.49.7S176.66,86,191.68,66.15c0,0-8.09,7.22-10.54,11.12C175.25,86.66,180.44,184.59,180.44,184.59Z"/><path class="cls-12" d="M85.42,88.74c-1.34,1.3-2.14,2.16-2.14,2.16l13.12,31,2.37-16C93.49,106.39,87.43,98.66,85.42,88.74Z"/><circle class="cls-12" cx="68.17" cy="60.84" r="1.81"/><path class="cls-18" d="M203.09,57.76l-2.49-2.95S199,41.43,194.79,39.4s-8.48-1.22-10.59,1.46c-1.67,2.11-6.22-1.46-.55-5.6s15-3.57,17.86.91S203.09,57.76,203.09,57.76Z"/><path class="cls-18" d="M191.27,37.72c5.46,2,5.51,14.13,5.51,14.13l3.58.63s.36-10.1-1.54-13.2S191.27,37.72,191.27,37.72Z"/><path class="cls-10" d="M199.65,54.22c2.2,0,3.68-5.9,1.61-7.6s-3.26.57-3.22,2.84S198.51,54.23,199.65,54.22Z"/><path class="cls-13" d="M199.88,52.49c1.28,0,2.14-3.45.94-4.44s-1.91.33-1.89,1.66S199.21,52.5,199.88,52.49Z"/><path class="cls-10" d="M199.54,53c1,0,1.64-2.57.76-3.31s-1.42.26-1.43,1.24S199,53,199.54,53Z"/><path class="cls-19" d="M206.65,67.34a28.6,28.6,0,0,0,3.77-3c-1.93-.68-3.41-1.05-3.41-1.05Q206.82,65.32,206.65,67.34Z"/><path class="cls-19" d="M185.59,72a9.37,9.37,0,0,0,2.84.76,23.67,23.67,0,0,1,3.25-6.61S188.55,68.94,185.59,72Z"/><path class="cls-11" d="M223.42,144.06c.31,1.05-1.32,3-2.27,3.25s-2.5,0-2-1.46a5.08,5.08,0,0,1,2.63-2.94A1.6,1.6,0,0,1,223.42,144.06Z"/><path class="cls-11" d="M226.77,145.46c.49,1-.72,3.26-1.61,3.65s-2.42.43-2.19-1.1,1.3-3.13,2-3.41A1.56,1.56,0,0,1,226.77,145.46Z"/><path class="cls-10" d="M227.71,131.81c-4.38,1.28-6.41,2.84-8.71,9.71-.72,2,.47,2.56,1.17,2.94,1.9,1,7.88,4.41,8.32,2.69s2.83-6.06,3.1-7.06C232.78,135.76,227.71,131.81,227.71,131.81Z"/><path class="cls-10" d="M225.25,145.18l-1.86-5.54c-2.19,5.26-2.35,8-2,8.68s2.53,1.39,2.76,1S224.63,146.35,225.25,145.18Z"/><path class="cls-10" d="M222,143.58l-.79-5.62c-3.22,4.62-3.91,7.17-3.67,7.92s2.28,1.8,2.59,1.41S221.17,144.59,222,143.58Z"/><path class="cls-10" d="M229.16,144.79l-2.31-3.15c-1.44,3.5-1.84,6.51-1.5,7.39s2.66,1.08,2.86.54S228.73,145.8,229.16,144.79Z"/><path class="cls-3" d="M215.91,66.89c18.86,13.33,32.21,35.46,34.1,40.5s-18,36.29-18,36.29-10.72-7.14-12.19-10.51L228,113.42S217.12,104.8,212.7,98.5,215.91,66.89,215.91,66.89Z"/><path class="cls-10" d="M120.8,100.6c-2.66-4.9-.77-11.07-.77-11.07A19.12,19.12,0,0,1,120.8,100.6Z"/><path class="cls-12" d="M106.79,157.65a105.67,105.67,0,0,0,11,35.8c1.64-.37,3.28-.76,4.92-1.14C113.51,182.35,106.79,157.65,106.79,157.65Z"/><path class="cls-20" d="M58.19,69.78a33.22,33.22,0,0,1-8.48-1v11.9a5.54,5.54,0,0,0,5.54,5.53H58a5.54,5.54,0,0,0,5.53-5.53V69.4A37.45,37.45,0,0,1,58.19,69.78Z"/><rect class="cls-15" x="54.14" y="57.45" width="4.97" height="6.72"/><path class="cls-21" d="M108.56,66.35c-3.66-7.36-6.39-15.76-4.71-20.81s14.39-6.09,17.65-2.2.29,4.8.29,4.8-8.17-4.07-10.59-.29.11,10.93.11,10.93L109,62Z"/><path class="cls-10" d="M110.72,62.93c-1.86.89-5.54-3.46-4.5-5.76s3-.86,3.91,1.07S111.7,62.47,110.72,62.93Z"/><path class="cls-13" d="M109.85,61.6c-1.12.53-3.32-2.07-2.69-3.44s1.79-.51,2.33.64S110.43,61.32,109.85,61.6Z"/><path class="cls-10" d="M110.4,62c-.74.35-2.18-1.36-1.77-2.26s1.18-.34,1.53.42S110.78,61.83,110.4,62Z"/><polygon class="cls-22" points="194.61 143.24 189.85 143.24 190.13 145.69 194.89 145.69 194.61 143.24"/><path class="cls-23" d="M115.2,56.5c-.07-.73-.39-1.29-.72-1.26s-.55.65-.49,1.37.39,1.29.73,1.26S115.27,57.23,115.2,56.5Z"/><path class="cls-23" d="M121.47,55.9c-.07-.72-.39-1.28-.73-1.25s-.55.64-.48,1.37.39,1.29.72,1.26S121.53,56.63,121.47,55.9Z"/><path class="cls-21" d="M115.71,52.61l-2.64.75a.63.63,0,0,0-.47.71l.12.6a.53.53,0,0,0,.7.38l2.64-.74a.66.66,0,0,0,.47-.72l-.12-.6A.53.53,0,0,0,115.71,52.61Z"/><path class="cls-21" d="M122.1,52.94l-2-.55c-.24-.07-.47.13-.52.43l-.08.6a.59.59,0,0,0,.36.67l2,.55c.24.07.47-.12.51-.43l.09-.6A.61.61,0,0,0,122.1,52.94Z"/><path class="cls-13" d="M118.4,57.08s-.06.14-.13.37c.68.9,1.56,2.5-.14,2.53,0,.05,0,.09.05.13C121.12,60.47,118.94,57.63,118.4,57.08Z"/><path class="cls-24" d="M120.3,62c0,.13,0,.26,0,.39a2.5,2.5,0,0,1-2.62,2.31,2.39,2.39,0,0,1-2-2.46Z"/><path class="cls-25" d="M119.93,62.22a1.5,1.5,0,0,1,0,.3,2,2,0,0,1-2.27,1.72,1.93,1.93,0,0,1-1.74-1.88Z"/><path class="cls-23" d="M191.19,49.19c-.16-.68.07-1.28.51-1.34s.94.46,1.11,1.14-.07,1.29-.51,1.34S191.36,49.88,191.19,49.19Z"/><path class="cls-18" d="M190.29,45.21h3a.48.48,0,0,1,.49.4l.07.85a.39.39,0,0,1-.42.4h-3a.49.49,0,0,1-.49-.41l-.07-.84A.38.38,0,0,1,190.29,45.21Z"/><path class="cls-23" d="M185.1,49.9c-.14-.69.11-1.28.56-1.32s.93.48,1.07,1.16-.11,1.28-.56,1.32S185.24,50.58,185.1,49.9Z"/><path class="cls-18" d="M183.16,46.76l2.71-.9a.5.5,0,0,1,.59.25l.38.8a.37.37,0,0,1-.23.52l-2.71.9a.49.49,0,0,1-.6-.25l-.38-.8A.38.38,0,0,1,183.16,46.76Z"/><path class="cls-13" d="M188.12,50.84c-.79,1.36-1.12,2.5-.33,3.12a2.08,2.08,0,0,0,1.53.34v0a3.31,3.31,0,0,1-2.39-.08C186,53.62,186.8,52.33,188.12,50.84Z"/><path class="cls-26" d="M188.28,57.07l5-.75A3.25,3.25,0,0,1,192,59.45C190.13,60.55,188.28,57.07,188.28,57.07Z"/><path class="cls-27" d="M190,58.13a3.33,3.33,0,0,1-.62-1l3.61-.49a1.84,1.84,0,0,1-.24.93Z"/><path class="cls-10" d="M169.19,150.57c-.73-.68-3.07-3.38-6.29-3.21l-1-3.58c2.85.35,6.93,2.07,8.8,4.73C172,150.34,169.93,151.26,169.19,150.57Z"/><path class="cls-10" d="M154.41,148.42l7.58-4.85s2,.54,4.07,4a7,7,0,0,0,1.26,6c1,1.3-5.48,3.79-7.47,2.75C159.09,155.87,155.64,151,154.41,148.42Z"/><path class="cls-10" d="M170.52,155.76a9.61,9.61,0,0,1-4.61-5l-1.33,2.43c.44,1.45,2.64,3.54,4,4.39S171.19,156.17,170.52,155.76Z"/><path class="cls-10" d="M168.91,158.68a12.34,12.34,0,0,1-4.74-6.17L162.8,155c.46,1.66,2.52,3.77,4,4.89S169.61,159.23,168.91,158.68Z"/><path class="cls-10" d="M164.6,159.23a18.82,18.82,0,0,1-4.55-8.21l-1.59,2.28c.37,1.94,2.38,4.88,3.82,6.56S165.29,160,164.6,159.23Z"/><path class="cls-11" d="M71.8,158.44c-1,.36-1.72,3-1.42,4s1.23,2.2,2.11.87a6.29,6.29,0,0,0,1-4.13A1.31,1.31,0,0,0,71.8,158.44Z"/><path class="cls-11" d="M69.07,156.33c-1,.17-2.19,2.64-2.06,3.66s.85,2.41,1.93,1.27a6.21,6.21,0,0,0,1.67-3.87A1.36,1.36,0,0,0,69.07,156.33Z"/><path class="cls-11" d="M67.05,153.76c-1,.17-2.19,2.63-2.06,3.66s.85,2.4,1.93,1.26a6.12,6.12,0,0,0,1.67-3.87A1.35,1.35,0,0,0,67.05,153.76Z"/><path class="cls-10" d="M79.25,147.12c1.15,4.66.71,14.19-3.31,13.67-1.24,1.89-2.23,1.16-2.86.76-1.73-1.06-7.3-4.26-6.18-5.71s3.35-6.22,4-7.07C73.69,145.07,79.25,147.12,79.25,147.12Z"/><path class="cls-10" d="M70,157.51l5.23-1.75c-3,5.15-5.06,7-5.81,7.06s-2.32-1.39-2.09-1.86S69.42,158.77,70,157.51Z"/><path class="cls-10" d="M72.86,159.38l4.77-2.74c-2,5.68-3.68,7.85-4.38,8.11s-2.51-.92-2.37-1.43S72.49,160.75,72.86,159.38Z"/><path class="cls-10" d="M68.42,153.8l3.58.12c-2,3.41-4.17,5.62-5,5.86s-2.14-1.69-1.83-2.2S67.84,154.81,68.42,153.8Z"/><polygon class="cls-14" points="231.04 151.28 218.59 141.41 216.22 146.14 222.29 154.68 231.04 151.28"/><circle class="cls-28" cx="150.9" cy="27.28" r="16.26"/><circle class="cls-29" cx="150.9" cy="27.28" r="13.8"/><path class="cls-30" d="M158.12,15.5a13.81,13.81,0,0,1-18.86,19.2,13.81,13.81,0,1,0,18.86-19.2Z"/><path class="cls-31" d="M139.51,28.55a12.18,12.18,0,0,1,21.84-7.43,12.18,12.18,0,1,0-20.22,13.5A12.13,12.13,0,0,1,139.51,28.55Z"/><path class="cls-32" d="M152,18.38v1.75a3.82,3.82,0,0,1,1.74.7,5.51,5.51,0,0,1,1.28,1.63l-1.75,1A2.34,2.34,0,0,0,151.24,22a1.88,1.88,0,0,0-1.31.47,1.49,1.49,0,0,0-.52,1.16,1.43,1.43,0,0,0,.42,1.06,6,6,0,0,0,1.67,1,16.88,16.88,0,0,1,1.79.93,4.85,4.85,0,0,1,1.07.84,3.77,3.77,0,0,1,1,2.64,4.26,4.26,0,0,1-.91,2.7A4.45,4.45,0,0,1,152,34.34v1.85h-1.57v-1.8a4.81,4.81,0,0,1-2.68-1.21,5.84,5.84,0,0,1-1.36-2.85l2-.42a4.63,4.63,0,0,0,1,1.95,2.33,2.33,0,0,0,1.62.56,2.3,2.3,0,0,0,1.65-.64,2.14,2.14,0,0,0,.66-1.62,1.89,1.89,0,0,0-.55-1.43,5.19,5.19,0,0,0-.82-.59,13.44,13.44,0,0,0-1.39-.71A6.54,6.54,0,0,1,148.27,26a3.39,3.39,0,0,1-.87-2.34,3.6,3.6,0,0,1,.2-1.2,3.34,3.34,0,0,1,.6-1,4,4,0,0,1,1-.79,5.6,5.6,0,0,1,1.3-.52V18.38Z"/></svg>