<svg xmlns="http://www.w3.org/2000/svg" width="298" height="298" viewBox="0 0 298 298">
  <g id="Grupo_29323" data-name="Grupo 29323" transform="translate(1244 5101)">
    <rect id="Rectángulo_5441" data-name="Rectángulo 5441" width="298" height="298" transform="translate(-1244 -5101)" fill="none"/>
    <g id="Image_Place_Holder" data-name="Image Place Holder" transform="translate(-1244.371 -5004.639)">
      <rect id="Image_Place_Holder-2" data-name="Image Place Holder" width="298" height="202" rx="10" transform="translate(0.371 -0.361)" fill="#f5faff"/>
    </g>
    <g id="Grupo_29322" data-name="Grupo 29322" transform="translate(-1257.868 -5315.036)">
      <path id="Trazado_58690" data-name="Trazado 58690" d="M131.637,347.431c-.167-2.5-11.63-3.778-25.607-2.854s-25.171,3.7-25.006,6.2,11.63,3.778,25.605,2.854S131.8,349.932,131.637,347.431Z" transform="translate(30.118 97.82)" fill="#d9cba5"/>
      <path id="Trazado_58691" data-name="Trazado 58691" d="M146.952,288.166c-12.6,3.559-43.58,64.688-43.58,64.688s4.332,9.019,8.08,9.528c0,0,33.754-38.387,38.127-45.577C156.862,293.671,146.952,288.166,146.952,288.166Z" transform="translate(56.246 32.227)" fill="#fbf5dd"/>
      <circle id="Elipse_2747" data-name="Elipse 2747" cx="3.422" cy="3.422" r="3.422" transform="translate(72.913 308.893)" fill="#cbbb96"/>
      <rect id="Rectángulo_5399" data-name="Rectángulo 5399" width="33.669" height="2.327" transform="translate(55.258 310.877)" fill="#cbbb96"/>
      <path id="Trazado_58692" data-name="Trazado 58692" d="M124.649,358.66a345.038,345.038,0,0,0,38.315,4.024l-17.235-33.16-16.144,1.091Z" transform="translate(81.119 80.574)" fill="#c6b691"/>
      <path id="Trazado_58693" data-name="Trazado 58693" d="M119.2,318.215l8.464,106.729h1.127l23.5-108.742Z" transform="translate(74.744 65)" fill="#7857a3"/>
      <path id="Trazado_58694" data-name="Trazado 58694" d="M119.2,318.215l4.921,62.055,7.256.512-3.116,44.161h.53l23.5-108.742Z" transform="translate(74.745 65)" fill="#66468e"/>
      <path id="Trazado_58695" data-name="Trazado 58695" d="M158.395,313.632l16.4,114.315h-1.1l-36.16-69.425-5.737-.957-11.718-36.536Z" transform="translate(75.784 61.997)" fill="#7857a3"/>
      <path id="Trazado_58696" data-name="Trazado 58696" d="M158.395,313.632l-38.309,7.4,3.317,15h26.906l16.216,78.139-28-56.759h-6.774l.05.156,5.737.957,36.16,69.425h1.1Z" transform="translate(75.784 61.997)" fill="#66468e"/>
      <path id="Trazado_58697" data-name="Trazado 58697" d="M122.121,299.991c-5.793,14.541-3.516,63.689-2.061,65.419s41.441-.36,44.358-1.7-6.188-67.044-8.188-71.165c-1.212-2.5-11.543-9.184-19.829-7.012C131.044,286.938,122.971,297.861,122.121,299.991Z" transform="translate(73.78 28.651)" fill="#f0c86a"/>
      <path id="Trazado_58698" data-name="Trazado 58698" d="M137.447,286.878l-6.253.727c-2.106,20.742-1.731,47.1-.278,75.917l10.65-.727Z" transform="translate(87.046 30.721)" fill="#ecb648"/>
      <path id="Trazado_58699" data-name="Trazado 58699" d="M125.259,338.875c0-21.41,3.1-40.471,7.928-52.807-4.9,3.512-10.374,11.066-11.066,12.8-5.793,14.541-3.516,63.688-2.061,65.419.354.421,2.993.614,6.822.649A203.4,203.4,0,0,1,125.259,338.875Z" transform="translate(73.78 29.774)" fill="#ecb648"/>
      <path id="Trazado_58700" data-name="Trazado 58700" d="M121.667,294.954c3.134,2,9.65,1.412,16.181-1.755a28.736,28.736,0,0,0,7.971-5.581c-3.885-1.891-8.867-3.238-13.27-2.084C129.17,286.419,124.712,291.089,121.667,294.954Z" transform="translate(77.633 28.651)" fill="#ecb648"/>
      <path id="Trazado_58701" data-name="Trazado 58701" d="M113.932,336.195c-3.971-16.033-11.053-41.09-11.053-41.09L94.955,321.2s5.156,23.926,7.284,26.74c3.885,5.136,22.109,21.167,22.109,21.167l6.47-7.054Z" transform="translate(46.406 40.338)" fill="#edb984"/>
      <path id="Trazado_58702" data-name="Trazado 58702" d="M109.867,320.53c-3.468-12.968-6.989-25.425-6.989-25.425L94.955,321.2s5.156,23.926,7.284,26.74c1.848,2.444,9.3,9.52,14.129,14C115.023,358.891,106.926,326.037,109.867,320.53Z" transform="translate(46.406 40.338)" fill="#e79b69"/>
      <path id="Trazado_58703" data-name="Trazado 58703" d="M113.167,326.979a826.785,826.785,0,0,1,6.214,85.8h-.722L89.371,331.887Z" transform="translate(39.879 77.599)" fill="#edb984"/>
      <path id="Trazado_58704" data-name="Trazado 58704" d="M117.967,378.712c-.9-14.227-2.382-32.038-4.8-51.733l-23.8,4.908,18.391,50.789A36.984,36.984,0,0,1,117.967,378.712Z" transform="translate(39.879 77.599)" fill="#e79b69"/>
      <path id="Trazado_58705" data-name="Trazado 58705" d="M77.95,326.245c2.555,51.36,17.38,86.294,17.38,86.294h.822l3.41-79.639Z" transform="translate(26.527 76.741)" fill="#edb984"/>
      <path id="Trazado_58706" data-name="Trazado 58706" d="M96.987,393.033,99.562,332.9,77.95,326.245a300.328,300.328,0,0,0,11.945,70.527Q93.262,394.885,96.987,393.033Z" transform="translate(26.527 76.741)" fill="#e79b69"/>
      <path id="Trazado_58707" data-name="Trazado 58707" d="M77.95,300.866c5.678-5.748,17.517-10.812,21.35-11.361s16.972,6.843,16.972,6.843L104.5,310.72Z" transform="translate(26.527 33.758)" fill="#edb984"/>
      <path id="Trazado_58708" data-name="Trazado 58708" d="M95.013,299.475a15.016,15.016,0,0,0,12.034-5.77c-4.136-2.063-9.676-4.525-11.947-4.2-2.464.354-8.236,2.577-13.556,5.646C84.155,297.155,90.479,299.475,95.013,299.475Z" transform="translate(30.728 33.758)" fill="#e79b69"/>
      <path id="Trazado_58709" data-name="Trazado 58709" d="M105.237,296.964c2.837,10.433,2.546,21.148.41,32.025l-11.5-37.259C102.567,294.877,105.237,296.964,105.237,296.964Z" transform="translate(45.466 36.393)" fill="#fbf5dd"/>
      <g id="Grupo_29098" data-name="Grupo 29098" transform="translate(139.617 328.123)">
        <path id="Trazado_58710" data-name="Trazado 58710" d="M96.266,298.586l6.908,22.388a84.637,84.637,0,0,0,1.642-14.58C102.005,305.3,98.838,302.5,96.266,298.586Z" transform="translate(-91.679 -283.715)" fill="#ede3c6"/>
        <path id="Trazado_58711" data-name="Trazado 58711" d="M94.676,291.93c-.178-.067-.343-.132-.525-.2l.356,1.158A9.078,9.078,0,0,1,94.676,291.93Z" transform="translate(-94.151 -291.73)" fill="#ede3c6"/>
      </g>
      <path id="Trazado_58712" data-name="Trazado 58712" d="M75.66,415.318c17.656,5.338,46.807-9.444,63.231-6.776,0,0-7.6-110.448-22.378-116.812l-9.648,12.112-18.478-11.5C69.09,299.326,76.48,363.992,75.66,415.318Z" transform="translate(23 36.393)" fill="#fbf5dd"/>
      <g id="Grupo_29099" data-name="Grupo 29099" transform="translate(97.934 343.651)">
        <path id="Trazado_58713" data-name="Trazado 58713" d="M86.528,344.609c-1.071-12.78.308-30.487-1.529-39.385-1.566-7.6-6.366-7.826-7.281-3.512-5.147,24.247-1.466,68.213-2.058,105.236,6.8,2.056,15.318,1.121,24.152-.646C93.651,391.883,88.634,369.713,86.528,344.609Z" transform="translate(-74.933 -298.889)" fill="#ede3c6"/>
        <path id="Trazado_58714" data-name="Trazado 58714" d="M102.781,336.382c1.941,23.143,1.028,44.237-2,59.333a36.774,36.774,0,0,1,10.077-.054s-4.032-58.626-11.938-92.911C99.7,310.165,101.109,316.451,102.781,336.382Z" transform="translate(-46.897 -294.377)" fill="#ede3c6"/>
      </g>
      <path id="Trazado_58715" data-name="Trazado 58715" d="M84.291,298.071c-7.31,10.086-16.424,47.414-18.673,68.152l7.307,3.7L94.075,324.4Z" transform="translate(12.111 43.806)" fill="#edb984"/>
      <path id="Trazado_58716" data-name="Trazado 58716" d="M82.4,325.951c2.282.818,3.915,2.982,4.88,6.075L90.82,324.4l-9.784-26.332c-4.16,5.739-8.9,20.3-12.632,35.609C73.134,327.637,78.333,324.494,82.4,325.951Z" transform="translate(15.367 43.806)" fill="#e79b69"/>
      <path id="Trazado_58717" data-name="Trazado 58717" d="M72.207,306.795l13.686,30.659,5.681-45.441C83.156,295.162,72.207,306.795,72.207,306.795Z" transform="translate(19.814 36.724)" fill="#fbf5dd"/>
      <path id="Trazado_58718" data-name="Trazado 58718" d="M84.336,299.635c-.2-6.774.308-16.61.308-16.61l10.873,5.023,3.123,10.8C94.567,302.613,89.661,302.179,84.336,299.635Z" transform="translate(33.936 26.217)" fill="#d27558"/>
      <path id="Trazado_58719" data-name="Trazado 58719" d="M86.441,301.889c-1.633-4.772-4-20.016.924-23.918s12.01-.1,12.216,9.24.377,14.435,0,14.78C98.348,303.121,87.035,303.627,86.441,301.889Z" transform="translate(34.083 18.534)" fill="#edb984"/>
      <path id="Trazado_58720" data-name="Trazado 58720" d="M138.2,295.322c-1.744-6.986-6.08-18.222-6.08-18.222l-8.589,7.349,1.221,14.088C128.407,300.512,132.676,300.23,138.2,295.322Z" transform="translate(79.812 19.29)" fill="#d27558"/>
      <path id="Trazado_58721" data-name="Trazado 58721" d="M138.3,297.574c.293-5.353-1.683-21.625-7.847-24.193s-12.311,3.362-9.826,12.975,4.431,15,4.917,15.246C127.134,302.4,138.2,299.522,138.3,297.574Z" transform="translate(75.76 14.242)" fill="#edb984"/>
      <path id="Trazado_58722" data-name="Trazado 58722" d="M144.984,420.321l22.449-2.677s-21.159-122.8-22.957-125.626c-2.553-4.013-12.218-6.386-12.218-6.386A368.2,368.2,0,0,0,144.984,420.321Z" transform="translate(88.211 29.264)" fill="#fbf5dd"/>
      <path id="Trazado_58723" data-name="Trazado 58723" d="M163.482,408.177s-14.192-82.359-20.317-113.734c-8.652-5.832-12.311,24.835-5.609,66.2,2.887,17.8,7.631,34.489,10.969,49.315Z" transform="translate(92.162 38.731)" fill="#efe6ca"/>
      <path id="Trazado_58724" data-name="Trazado 58724" d="M66.189,284.126H64.565L68.278,457.67H69.9Z" transform="translate(10.88 27.504)" fill="#cbbb96"/>
      <path id="Rectángulo_5400" data-name="Rectángulo 5400" d="M0,0H16.971a0,0,0,0,1,0,0V20.655a3.912,3.912,0,0,1-3.912,3.912H3.912A3.912,3.912,0,0,1,0,20.655V0A0,0,0,0,1,0,0Z" transform="translate(55.874 315.325)" fill="#fcf7e0"/>
      <path id="Trazado_58725" data-name="Trazado 58725" d="M81.894,362.922H65.13L59.984,366H87.04Z" transform="translate(5.525 119.617)" fill="#cbbb96"/>
      <circle id="Elipse_2748" data-name="Elipse 2748" cx="3.011" cy="3.011" r="3.011" transform="translate(76.779 486.576)" fill="#675762"/>
      <path id="Trazado_58726" data-name="Trazado 58726" d="M72.8,367.795a3.012,3.012,0,1,0,3.013-3.011A3.013,3.013,0,0,0,72.8,367.795Z" transform="translate(20.506 121.793)" fill="#675762"/>
      <circle id="Elipse_2749" data-name="Elipse 2749" cx="3.011" cy="3.011" r="3.011" transform="translate(59.227 486.576)" fill="#675762"/>
      <path id="Trazado_58727" data-name="Trazado 58727" d="M92.908,369.378H81.755s8.058-3.848,9.5-3.627S92.908,369.378,92.908,369.378Z" transform="translate(30.975 122.913)" fill="#edb984"/>
      <path id="Trazado_58728" data-name="Trazado 58728" d="M102.673,369.323h9.752s-7.785-3.739-9.008-3.525S102.673,369.323,102.673,369.323Z" transform="translate(55.322 122.968)" fill="#edb984"/>
      <path id="Trazado_58729" data-name="Trazado 58729" d="M128.839,369.2H119.9s6.557-3.509,7.711-3.308S128.839,369.2,128.839,369.2Z" transform="translate(75.565 123.075)" fill="#e3d9be"/>
      <path id="Trazado_58730" data-name="Trazado 58730" d="M144.586,369.2h6.852s-5.026-3.509-5.911-3.308S144.586,369.2,144.586,369.2Z" transform="translate(104.425 123.075)" fill="#e3d9be"/>
      <path id="Trazado_58731" data-name="Trazado 58731" d="M119.891,409.942l7.78.727s-11.708-103.114,3.9-123.685c0,0-8.407,7.5-10.949,11.552C114.51,308.28,119.891,409.942,119.891,409.942Z" transform="translate(72.997 30.844)" fill="#fbf5dd"/>
      <path id="Trazado_58732" data-name="Trazado 58732" d="M74.431,297.8c-1.386,1.349-2.223,2.238-2.223,2.238l13.617,32.231,2.464-16.628C82.812,316.118,76.516,308.1,74.431,297.8Z" transform="translate(19.815 43.484)" fill="#ede3c6"/>
      <circle id="Elipse_2750" data-name="Elipse 2750" cx="1.882" cy="1.882" r="1.882" transform="translate(74.453 310.432)" fill="#ede3c6"/>
      <path id="Trazado_58733" data-name="Trazado 58733" d="M141.972,297.122l-2.581-3.065s-1.67-13.89-6.034-16-8.8-1.26-10.995,1.518c-1.731,2.189-6.457-1.518-.568-5.809s15.563-3.709,18.545.944S141.972,297.122,141.972,297.122Z" transform="translate(74.428 11.998)" fill="#824240"/>
      <path id="Trazado_58734" data-name="Trazado 58734" d="M123.894,273.588c5.672,2.128,5.728,14.671,5.728,14.671l3.707.655s.373-10.485-1.59-13.7S123.894,273.588,123.894,273.588Z" transform="translate(80.236 14.723)" fill="#824240"/>
      <path id="Trazado_58735" data-name="Trazado 58735" d="M128.81,285.856c2.28-.024,3.813-6.121,1.668-7.889s-3.379.6-3.342,2.952S127.623,285.869,128.81,285.856Z" transform="translate(84.024 19.585)" fill="#edb984"/>
      <path id="Trazado_58736" data-name="Trazado 58736" d="M128.543,283.129c1.334-.013,2.232-3.581.976-4.616s-1.978.349-1.956,1.727S127.849,283.137,128.543,283.129Z" transform="translate(84.524 20.522)" fill="#d27558"/>
      <path id="Trazado_58737" data-name="Trazado 58737" d="M128.225,282.665c.991-.013,1.7-2.664.785-3.427s-1.473.26-1.475,1.284S127.709,282.671,128.225,282.665Z" transform="translate(84.492 21.478)" fill="#edb984"/>
      <g id="Grupo_29100" data-name="Grupo 29100" transform="translate(198.239 314.896)">
        <path id="Trazado_58738" data-name="Trazado 58738" d="M131.255,289.8a30.305,30.305,0,0,0,3.919-3.084c-2.011-.707-3.546-1.084-3.546-1.084Q131.426,287.7,131.255,289.8Z" transform="translate(-109.398 -285.632)" fill="#f8e9bd"/>
        <path id="Trazado_58739" data-name="Trazado 58739" d="M121.178,293.054a9.783,9.783,0,0,0,2.941.8,24.467,24.467,0,0,1,3.384-6.867S124.249,289.885,121.178,293.054Z" transform="translate(-121.178 -284.053)" fill="#f8e9bd"/>
      </g>
      <g id="Grupo_29101" data-name="Grupo 29101" transform="translate(231.368 385.994)">
        <path id="Trazado_58740" data-name="Trazado 58740" d="M141.722,324.928c.325,1.084-1.362,3.139-2.356,3.368s-2.6-.015-2.069-1.507,1.935-2.9,2.731-3.052A1.647,1.647,0,0,1,141.722,324.928Z" transform="translate(-135.585 -312.209)" fill="#e79b69"/>
        <path id="Trazado_58741" data-name="Trazado 58741" d="M143.024,325.464c.512,1.028-.748,3.384-1.668,3.789s-2.516.447-2.275-1.141,1.345-3.247,2.089-3.538A1.622,1.622,0,0,1,143.024,325.464Z" transform="translate(-133.406 -311.294)" fill="#e79b69"/>
        <path id="Trazado_58742" data-name="Trazado 58742" d="M146.34,318.411c-4.551,1.325-6.661,2.95-9.045,10.084-.753,2.124.482,2.659,1.21,3.047,1.978,1.052,8.179,4.583,8.643,2.8s2.932-6.294,3.217-7.333C151.6,322.513,146.34,318.411,146.34,318.411Z" transform="translate(-135.74 -318.411)" fill="#edb984"/>
        <path id="Trazado_58743" data-name="Trazado 58743" d="M142.387,327.9l-1.93-5.741c-2.269,5.459-2.431,8.264-2.045,9.01.356.688,2.631,1.442,2.865.983S141.752,329.121,142.387,327.9Z" transform="translate(-134.351 -314.027)" fill="#edb984"/>
        <path id="Trazado_58744" data-name="Trazado 58744" d="M141.133,327.192l-.822-5.839c-3.349,4.8-4.06,7.446-3.815,8.229.223.722,2.366,1.861,2.692,1.464S140.257,328.237,141.133,327.192Z" transform="translate(-136.452 -314.972)" fill="#edb984"/>
        <path id="Trazado_58745" data-name="Trazado 58745" d="M144.229,326.381l-2.4-3.264c-1.49,3.631-1.913,6.759-1.557,7.67s2.759,1.117,2.972.564S143.776,327.436,144.229,326.381Z" transform="translate(-132.126 -312.91)" fill="#edb984"/>
      </g>
      <path id="Trazado_58746" data-name="Trazado 58746" d="M138.253,287.339c19.575,13.834,33.435,36.812,35.4,42.048s-18.658,37.671-18.658,37.671-11.127-7.418-12.654-10.908l8.509-20.508S139.5,326.7,134.924,320.154,138.253,287.339,138.253,287.339Z" transform="translate(91.46 31.26)" fill="#fbf5dd"/>
      <path id="Trazado_58747" data-name="Trazado 58747" d="M90.961,309.667c-2.763-5.091-.8-11.491-.8-11.491A19.774,19.774,0,0,1,90.961,309.667Z" transform="translate(40.013 43.928)" fill="#edb984"/>
      <path id="Trazado_58748" data-name="Trazado 58748" d="M83.461,330.781A109.624,109.624,0,0,0,94.887,367.94c1.7-.384,3.41-.783,5.11-1.184C90.443,356.419,83.461,330.781,83.461,330.781Z" transform="translate(32.97 82.044)" fill="#ede3c6"/>
      <path id="Trazado_58749" data-name="Trazado 58749" d="M64.946,289.292a34.612,34.612,0,0,1-8.8-1.058v12.352a5.745,5.745,0,0,0,5.746,5.744h2.876a5.745,5.745,0,0,0,5.746-5.744V288.9A38.613,38.613,0,0,1,64.946,289.292Z" transform="translate(1.034 32.306)" fill="#e33e4e"/>
      <rect id="Rectángulo_5401" data-name="Rectángulo 5401" width="5.163" height="6.981" transform="translate(61.778 308.8)" fill="#fcf7e0"/>
      <path id="Trazado_58750" data-name="Trazado 58750" d="M87.233,301.276c-3.8-7.639-6.641-16.365-4.9-21.6s14.944-6.327,18.326-2.29.3,4.986.3,4.986-8.483-4.223-10.993-.3.111,11.344.111,11.344l-2.4,3.381Z" transform="translate(31.04 16.763)" fill="#a5593a"/>
      <path id="Trazado_58751" data-name="Trazado 58751" d="M87.965,289.325c-1.939.924-5.759-3.6-4.672-5.978s3.108-.9,4.052,1.111S88.976,288.843,87.965,289.325Z" transform="translate(32.55 25.162)" fill="#edb984"/>
      <path id="Trazado_58752" data-name="Trazado 58752" d="M86.49,287.126c-1.158.553-3.44-2.147-2.792-3.57s1.857-.536,2.421.664S87.093,286.839,86.49,287.126Z" transform="translate(33.114 25.981)" fill="#d27558"/>
      <path id="Trazado_58753" data-name="Trazado 58753" d="M86.216,286.526c-.761.364-2.26-1.41-1.833-2.345s1.219-.351,1.59.436S86.613,286.337,86.216,286.526Z" transform="translate(33.96 27.006)" fill="#edb984"/>
      <path id="Trazado_58754" data-name="Trazado 58754" d="M128.16,323.883h-4.945l.291,2.545h4.945Z" transform="translate(79.443 73.98)" fill="#d5caaa"/>
      <g id="Grupo_29103" data-name="Grupo 29103" transform="translate(122.447 303.534)">
        <g id="Grupo_29102" data-name="Grupo 29102">
          <path id="Trazado_58755" data-name="Trazado 58755" d="M88.171,283.07c-.069-.755-.408-1.338-.753-1.306s-.573.67-.5,1.425.406,1.336.753,1.3S88.24,283.823,88.171,283.07Z" transform="translate(-85.455 -278.792)" fill="#5a4949"/>
          <path id="Trazado_58756" data-name="Trazado 58756" d="M91.168,282.785c-.069-.755-.406-1.338-.753-1.306s-.57.67-.5,1.425.406,1.336.753,1.3S91.238,283.538,91.168,282.785Z" transform="translate(-81.948 -279.125)" fill="#5a4949"/>
          <path id="Trazado_58757" data-name="Trazado 58757" d="M89.478,280.516l-2.739.779a.665.665,0,0,0-.492.742l.126.625a.558.558,0,0,0,.727.4l2.739-.779a.665.665,0,0,0,.492-.742l-.128-.625A.555.555,0,0,0,89.478,280.516Z" transform="translate(-86.235 -280.28)" fill="#a5593a"/>
          <path id="Trazado_58758" data-name="Trazado 58758" d="M92.227,280.978l-2.037-.57c-.252-.072-.49.128-.536.44l-.089.625a.62.62,0,0,0,.371.7l2.039.57c.249.069.49-.128.536-.442l.089-.622A.622.622,0,0,0,92.227,280.978Z" transform="translate(-82.349 -280.393)" fill="#a5593a"/>
        </g>
        <path id="Trazado_58759" data-name="Trazado 58759" d="M89.163,282.644s-.059.147-.132.38c.711.941,1.618,2.6-.141,2.633.02.043.026.093.048.135C92,286.166,89.732,283.21,89.163,282.644Z" transform="translate(-83.131 -277.762)" fill="#d27558"/>
        <path id="Trazado_58760" data-name="Trazado 58760" d="M92.521,285a3.152,3.152,0,0,1-.011.4,2.584,2.584,0,0,1-2.718,2.392,2.481,2.481,0,0,1-2.087-2.557Z" transform="translate(-84.515 -275.007)" fill="#443239"/>
        <path id="Trazado_58761" data-name="Trazado 58761" d="M92,285.1a1.978,1.978,0,0,1-2.358,2.1,2,2,0,0,1-1.809-1.952Z" transform="translate(-84.369 -274.886)" fill="#f4e9d6"/>
      </g>
      <g id="Grupo_29105" data-name="Grupo 29105" transform="translate(195.429 296.087)">
        <g id="Grupo_29104" data-name="Grupo 29104">
          <path id="Trazado_58762" data-name="Trazado 58762" d="M123.887,279.621c-.169-.709.067-1.332.529-1.39s.978.473,1.147,1.182-.065,1.334-.529,1.392S124.059,280.332,123.887,279.621Z" transform="translate(-115.265 -275.48)" fill="#5a4949"/>
          <path id="Trazado_58763" data-name="Trazado 58763" d="M123.664,276.96l3.106,0a.5.5,0,0,1,.508.421l.072.874a.4.4,0,0,1-.438.419l-3.106,0a.5.5,0,0,1-.508-.421l-.072-.874A.4.4,0,0,1,123.664,276.96Z" transform="translate(-115.976 -276.96)" fill="#824240"/>
          <path id="Trazado_58764" data-name="Trazado 58764" d="M120.966,279.945c-.148-.714.113-1.327.579-1.371s.963.5,1.108,1.212-.113,1.325-.579,1.369S121.112,280.657,120.966,279.945Z" transform="translate(-118.664 -275.076)" fill="#5a4949"/>
          <path id="Trazado_58765" data-name="Trazado 58765" d="M120.161,278.223l2.815-.935a.52.52,0,0,1,.618.256l.393.831a.385.385,0,0,1-.241.54l-2.815.935a.517.517,0,0,1-.616-.256l-.393-.831A.384.384,0,0,1,120.161,278.223Z" transform="translate(-119.883 -276.605)" fill="#824240"/>
          <path id="Trazado_58766" data-name="Trazado 58766" d="M123.282,279.656c-.82,1.418-1.163,2.594-.347,3.243a2.151,2.151,0,0,0,1.588.351l.013.037a3.386,3.386,0,0,1-2.479-.082C121.065,282.547,121.911,281.209,123.282,279.656Z" transform="translate(-117.846 -273.808)" fill="#d27558"/>
          <path id="Trazado_58767" data-name="Trazado 58767" d="M122.462,283.058l5.214-.779a3.372,3.372,0,0,1-1.382,3.253C124.388,286.671,122.462,283.058,122.462,283.058Z" transform="translate(-116.867 -270.742)" fill="#3e2d34"/>
          <path id="Trazado_58768" data-name="Trazado 58768" d="M123.613,283.971a3.5,3.5,0,0,1-.642-1.022l3.75-.508a1.954,1.954,0,0,1-.247.967Z" transform="translate(-116.272 -270.551)" fill="#f9eddb"/>
        </g>
      </g>
      <g id="Grupo_29106" data-name="Grupo 29106" transform="translate(165.862 398.206)">
        <path id="Trazado_58769" data-name="Trazado 58769" d="M117.39,331.189c-.757-.707-3.193-3.507-6.537-3.334l-1-3.718c2.952.364,7.192,2.156,9.129,4.911C120.325,330.955,118.16,331.91,117.39,331.189Z" transform="translate(-102.04 -323.928)" fill="#edb984"/>
        <path id="Trazado_58770" data-name="Trazado 58770" d="M106.251,329.078l7.873-5.036s2.1.553,4.223,4.154a7.279,7.279,0,0,0,1.312,6.169c1.054,1.351-5.689,3.939-7.754,2.857C111.114,336.8,107.535,331.706,106.251,329.078Z" transform="translate(-106.251 -324.041)" fill="#edb984"/>
        <path id="Trazado_58771" data-name="Trazado 58771" d="M117.288,332.7a9.963,9.963,0,0,1-4.785-5.245l-1.384,2.518c.464,1.51,2.744,3.681,4.206,4.559S117.986,333.13,117.288,332.7Z" transform="translate(-100.56 -320.047)" fill="#edb984"/>
        <path id="Trazado_58772" data-name="Trazado 58772" d="M116.617,334.731a12.826,12.826,0,0,1-4.928-6.414l-1.421,2.592c.479,1.722,2.614,3.911,4.117,5.073S117.335,335.292,116.617,334.731Z" transform="translate(-101.555 -319.042)" fill="#edb984"/>
        <path id="Trazado_58773" data-name="Trazado 58773" d="M114.568,336.13a19.318,19.318,0,0,1-4.724-8.526l-1.651,2.366c.384,2.024,2.47,5.073,3.965,6.813S115.279,336.97,114.568,336.13Z" transform="translate(-103.981 -319.876)" fill="#edb984"/>
      </g>
      <g id="Grupo_29107" data-name="Grupo 29107" transform="translate(73.023 401.299)">
        <path id="Trazado_58774" data-name="Trazado 58774" d="M67.545,331.2c-1,.377-1.783,3.13-1.475,4.149s1.284,2.288,2.189.9a6.506,6.506,0,0,0,1.043-4.288A1.368,1.368,0,0,0,67.545,331.2Z" transform="translate(-60.464 -318.86)" fill="#e79b69"/>
        <path id="Trazado_58775" data-name="Trazado 58775" d="M66.563,330.157c-1.05.178-2.271,2.737-2.139,3.8s.883,2.5,2,1.31a6.365,6.365,0,0,0,1.737-4.015A1.409,1.409,0,0,0,66.563,330.157Z" transform="translate(-62.319 -320.004)" fill="#e79b69"/>
        <path id="Trazado_58776" data-name="Trazado 58776" d="M65.6,328.924c-1.052.178-2.273,2.737-2.139,3.8s.883,2.5,2,1.312a6.379,6.379,0,0,0,1.74-4.017A1.41,1.41,0,0,0,65.6,328.924Z" transform="translate(-63.448 -321.445)" fill="#e79b69"/>
        <path id="Trazado_58777" data-name="Trazado 58777" d="M77.272,326.057c1.191,4.837.74,14.73-3.44,14.187-1.288,1.967-2.31,1.2-2.969.8-1.789-1.1-7.576-4.423-6.409-5.926s3.473-6.457,4.145-7.346C71.5,323.925,77.272,326.057,77.272,326.057Z" transform="translate(-62.454 -325.467)" fill="#edb984"/>
        <path id="Trazado_58778" data-name="Trazado 58778" d="M67.374,331.69l5.423-1.818c-3.147,5.355-5.253,7.221-6.025,7.336-.709.108-2.412-1.44-2.167-1.93S66.736,333,67.374,331.69Z" transform="translate(-62.125 -320.318)" fill="#edb984"/>
        <path id="Trazado_58779" data-name="Trazado 58779" d="M68.333,333.147l4.954-2.854c-2.1,5.9-3.817,8.158-4.548,8.422-.672.245-2.611-.95-2.46-1.481S67.947,334.566,68.333,333.147Z" transform="translate(-60.15 -319.826)" fill="#edb984"/>
        <path id="Trazado_58780" data-name="Trazado 58780" d="M66.952,328.936l3.72.121c-2.1,3.546-4.336,5.839-5.219,6.082s-2.221-1.753-1.894-2.28S66.351,329.986,66.952,328.936Z" transform="translate(-63.378 -321.412)" fill="#edb984"/>
      </g>
      <path id="Trazado_58781" data-name="Trazado 58781" d="M151.219,333.258,138.3,323l-2.457,4.913,6.3,8.865Z" transform="translate(94.2 72.953)" fill="#efe6ca"/>
      <g id="Grupo_29112" data-name="Grupo 29112" transform="translate(145.334 260.598)">
        <g id="Grupo_29108" data-name="Grupo 29108" transform="translate(0)">
          <circle id="Elipse_2751" data-name="Elipse 2751" cx="16.884" cy="16.884" r="16.884" fill="#f6d738"/>
        </g>
        <g id="Grupo_29109" data-name="Grupo 29109" transform="translate(2.555 2.555)">
          <circle id="Elipse_2752" data-name="Elipse 2752" cx="14.329" cy="14.329" r="14.329" fill="#f3cc30"/>
        </g>
        <g id="Grupo_29110" data-name="Grupo 29110" transform="translate(4.809 4.654)">
          <path id="Trazado_58782" data-name="Trazado 58782" d="M118.575,262.744A14.33,14.33,0,0,1,99,282.675a14.33,14.33,0,1,0,19.571-19.931Z" transform="translate(-99.004 -262.744)" fill="#edbd31"/>
        </g>
        <g id="Grupo_29111" data-name="Grupo 29111" transform="translate(4.124 4.14)">
          <path id="Trazado_58783" data-name="Trazado 58783" d="M99.629,276.562a12.648,12.648,0,0,1,22.675-7.711,12.65,12.65,0,1,0-20.994,14.016A12.6,12.6,0,0,1,99.629,276.562Z" transform="translate(-98.688 -262.507)" fill="#f7db5e"/>
        </g>
        <path id="Trazado_58784" data-name="Trazado 58784" d="M108.258,264.119v1.824a3.857,3.857,0,0,1,1.8.727,5.568,5.568,0,0,1,1.332,1.685l-1.815,1.015a2.43,2.43,0,0,0-2.143-1.49,1.96,1.96,0,0,0-1.36.486,1.559,1.559,0,0,0-.54,1.21,1.491,1.491,0,0,0,.438,1.1,6.43,6.43,0,0,0,1.733,1.015,17.386,17.386,0,0,1,1.863.963,4.926,4.926,0,0,1,1.106.872,3.891,3.891,0,0,1,1.054,2.746,4.406,4.406,0,0,1-.95,2.8,4.6,4.6,0,0,1-2.516,1.62v1.928h-1.629v-1.874a4.945,4.945,0,0,1-2.785-1.256,6,6,0,0,1-1.416-2.963l2.05-.427a4.817,4.817,0,0,0,1.024,2.022,2.414,2.414,0,0,0,1.687.577,2.384,2.384,0,0,0,1.714-.661,2.231,2.231,0,0,0,.679-1.685,1.981,1.981,0,0,0-.568-1.481,5.24,5.24,0,0,0-.852-.61,14.262,14.262,0,0,0-1.438-.742,6.933,6.933,0,0,1-2.375-1.49,3.723,3.723,0,0,1-.69-3.679,3.424,3.424,0,0,1,.62-1.048,3.816,3.816,0,0,1,1-.815,5.363,5.363,0,0,1,1.351-.54v-1.824Z" transform="translate(-90.192 -256.483)" fill="#d49a34"/>
      </g>
    </g>
  </g>
</svg>
