<svg xmlns="http://www.w3.org/2000/svg" width="198.622" height="174.125" viewBox="0 0 198.622 174.125">
  <g id="Grupo_29178" data-name="Grupo 29178" transform="translate(-231.573 -365.99)">
    <g id="Grupo_29161" data-name="Grupo 29161" transform="translate(231.573 404.403)">
      <g id="Grupo_29156" data-name="Grupo 29156" transform="translate(33.939 0.968)" opacity="0.4">
        <g id="Grupo_29155" data-name="Grupo 29155">
          <path id="Trazado_58843" data-name="Trazado 58843" d="M292.191,496.931a45.72,45.72,0,0,1-24.547-13.468c-9-9.289-17.074-24.44-10.873-46.954,11.75-42.656,65.077-49.738,89.355-39.894,38.585,15.645,56.266,78.956,3.235,99.468C336.178,501.182,306.555,499.556,292.191,496.931Z" transform="translate(-254.587 -392.695)" fill="#c5dbee"/>
        </g>
      </g>
      <g id="Grupo_29158" data-name="Grupo 29158" transform="translate(155.644)" opacity="0.4">
        <g id="Grupo_29157" data-name="Grupo 29157">
          <path id="Trazado_58844" data-name="Trazado 58844" d="M370.524,398.47c-8.4-7.922-22.708-9.193-30.048-.031a16.932,16.932,0,0,0-2.65,14.934c3.993,11.345,23.191,29,37.27,16.242C384.2,421.362,379.784,407.2,370.524,398.47Z" transform="translate(-337.117 -392.039)" fill="#c5dbee"/>
        </g>
      </g>
      <g id="Grupo_29160" data-name="Grupo 29160" transform="translate(0 51.972)" opacity="0.4">
        <g id="Grupo_29159" data-name="Grupo 29159">
          <path id="Trazado_58845" data-name="Trazado 58845" d="M260.412,440.327a18.54,18.54,0,0,0-22.58-12.374c-3.4.945-5.383,5.85-5.953,9.14-1.773,10.236,4.049,31.9,20.262,29.364C265.247,464.406,263.709,450.815,260.412,440.327Z" transform="translate(-231.572 -427.282)" fill="#c5dbee"/>
        </g>
      </g>
    </g>
    <g id="Grupo_29167" data-name="Grupo 29167" transform="translate(258.396 365.99)">
      <g id="Grupo_29162" data-name="Grupo 29162" transform="translate(0 141.791)">
        <rect id="Rectángulo_5418" data-name="Rectángulo 5418" width="1.727" height="8.614" transform="translate(3.443)" fill="#cce0fb"/>
        <rect id="Rectángulo_5419" data-name="Rectángulo 5419" width="1.727" height="8.614" transform="translate(8.614 3.443) rotate(90)" fill="#cce0fb"/>
      </g>
      <g id="Grupo_29163" data-name="Grupo 29163" transform="translate(57.723)">
        <rect id="Rectángulo_5420" data-name="Rectángulo 5420" width="2.877" height="14.35" transform="translate(5.737)" fill="#cce0fb"/>
        <rect id="Rectángulo_5421" data-name="Rectángulo 5421" width="2.877" height="14.35" transform="translate(14.35 5.737) rotate(90)" fill="#cce0fb"/>
      </g>
      <g id="Grupo_29164" data-name="Grupo 29164" transform="translate(135.799 112.56)">
        <rect id="Rectángulo_5422" data-name="Rectángulo 5422" width="2.877" height="14.35" transform="matrix(-0.001, -1, 1, -0.001, 0.002, 8.619)" fill="#cce0fb"/>
        <rect id="Rectángulo_5423" data-name="Rectángulo 5423" width="2.877" height="14.35" transform="translate(5.738)" fill="#cce0fb"/>
      </g>
      <g id="Grupo_29165" data-name="Grupo 29165" transform="translate(73.21 21.108)">
        <rect id="Rectángulo_5424" data-name="Rectángulo 5424" width="1.527" height="7.616" transform="translate(3.045)" fill="#cce0fb"/>
        <rect id="Rectángulo_5425" data-name="Rectángulo 5425" width="1.527" height="7.616" transform="translate(7.616 3.045) rotate(90)" fill="#cce0fb"/>
      </g>
      <g id="Grupo_29166" data-name="Grupo 29166" transform="translate(151.709 95.721)">
        <rect id="Rectángulo_5426" data-name="Rectángulo 5426" width="1.527" height="7.616" transform="matrix(-0.001, -1, 1, -0.001, 0.001, 4.575)" fill="#cce0fb"/>
        <rect id="Rectángulo_5427" data-name="Rectángulo 5427" width="1.527" height="7.616" transform="translate(3.045)" fill="#cce0fb"/>
      </g>
    </g>
    <g id="Grupo_29173" data-name="Grupo 29173" transform="translate(325.231 392.643)">
      <g id="Grupo_29168" data-name="Grupo 29168" transform="translate(0 67.733)">
        <path id="Trazado_58846" data-name="Trazado 58846" d="M296.417,434.576c.543-.45,2.308-2.252,4.57-2l.829-2.483c-2.019.128-4.968,1.174-6.394,2.966C294.435,434.3,295.864,435.033,296.417,434.576Z" transform="translate(-295.083 -429.947)" fill="#edb984"/>
        <path id="Trazado_58847" data-name="Trazado 58847" d="M306.139,433.729,301,429.994s-1.442.292-3.032,2.65a4.948,4.948,0,0,1-1.138,4.134c-.77.876,3.7,2.9,5.148,2.25C302.529,438.777,305.163,435.461,306.139,433.729Z" transform="translate(-294.298 -429.994)" fill="#edb984"/>
        <path id="Trazado_58848" data-name="Trazado 58848" d="M295.258,436.662a6.767,6.767,0,0,0,3.458-3.368l.838,1.767a7.656,7.656,0,0,1-3.038,2.924C295.489,438.522,294.767,436.923,295.258,436.662Z" transform="translate(-295.075 -428.428)" fill="#edb984"/>
        <path id="Trazado_58849" data-name="Trazado 58849" d="M295.939,438.357a8.731,8.731,0,0,0,3.6-4.156l.86,1.817a8.551,8.551,0,0,1-3,3.277C296.334,440.023,295.429,438.709,295.939,438.357Z" transform="translate(-294.747 -427.997)" fill="#edb984"/>
        <path id="Trazado_58850" data-name="Trazado 58850" d="M297.98,439.2a13.169,13.169,0,0,0,3.547-5.6l1.026,1.672a12.9,12.9,0,0,1-2.964,4.464C298.5,440.863,297.462,439.744,297.98,439.2Z" transform="translate(-293.773 -428.279)" fill="#edb984"/>
      </g>
      <path id="Trazado_58851" data-name="Trazado 58851" d="M330.784,401.284c-8.7,1.911-32.176,42.154-32.176,42.154s2.578,6.3,5.1,6.792c0,0,24.45-24.7,27.706-29.4C337.289,405.419,330.784,401.284,330.784,401.284Z" transform="translate(-293.41 -375.889)" fill="#fbf5dd"/>
      <path id="Trazado_58852" data-name="Trazado 58852" d="M318.374,462.141a234.429,234.429,0,0,0,25.844,4.269l-10.367-23.2-11,.091Z" transform="translate(-284.028 -355.986)" fill="#c6b691"/>
      <path id="Trazado_58853" data-name="Trazado 58853" d="M314.456,429.958l1.46,72.776.765.045,20.315-72.86Z" transform="translate(-285.888 -362.297)" fill="#7857a3"/>
      <path id="Trazado_58854" data-name="Trazado 58854" d="M314.456,429.958l.849,42.315,4.9.639-3.888,29.847.359.021,20.315-72.86Z" transform="translate(-285.888 -362.297)" fill="#66468e"/>
      <path id="Trazado_58855" data-name="Trazado 58855" d="M341.646,427.549l6.543,78.244-.744-.044L325.69,457.179l-3.855-.88-6.486-25.267Z" transform="translate(-285.464 -363.422)" fill="#7857a3"/>
      <path id="Trazado_58856" data-name="Trazado 58856" d="M341.646,427.549l-26.3,3.482L317,441.346l18.261,1.08,7.869,53.684-16.723-39.647-4.6-.272.028.108,3.855.88,21.755,48.571.744.044Z" transform="translate(-285.464 -363.422)" fill="#66468e"/>
      <path id="Trazado_58857" data-name="Trazado 58857" d="M318.267,407.91c-4.517,9.637-4.943,43.084-4.026,44.317s28.141,1.42,30.175.628-1.509-45.75-2.7-48.627c-.723-1.747-7.466-6.7-13.176-5.557C324.847,399.41,318.929,406.5,318.267,407.91Z" transform="translate(-286.177 -377.21)" fill="#f0c86a"/>
      <path id="Trazado_58858" data-name="Trazado 58858" d="M332.72,400.578l-4.274.242c-2.261,13.993-3.066,31.9-3.235,51.515l7.258-.066Z" transform="translate(-280.783 -376.224)" fill="#ecb648"/>
      <path id="Trazado_58859" data-name="Trazado 58859" d="M318.792,434.814c.86-14.531,3.728-27.343,7.5-35.521a31.3,31.3,0,0,0-8.025,8.242c-4.517,9.637-4.943,43.084-4.026,44.317.224.3,2.007.538,4.605.715A137.887,137.887,0,0,1,318.792,434.814Z" transform="translate(-286.177 -376.834)" fill="#ecb648"/>
      <path id="Trazado_58860" data-name="Trazado 58860" d="M318.545,404.628c2.047,1.484,6.493,1.346,11.051-.54a19.559,19.559,0,0,0,5.635-3.468c-2.559-1.439-5.887-2.554-8.922-1.948C323.979,399.137,320.767,402.128,318.545,404.628Z" transform="translate(-283.947 -377.21)" fill="#ecb648"/>
      <path id="Trazado_58861" data-name="Trazado 58861" d="M330.466,403.086c-.9-4.812-3.395-12.611-3.395-12.611l-6.124,4.644.263,9.61C323.612,406.216,326.52,406.2,330.466,403.086Z" transform="translate(-282.807 -381.02)" fill="#d27558"/>
      <path id="Trazado_58862" data-name="Trazado 58862" d="M329.453,403.19c.413-3.622-.274-14.745-4.356-16.735s-8.491,1.787-7.189,8.41,2.405,10.36,2.725,10.547C321.677,406.019,329.3,404.509,329.453,403.19Z" transform="translate(-284.36 -383.18)" fill="#edb984"/>
      <path id="Trazado_58863" data-name="Trazado 58863" d="M332.658,491.149,348,490.233s-9.432-84.192-10.539-86.185c-1.571-2.826-8.036-4.824-8.036-4.824A250.337,250.337,0,0,0,332.658,491.149Z" transform="translate(-280.111 -376.867)" fill="#fbf5dd"/>
      <path id="Trazado_58864" data-name="Trazado 58864" d="M346.494,486.231s-6.326-56.465-9.224-78.006c-5.639-4.306-9.354,16.362-6.465,44.7,1.245,12.2,3.794,23.716,5.465,33.912Z" transform="translate(-278.604 -372.865)" fill="#efe6ca"/>
      <path id="Trazado_58865" data-name="Trazado 58865" d="M318.255,481.164l-6.067-.36s4.591-2.118,5.365-1.935S318.255,481.164,318.255,481.164Z" transform="translate(-286.964 -339.067)" fill="#e3d9be"/>
      <path id="Trazado_58866" data-name="Trazado 58866" d="M336.832,482.347l4.651.276s-3.269-2.584-3.878-2.482S336.832,482.347,336.832,482.347Z" transform="translate(-275.266 -338.459)" fill="#e3d9be"/>
      <path id="Trazado_58867" data-name="Trazado 58867" d="M312.4,483.124l5.251.805s-3.806-70.454,7.609-83.788c0,0-6.006,4.751-7.894,7.4C312.833,413.91,312.4,483.124,312.4,483.124Z" transform="translate(-286.862 -376.432)" fill="#fbf5dd"/>
      <path id="Trazado_58868" data-name="Trazado 58868" d="M331.6,402.338l-1.628-2.185s-.578-9.494-3.454-11.1-5.922-1.208-7.524.59c-1.262,1.416-4.322-1.29-.152-3.965s10.711-1.893,12.548,1.385S331.6,402.338,331.6,402.338Z" transform="translate(-284.812 -384.064)" fill="#824240"/>
      <path id="Trazado_58869" data-name="Trazado 58869" d="M321.73,386.594c3.763,1.672,3.3,10.187,3.3,10.187l2.491.594s.674-7.1-.529-9.364S321.73,386.594,321.73,386.594Z" transform="translate(-282.435 -382.936)" fill="#824240"/>
      <path id="Trazado_58870" data-name="Trazado 58870" d="M325.576,396.521c1.548.075,2.834-4,1.45-5.287s-2.318.268-2.389,1.868S324.77,396.481,325.576,396.521Z" transform="translate(-281.062 -380.886)" fill="#edb984"/>
      <path id="Trazado_58871" data-name="Trazado 58871" d="M325.6,394.934c.907.043,1.659-2.342.848-3.094s-1.355.156-1.4,1.093S325.133,394.91,325.6,394.934Z" transform="translate(-280.861 -380.505)" fill="#d27558"/>
      <path id="Trazado_58872" data-name="Trazado 58872" d="M325.376,394.869c.672.032,1.264-1.739.671-2.295s-1.01.119-1.053.813S325.027,394.852,325.376,394.869Z" transform="translate(-280.891 -380.121)" fill="#edb984"/>
      <g id="Grupo_29169" data-name="Grupo 29169" transform="translate(33.867 22.358)">
        <path id="Trazado_58873" data-name="Trazado 58873" d="M328.24,402.039a20.515,20.515,0,0,0,2.783-1.935c-1.335-.562-2.362-.879-2.362-.879Q328.441,400.621,328.24,402.039Z" transform="translate(-313.212 -399.225)" fill="#f8e9bd"/>
        <path id="Trazado_58874" data-name="Trazado 58874" d="M318.049,404.008a6.669,6.669,0,0,0,1.964.656,16.616,16.616,0,0,1,2.572-4.523S320.261,401.98,318.049,404.008Z" transform="translate(-318.049 -398.79)" fill="#f8e9bd"/>
      </g>
      <g id="Grupo_29170" data-name="Grupo 29170" transform="translate(53.284 71.474)">
        <path id="Trazado_58875" data-name="Trazado 58875" d="M335.1,438.548c.177.749-1.05,2.076-1.734,2.191s-1.762-.115-1.343-1.106A3.533,3.533,0,0,1,334,437.672,1.12,1.12,0,0,1,335.1,438.548Z" transform="translate(-330.875 -430.094)" fill="#e79b69"/>
        <path id="Trazado_58876" data-name="Trazado 58876" d="M336.551,439.257c.307.717-.643,2.267-1.284,2.5s-1.724.2-1.5-.866a3.562,3.562,0,0,1,1.559-2.317A1.1,1.1,0,0,1,336.551,439.257Z" transform="translate(-330.018 -429.678)" fill="#e79b69"/>
        <path id="Trazado_58877" data-name="Trazado 58877" d="M338.658,432.531c-3.141.718-4.638,1.736-6.543,6.483a1.42,1.42,0,0,0,.7,2.116c1.3.793,5.366,3.439,5.753,2.244s2.243-4.154,2.479-4.849C342.061,435.528,338.658,432.531,338.658,432.531Z" transform="translate(-330.889 -432.531)" fill="#edb984"/>
        <path id="Trazado_58878" data-name="Trazado 58878" d="M335.861,440.127l-1.078-3.974c-1.759,3.613-1.982,5.511-1.75,6.031.215.482,1.728,1.087,1.905.783A22.124,22.124,0,0,1,335.861,440.127Z" transform="translate(-330.39 -430.812)" fill="#edb984"/>
        <path id="Trazado_58879" data-name="Trazado 58879" d="M334.478,439.281l-.324-3.995c-2.464,3.12-3.054,4.889-2.92,5.43.124.5,1.532,1.36,1.768,1.1A20.727,20.727,0,0,1,334.478,439.281Z" transform="translate(-331.216 -431.223)" fill="#edb984"/>
        <path id="Trazado_58880" data-name="Trazado 58880" d="M337.748,439.517l-1.5-2.312c-1.158,2.405-1.57,4.511-1.366,5.144s1.827.869,1.994.5S337.4,440.215,337.748,439.517Z" transform="translate(-329.499 -430.312)" fill="#edb984"/>
      </g>
      <path id="Trazado_58881" data-name="Trazado 58881" d="M334.065,401.181c12.731,10.175,21.215,26.326,22.337,29.958s-14.176,24.819-14.176,24.819-7.252-5.481-8.149-7.912l6.6-13.577s-7.341-6.525-10.187-11.152S334.065,401.181,334.065,401.181Z" transform="translate(-278.623 -375.938)" fill="#fbf5dd"/>
      <path id="Trazado_58882" data-name="Trazado 58882" d="M321.425,437.123l-3.356-.2.1,1.739,3.356.2Z" transform="translate(-284.173 -358.972)" fill="#d5caaa"/>
      <g id="Grupo_29172" data-name="Grupo 29172" transform="translate(32.995 8.894)">
        <g id="Grupo_29171" data-name="Grupo 29171">
          <path id="Trazado_58883" data-name="Trazado 58883" d="M321.376,392.324c-.087-.49.1-.9.416-.923s.643.36.73.849-.1.9-.414.922S321.463,392.814,321.376,392.324Z" transform="translate(-315.608 -389.475)" fill="#5a4949"/>
          <path id="Trazado_58884" data-name="Trazado 58884" d="M321.152,390.1l2.107.128a.338.338,0,0,1,.329.305l.013.6a.276.276,0,0,1-.314.267l-2.107-.128a.337.337,0,0,1-.327-.305l-.015-.6A.276.276,0,0,1,321.152,390.1Z" transform="translate(-315.854 -390.095)" fill="#824240"/>
          <path id="Trazado_58885" data-name="Trazado 58885" d="M318.445,392.482c-.071-.491.13-.9.448-.907s.634.378.7.867-.131.9-.45.905S318.515,392.972,318.445,392.482Z" transform="translate(-316.996 -389.392)" fill="#5a4949"/>
          <path id="Trazado_58886" data-name="Trazado 58886" d="M317.664,390.809l1.948-.521a.353.353,0,0,1,.409.2l.233.578a.263.263,0,0,1-.184.358l-1.948.521a.355.355,0,0,1-.41-.2l-.233-.578A.263.263,0,0,1,317.664,390.809Z" transform="translate(-317.458 -390.008)" fill="#824240"/>
          <path id="Trazado_58887" data-name="Trazado 58887" d="M320.255,392.726c-.613.929-.892,1.714-.366,2.187a1.468,1.468,0,0,0,1.063.3l.007.027a2.306,2.306,0,0,1-1.68-.155C318.632,394.6,319.262,393.724,320.255,392.726Z" transform="translate(-316.718 -388.845)" fill="#d27558"/>
          <path id="Trazado_58888" data-name="Trazado 58888" d="M319.753,395.81l3.57-.32a2.293,2.293,0,0,1-1.069,2.153C320.914,398.341,319.753,395.81,319.753,395.81Z" transform="translate(-316.369 -387.534)" fill="#3e2d34"/>
          <path id="Trazado_58889" data-name="Trazado 58889" d="M320.654,396.556a2.359,2.359,0,0,1-.4-.718l2.564-.195a1.327,1.327,0,0,1-.206.646Z" transform="translate(-316.128 -387.461)" fill="#f9eddb"/>
        </g>
      </g>
      <path id="Trazado_58890" data-name="Trazado 58890" d="M340.813,444.338l-8.36-7.478-1.865,3.236,3.921,6.27Z" transform="translate(-278.23 -359.002)" fill="#efe6ca"/>
    </g>
    <g id="Grupo_29177" data-name="Grupo 29177" transform="translate(252.946 388.318)">
      <path id="Trazado_58891" data-name="Trazado 58891" d="M281.913,395.132c.116-2.862.613-5.1-.286-5.477s-1.448,3.11-1.448,3.11Z" transform="translate(-229.874 -377.098)" fill="#e79b69"/>
      <path id="Trazado_58892" data-name="Trazado 58892" d="M281.951,391.356c-.942-.078-3.541,4.454-4.008,5.424s-.112,2.2.672,4.353l5.85-4.278C282.4,394.565,283.563,391.489,281.951,391.356Z" transform="translate(-231.034 -376.278)" fill="#e79b69"/>
      <path id="Trazado_58893" data-name="Trazado 58893" d="M274.1,398.548l.56,23.371c11.078,7.561,24.4,5.032,27.2-.168C306.583,413.006,291.673,402.286,274.1,398.548Z" transform="translate(-232.76 -372.864)" fill="#f1cb67"/>
      <path id="Trazado_58894" data-name="Trazado 58894" d="M285.014,411.79a47.387,47.387,0,0,1-10.746-4.843l.2,11.735c11.076,7.561,24.509,4.281,27.317-.919a6.937,6.937,0,0,0,.839-4.049C297.92,414.452,291.6,413.862,285.014,411.79Z" transform="translate(-232.679 -368.877)" fill="#62cca2"/>
      <path id="Trazado_58895" data-name="Trazado 58895" d="M266.66,446.588c5.009,13.843,26.311,60.344,26.311,60.344l.8.027-4.426-74.045-20.272-.448Z" transform="translate(-236.291 -356.764)" fill="#172e60"/>
      <path id="Trazado_58896" data-name="Trazado 58896" d="M271.882,432.834l-3.3.047L266.3,446.891c5.132,13.732,26.847,59.866,26.847,59.866l.295.009c-2.619-7.8-16.185-55.75-16.185-55.75l2.943-1.283Z" transform="translate(-236.463 -356.589)" fill="#12214a"/>
      <path id="Trazado_58897" data-name="Trazado 58897" d="M258.539,431.786c-.428,32.863,6.021,74.378,6.021,74.378l.681.022L280.3,450.569l4.024-.478-1.435-16.9Z" transform="translate(-240.155 -357.086)" fill="#172e60"/>
      <path id="Trazado_58898" data-name="Trazado 58898" d="M265.436,446.7c12.081-2.613,21.17-3.788,28.718-3.747l-.575-11.992-35.848,1.146c-.341,26.192,4.57,57.936,6.525,69.737Z" transform="translate(-240.537 -357.477)" fill="#12214a"/>
      <path id="Trazado_58899" data-name="Trazado 58899" d="M257.574,455.824c6.3,4.238,35.2,2.261,38.318.434,0,0-.491-43.687-4.645-49.465s-13.439-9.665-18.311-10.044c-2.893-.224-15.8,4.676-17.341,7.951C252.993,410.249,257.574,455.824,257.574,455.824Z" transform="translate(-241.922 -373.721)" fill="#7ae2b6"/>
      <path id="Trazado_58900" data-name="Trazado 58900" d="M285.028,402c-1.658-2.306-7.454-.842-10.14-2.442,1.771,5.545,6.947,21.091,9.456,22.692a5.853,5.853,0,0,0,.571.314C284.22,414.491,286.519,404.069,285.028,402Z" transform="translate(-232.385 -372.386)" fill="#62cca2"/>
      <path id="Trazado_58901" data-name="Trazado 58901" d="M277.777,400.218a29.428,29.428,0,0,0-9.951-3.44,2.669,2.669,0,0,0-1.43,2.011c-.081,2.377,4.869,4.473,11.056,4.682a20.333,20.333,0,0,0,9.211-1.517,65.705,65.705,0,0,0-8.906-2.566Z" transform="translate(-236.417 -373.704)" fill="#62cca2"/>
      <path id="Trazado_58902" data-name="Trazado 58902" d="M283.2,435.387s-5.825-22.8-1.175-33.46C282.8,409.662,282.85,425.584,283.2,435.387Z" transform="translate(-229.851 -371.26)" fill="#62cca2"/>
      <path id="Trazado_58903" data-name="Trazado 58903" d="M263.976,426.539c-2.348-15.366-7.693-24.369-8.625-22.437-2.61,5.409,2.326,48.4,2.326,48.4,2.8,1.845,10.1,2.488,17.608,2.477C269.809,448.374,265.649,437.491,263.976,426.539Z" transform="translate(-242.021 -370.351)" fill="#62cca2"/>
      <path id="Trazado_58904" data-name="Trazado 58904" d="M260.773,401.109C254.5,405.934,243.616,429.4,248.9,439.1l16.314-7.48C272.225,414.545,266.18,396.947,260.773,401.109Z" transform="translate(-245.386 -371.941)" fill="#7ae2b6"/>
      <path id="Trazado_58905" data-name="Trazado 58905" d="M253.365,426.134c-2.343-.717-3.958-3.112-4.743-6.5-1.414,5.71-1.672,11.175.282,14.757l16.282-6.172a55.042,55.042,0,0,0,3.822-17.8C265.466,420.29,258.345,427.659,253.365,426.134Z" transform="translate(-245.385 -367.233)" fill="#62cca2"/>
      <path id="Trazado_58906" data-name="Trazado 58906" d="M266.534,422.754a10.412,10.412,0,0,0-13.437-7.015,10.287,10.287,0,0,0-6.465,12.781,10.48,10.48,0,0,0,12.374,7.043A10.256,10.256,0,0,0,266.534,422.754Z" transform="translate(-246.019 -364.977)" fill="#fbf5dd"/>
      <path id="Trazado_58907" data-name="Trazado 58907" d="M253.8,420.27a11.773,11.773,0,0,1-.465-4.759,10.213,10.213,0,0,0-6.806,12.812,10.741,10.741,0,0,0,12.687,7,9.866,9.866,0,0,0,7.552-7.966A10.891,10.891,0,0,1,253.8,420.27Z" transform="translate(-246.066 -364.812)" fill="#f6e0ae"/>
      <path id="Trazado_58908" data-name="Trazado 58908" d="M268.937,447.806c-.479-5.231-2.053-22.648-5.237-26.942-2.619-3.535-10.737-3.408-13.281-.987s-2.738,9.125-1.5,11.768c1.731,3.7,13.753,17.736,13.753,17.736Z" transform="translate(-245.064 -363.571)" fill="#edb984"/>
      <path id="Trazado_58909" data-name="Trazado 58909" d="M258.8,440.056c-4.983-9.088-5.66-18.3-1.513-20.57,1.442-.79,3.277-.637,5.265.28-3.318-2.371-9.892-2.025-12.135.111-2.545,2.423-2.738,9.125-1.5,11.768,1.731,3.7,13.753,17.736,13.753,17.736A72.2,72.2,0,0,0,258.8,440.056Z" transform="translate(-245.064 -363.57)" fill="#e79b69"/>
      <path id="Trazado_58910" data-name="Trazado 58910" d="M282.613,400.4c-3.5-1.9-8.655-3.889-11.079-4.2-1.433-.183-5.12.742-8.925,2.445a30.166,30.166,0,0,0,18.289,5.129A16.5,16.5,0,0,0,282.613,400.4Z" transform="translate(-238.214 -373.987)" fill="#f6e0ae"/>
      <path id="Trazado_58911" data-name="Trazado 58911" d="M284.19,484.652l6.435.217s-4.163-2.4-5.383-2.488S284.19,484.652,284.19,484.652Z" transform="translate(-227.974 -333.071)" fill="#f9ebc9"/>
      <path id="Trazado_58912" data-name="Trazado 58912" d="M265.642,483.975l-6.515-.22s4.369-2.112,5.607-2.116S265.642,483.975,265.642,483.975Z" transform="translate(-239.866 -333.422)" fill="#f9ebc9"/>
      <path id="Trazado_58913" data-name="Trazado 58913" d="M300.327,416.36a10.464,10.464,0,0,0-9.04-11.386,8.812,8.812,0,0,0-10,8.071,10.556,10.556,0,0,0,8.121,10.973A8.812,8.812,0,0,0,300.327,416.36Z" transform="translate(-229.366 -369.848)" fill="#fbf5dd"/>
      <path id="Trazado_58914" data-name="Trazado 58914" d="M290.3,409.081a8.785,8.785,0,0,1,1.246-3.812c-.077-.015-.149-.035-.226-.047a8.881,8.881,0,0,0-10.252,7.894,10.5,10.5,0,0,0,8.148,10.964,9.3,9.3,0,0,0,9.7-3.744C293.619,419.125,289.855,414.16,290.3,409.081Z" transform="translate(-229.467 -369.748)" fill="#f6e0ae"/>
      <path id="Trazado_58915" data-name="Trazado 58915" d="M278.277,399.079c.9,5.185,4.058,22.307,6.4,24.3,3.315,2.809,11.741,2.865,14.088.152s1.5-10.364-.465-12.47c-1.435-1.535-9.422-10.581-13.656-15.384a2.881,2.881,0,0,0-4.65.456Z" transform="translate(-230.776 -374.691)" fill="#edb984"/>
      <path id="Trazado_58916" data-name="Trazado 58916" d="M284.1,407.8a29.429,29.429,0,0,1-3.859-12.4l-1.96,3.355c.9,5.185,4.058,22.307,6.4,24.3,3.315,2.809,11.741,2.865,14.088.152a7.7,7.7,0,0,0,1.4-4.484C295.4,420.26,288.583,415.784,284.1,407.8Z" transform="translate(-230.776 -374.361)" fill="#e79b69"/>
      <path id="Trazado_58917" data-name="Trazado 58917" d="M264.171,436.043l-6.8,1.982A17.031,17.031,0,0,0,258.4,446.9l7.073-6.977Z" transform="translate(-240.79 -355.066)" fill="#edb984"/>
      <path id="Trazado_58918" data-name="Trazado 58918" d="M261.175,439.825c1.42,3.1,2,4.589,3.007,4.361s2.087-1.087,1.38-1.951-3.089-5.352-3.089-5.352Z" transform="translate(-238.894 -354.667)" fill="#edb984"/>
      <g id="Grupo_29176" data-name="Grupo 29176" transform="translate(22.461)">
        <path id="Trazado_58919" data-name="Trazado 58919" d="M282.948,400.392a32.513,32.513,0,0,0-10.792-4.191c-1.5-.192-7.027,1.565-10.86,3.244,6.337,6,17.093,9.833,17.093,9.833S282.074,403.455,282.948,400.392Z" transform="translate(-261.297 -373.985)" fill="#fbf5dd"/>
        <path id="Trazado_58920" data-name="Trazado 58920" d="M271.231,402.481a10.209,10.209,0,0,0,8.5-3.166c-2.674-1.65-6.272-3.659-7.829-3.579a33.608,33.608,0,0,0-9.526,2.986A18.429,18.429,0,0,0,271.231,402.481Z" transform="translate(-260.783 -374.2)" fill="#e79b69"/>
        <path id="Trazado_58921" data-name="Trazado 58921" d="M265.262,400.222c.279-4.6,1.231-11.228,1.231-11.228l7.053,4.072,1.45,7.5C272.006,402.868,268.711,402.272,265.262,400.222Z" transform="translate(-259.415 -377.399)" fill="#d27558"/>
        <path id="Trazado_58922" data-name="Trazado 58922" d="M266.729,399.657c-.811-3.333-1.476-13.8,2.1-16.137s8.139.671,7.7,7.009-.633,9.8-.91,10.007C274.715,401.225,267.025,400.871,266.729,399.657Z" transform="translate(-259.023 -380.372)" fill="#edb984"/>
        <path id="Trazado_58923" data-name="Trazado 58923" d="M266.43,398.663c-2.106-5.406-3.488-11.489-1.983-14.928s10.509-3.362,12.549-.42-.1,3.4-.1,3.4-5.483-3.384-7.424-.88-.625,7.689-.625,7.689l-1.833,2.141Z" transform="translate(-260.102 -381.131)" fill="#401f43"/>
        <path id="Trazado_58924" data-name="Trazado 58924" d="M267.73,393.117c-1.371.506-3.678-2.79-2.8-4.336s2.159-.414,2.675,1S268.442,392.853,267.73,393.117Z" transform="translate(-259.663 -377.852)" fill="#edb984"/>
        <path id="Trazado_58925" data-name="Trazado 58925" d="M266.981,391.787c-.818.3-2.2-1.665-1.669-2.588s1.289-.248,1.6.6S267.406,391.63,266.981,391.787Z" transform="translate(-259.447 -377.512)" fill="#d27558"/>
        <path id="Trazado_58926" data-name="Trazado 58926" d="M267.029,391.672c-.538.2-1.444-1.1-1.1-1.7s.848-.162,1.05.394S267.309,391.569,267.029,391.672Z" transform="translate(-259.134 -377.073)" fill="#edb984"/>
        <g id="Grupo_29175" data-name="Grupo 29175" transform="translate(9.946 8.321)">
          <g id="Grupo_29174" data-name="Grupo 29174">
            <path id="Trazado_58927" data-name="Trazado 58927" d="M269.455,388.911c0-.513-.193-.931-.429-.929s-.428.419-.428.933.193.931.429.929S269.455,389.426,269.455,388.911Z" transform="translate(-267.777 -386.2)" fill="#5a4949"/>
            <path id="Trazado_58928" data-name="Trazado 58928" d="M272.468,388.9c0-.513-.193-.931-.429-.929s-.428.419-.428.933.193.931.429.929S272.468,389.414,272.468,388.9Z" transform="translate(-266.347 -386.205)" fill="#5a4949"/>
            <path id="Trazado_58929" data-name="Trazado 58929" d="M270.325,386.782l-1.9.357a.452.452,0,0,0-.379.473l.047.429a.378.378,0,0,0,.467.314l1.9-.357a.455.455,0,0,0,.379-.473l-.047-.431A.379.379,0,0,0,270.325,386.782Z" transform="translate(-268.041 -386.773)" fill="#a5593a"/>
            <path id="Trazado_58930" data-name="Trazado 58930" d="M273.216,387.386l-1.343-.512a.308.308,0,0,0-.389.265l-.1.417a.423.423,0,0,0,.209.494l1.345.512c.165.063.339-.056.389-.265l.1-.417A.422.422,0,0,0,273.216,387.386Z" transform="translate(-266.461 -386.734)" fill="#a5593a"/>
          </g>
          <path id="Trazado_58931" data-name="Trazado 58931" d="M270.8,389.028s-.049.1-.114.249c.423.68.935,1.858-.257,1.774.009.031.012.065.024.094C272.5,391.588,271.146,389.447,270.8,389.028Z" transform="translate(-266.909 -385.703)" fill="#d27558"/>
          <path id="Trazado_58932" data-name="Trazado 58932" d="M272.427,391.5a2.218,2.218,0,0,1-.032.273,1.757,1.757,0,0,1-1.988,1.453,1.685,1.685,0,0,1-1.255-1.859Z" transform="translate(-267.518 -384.593)" fill="#443239"/>
          <path id="Trazado_58933" data-name="Trazado 58933" d="M272.1,391.6a1.455,1.455,0,0,1-.019.209,1.43,1.43,0,0,1-1.706,1.065,1.366,1.366,0,0,1-1.1-1.435Z" transform="translate(-267.46 -384.56)" fill="#f4e9d6"/>
        </g>
      </g>
    </g>
  </g>
</svg>
