<svg xmlns="http://www.w3.org/2000/svg" xmlns:xlink="http://www.w3.org/1999/xlink" width="107" height="107" viewBox="0 0 107 107">
  <defs>
    <clipPath id="clip-path">
      <circle id="Elipse_1362" data-name="Elipse 1362" cx="38.167" cy="38.167" r="38.167" fill="none"/>
    </clipPath>
  </defs>
  <g id="Grupo_29130" data-name="Grupo 29130" transform="translate(-272 -8759)">
    <g id="Grupo_29134" data-name="Grupo 29134">
      <rect id="Rect치ngulo_5238" data-name="Rect치ngulo 5238" width="107" height="107" transform="translate(272 8759)" fill="none"/>
      <g id="Grupo_29133" data-name="Grupo 29133" transform="translate(-390.05 8655.978)">
        <g id="Grupo_29132" data-name="Grupo 29132" transform="translate(677.384 119.765)">
          <g id="Grupo_29131" data-name="Grupo 29131" clip-path="url(#clip-path)">
            <rect id="Rect치ngulo_5416" data-name="Rect치ngulo 5416" width="76.974" height="76.974" fill="#dce6f4"/>
            <path id="Shape" d="M718.545,138.435l3.737,7.869a2.781,2.781,0,0,0,2.092,1.589l8.288,1.253a2.976,2.976,0,0,1,1.531,5.018l-5.951,6.026a3.029,3.029,0,0,0-.812,2.617l1.416,8.55a2.814,2.814,0,0,1-4.019,3.106l-7.489-4.091a2.664,2.664,0,0,0-2.56,0l-7.488,4.093a2.815,2.815,0,0,1-4.02-3.107l1.411-8.55a3.029,3.029,0,0,0-.813-2.617l-5.951-6.026a2.977,2.977,0,0,1,1.532-5.018l8.288-1.253a2.785,2.785,0,0,0,2.092-1.589l3.736-7.869a2.718,2.718,0,0,1,4.98,0Z" transform="translate(-673.243 -115.584)" fill="#ffdb2d"/>
            <path id="Shape-2" data-name="Shape" d="M727.182,160.082a3.053,3.053,0,0,0-.823,2.621l1.418,8.546a2.822,2.822,0,0,1-4.026,3.115l-7.483-4.1a2.7,2.7,0,0,0-2.558,0l-7.482,4.1a2.823,2.823,0,0,1-4.027-3.115l.317-1.886c18.8-11.37,15.877-26.78,14.168-32.059a2.951,2.951,0,0,1,.786,1.025l3.736,7.875a2.832,2.832,0,0,0,2.1,1.582l8.281,1.254a2.974,2.974,0,0,1,1.531,5.014Z" transform="translate(-672.173 -115.479)" fill="#ffaa20"/>
            <path id="Shape-3" data-name="Shape" d="M731.713,164.459l9.471-7.926a3.821,3.821,0,0,1,5.178,5.609l-15.8,16.092a4.939,4.939,0,0,1-3.369,1.468H704.326a12.811,12.811,0,0,0-4.723.911l-4.026,1.621H674.053V179.7s6.331-5.065,8.862-7.6c10.129-10.128,17.689-11.394,22.754-11.394a8.766,8.766,0,0,1,5.621,2.013,2.391,2.391,0,0,0,1.531.519h13.042a6.62,6.62,0,0,1,2.178.708,4.891,4.891,0,0,1,.557.456,4.175,4.175,0,0,1,1.039,1.785Z" transform="translate(-678.085 -111.62)" fill="#f9c795"/>
            <path id="Shape-4" data-name="Shape" d="M725.677,165.229A4.985,4.985,0,0,1,724.335,169a5.124,5.124,0,0,1-3.709,1.57H706.7a1.266,1.266,0,0,1,0-2.532h13.928a2.561,2.561,0,0,0,1.874-.784,2.482,2.482,0,0,0,.658-1.874,4.537,4.537,0,0,0-.127-.721c-.012,0,2.076-1.735,2.076-1.735a6.279,6.279,0,0,1,.57,2.3Z" transform="translate(-671.48 -110.086)" fill="#f0785a"/>
          </g>
        </g>
        <g id="Page-1" transform="translate(683.474 116.946)">
          <g id="_005---Get-Points" data-name="005---Get-Points">
            <path id="Shape-5" data-name="Shape" d="M699.6,118.239l2.99,6.3a2.232,2.232,0,0,0,1.673,1.266l6.629,1a2.381,2.381,0,0,1,1.228,4.013l-4.756,4.819a2.428,2.428,0,0,0-.649,2.1l1.128,6.837a2.253,2.253,0,0,1-3.215,2.484l-5.992-3.271a2.121,2.121,0,0,0-2.047,0l-5.991,3.273a2.252,2.252,0,0,1-3.214-2.484l1.128-6.837a2.425,2.425,0,0,0-.65-2.094l-4.757-4.823a2.381,2.381,0,0,1,1.227-4.013l6.63-1a2.232,2.232,0,0,0,1.672-1.266l2.99-6.295a2.173,2.173,0,0,1,3.976-.006Z" transform="translate(-682.415 -116.946)" fill="#ffdb2d"/>
            <path id="Shape-6" data-name="Shape" d="M706.509,135.556a2.452,2.452,0,0,0-.659,2.1l1.14,6.837a2.258,2.258,0,0,1-3.22,2.491L697.78,143.7a2.156,2.156,0,0,0-2.045,0l-5.986,3.282a2.258,2.258,0,0,1-3.22-2.491l.253-1.509c15.042-9.1,12.7-21.423,11.331-25.647a2.347,2.347,0,0,1,.633.821l2.984,6.3a2.263,2.263,0,0,0,1.681,1.266l6.623,1a2.378,2.378,0,0,1,1.226,4.01Z" transform="translate(-681.56 -116.864)" fill="#ffaa20"/>
            <path id="Shape-7" data-name="Shape" d="M723.822,119.795l1.743,3.671a1.3,1.3,0,0,0,.976.742l3.869.586a1.393,1.393,0,0,1,.714,2.341l-2.775,2.811a1.413,1.413,0,0,0-.38,1.221l.657,3.99a1.315,1.315,0,0,1-1.875,1.45l-3.494-1.911a1.244,1.244,0,0,0-1.194,0l-3.495,1.911a1.315,1.315,0,0,1-1.875-1.45l.658-3.99a1.416,1.416,0,0,0-.38-1.221l-2.774-2.811a1.392,1.392,0,0,1,.715-2.341l3.868-.586a1.3,1.3,0,0,0,.976-.742l1.743-3.671a1.267,1.267,0,0,1,2.322,0Z" transform="translate(-675.809 -116.506)" fill="#ffdb2d"/>
            <path id="Shape-8" data-name="Shape" d="M727.853,129.894a1.424,1.424,0,0,0-.38,1.221l.662,3.989a1.317,1.317,0,0,1-1.879,1.454l-3.5-1.915a1.254,1.254,0,0,0-1.192,0l-3.492,1.915A1.317,1.317,0,0,1,716.2,135.1l.148-.88c8.774-5.306,7.408-12.5,6.611-14.959a1.392,1.392,0,0,1,.368.478l1.742,3.675a1.324,1.324,0,0,0,.982.738l3.863.585a1.393,1.393,0,0,1,.715,2.34Z" transform="translate(-675.31 -116.458)" fill="#ffaa20"/>
          </g>
        </g>
      </g>
    </g>
  </g>
</svg>
