<svg id="Capa_1" data-name="Capa 1" xmlns="http://www.w3.org/2000/svg" viewBox="0 0 298 244.33"><defs><style>.cls-1{fill:#f5faff;}.cls-2{fill:#401f43;}.cls-3{fill:#62cca2;}.cls-4{fill:#59b58d;}.cls-5{fill:#172e60;}.cls-6{fill:#12214a;}.cls-7{fill:#7ae2b6;}.cls-8{fill:#d27558;}.cls-9{fill:#edb984;}.cls-10{fill:#e79b69;}.cls-11{fill:#f9ebc9;}.cls-12{fill:#703e31;}.cls-13{fill:#443239;}.cls-14{fill:#fbf5dd;}</style></defs><rect id="Image_Place_Holder" data-name="Image Place Holder" class="cls-1" y="42.33" width="298" height="202" rx="10"/><path class="cls-2" d="M149.68,80.38C126.57,74,124.37,58.92,126,48.19c0,0-14.39-28.31,11.28-36.88s28.32,22.95,28.32,22.95C183.64,38.37,182.57,85.7,149.68,80.38Z"/><path class="cls-3" d="M174,63.06l-8.22,6.7s-3.39-6.66-9.1-10.14l-4.16-20.3C160.48,42.49,173.24,57.79,174,63.06Z"/><path class="cls-3" d="M165,58c5-.93,10.93,3.22,11,6.17.11,4.12-4.9,10.77-10,6.24C161.5,66.43,165,58,165,58Z"/><path class="cls-4" d="M122,71.14l8.7,5.3s3.88-9,10.17-14.93L146,36.13C137.31,42.42,123,64.64,122,71.14Z"/><path class="cls-3" d="M132,64.72c3.24,4.6,1.32,13.13-1.63,14.48C126.51,81,119.18,77.55,121,71,122.73,65,132,64.72,132,64.72Z"/><path class="cls-5" d="M167.66,77l-29.92-4.53S128.85,99,129.11,111c.26,12.69,18.89,70.21,26.68,99.88h1.85s17.14-90.71,17.4-98.52C175.43,100.78,167.66,77,167.66,77Z"/><polygon class="cls-6" points="163.5 115.03 152.98 118.86 141.76 116.25 152.01 120.74 156.22 209.47 156.86 209.48 154.12 120.63 163.5 115.03"/><path class="cls-6" d="M151.9,101.34c8.72,0,16.67,5.69,22.68,15,.28-1.94.44-3.34.46-4,.39-11.55-7.38-35.34-7.38-35.34l-29.92-4.53S128.85,99,129.11,111a33.38,33.38,0,0,0,.54,4.74C135.61,106.77,143.38,101.34,151.9,101.34Z"/><path class="cls-7" d="M131.17,94.45c11,4.88,43.15,4.27,43.15,4.27s-13.51-53.56-15.4-55.39-10.57-7.35-12.17-7.2-6.58,7.55-7.27,10.29C139.09,48,131.17,94.45,131.17,94.45Z"/><path class="cls-7" d="M152.16,41.91a29.86,29.86,0,0,0,3-1.35c-3.24-2.15-7.38-4.53-8.44-4.43s-4.18,4.15-6,7.37A24.77,24.77,0,0,0,152.16,41.91Z"/><path class="cls-3" d="M149.09,66.7a69.67,69.67,0,0,1-13-1.18c-.48,2.74-1,5.58-1.44,8.35a43.31,43.31,0,0,1,14.09-2.29,41.15,41.15,0,0,1,19.78,4.8c-1-3.83-2.06-7.81-3.09-11.61A67.4,67.4,0,0,1,149.09,66.7Z"/><path class="cls-3" d="M149.2,59.8s2.9-10.92,4.66-20.11c-2.49-2.26-6.22-4.18-7.14-4.09-1.15.11-5,3.14-6.77,6.32A149.9,149.9,0,0,0,149.2,59.8Z"/><path class="cls-7" d="M140,41.92c.2.5.42,1,.63,1.48,2.59.77,8.22-.3,12.95-2l.33-1.66c-2.49-2.26-6.22-4.18-7.14-4.09C145.57,35.71,141.74,38.74,140,41.92Z"/><path class="cls-8" d="M147.33,24.75c2,5.51,3.89,12.93,3.89,12.93s-4.88,4.8-8.65.79C140.12,35.88,147.33,24.75,147.33,24.75Z"/><path class="cls-9" d="M134.54,29.68c1.47,4.89,4.36,10,10.56,11.58a15.19,15.19,0,0,0,3.4-13.89c-2-7.63-6.33-10.08-10.81-9S133.35,25.71,134.54,29.68Z"/><path class="cls-9" d="M121.93,71.72c-.25-4,15.12-28.35,15.12-28.35H138s-4.92,31.47-7.32,33.06C127.44,78.6,122.16,75.13,121.93,71.72Z"/><path class="cls-10" d="M130,69.6c-2.16,1.28-5.05.16-6.84-1.71a11,11,0,0,0-1.19,3.83c.23,3.41,5.51,6.88,8.75,4.72,2.4-1.59,7.32-33.06,7.32-33.06h-.37C135.56,52.58,131.72,68.56,130,69.6Z"/><path class="cls-9" d="M173.21,62.34c-1.91-3.75-27.3-17.87-27.3-17.87l-.9,1.12S164.15,69.31,167,70.28C171,71.69,174.84,65.55,173.21,62.34Z"/><path class="cls-10" d="M173.21,62.34a6.34,6.34,0,0,0-1.35-1.51c-1,2-2.92,3.54-5.12,3S145,45.59,145,45.59,164.15,69.31,167,70.28C171,71.69,174.84,65.55,173.21,62.34Z"/><path class="cls-11" d="M156.42,211.28h9.15s-6-3.21-7.76-3.27S156.42,211.28,156.42,211.28Z"/><path class="cls-11" d="M156.62,211.28h-5.7s3.75-3.21,4.84-3.27S156.62,211.28,156.62,211.28Z"/><path class="cls-2" d="M135.75,17.83c-2.46,4.59,11.92,10.35,11.92,10.35l2.22-2.73S140.88,8.25,135.75,17.83Z"/><path class="cls-2" d="M134.45,16.38c3.47,2-1.13,16.39-1.13,16.39l-2.48-1.43S128.43,12.89,134.45,16.38Z"/><path class="cls-9" d="M150.08,28.33c.13-1.86-.3-3.75-1-4.25s-1.3.62-1.44,2.47.3,3.75,1,4.24S150,30.18,150.08,28.33Z"/><path class="cls-8" d="M149.65,28.23a3.28,3.28,0,0,0-.53-2.35c-.37-.28-.73.34-.8,1.36a3.21,3.21,0,0,0,.53,2.36C149.22,29.87,149.57,29.26,149.65,28.23Z"/><path class="cls-9" d="M149.54,28.88a2.47,2.47,0,0,0-.41-1.82c-.28-.21-.56.26-.62,1.06a2.57,2.57,0,0,0,.41,1.82C149.21,30.16,149.49,29.68,149.54,28.88Z"/><path class="cls-12" d="M138.07,31.1l-2.34.35a.6.6,0,0,1-.65-.45l-.13-.58a.49.49,0,0,1,.41-.6l2.34-.35a.58.58,0,0,1,.64.45l.14.57A.5.5,0,0,1,138.07,31.1Z"/><path class="cls-12" d="M142.14,28.25,140.45,30a.51.51,0,0,1-.74,0l-.39-.42a.56.56,0,0,1,0-.77L141,27.05a.51.51,0,0,1,.74,0l.39.42A.56.56,0,0,1,142.14,28.25Z"/><path class="cls-8" d="M139.91,32s.14.07.33.19c.07,1.09.44,2.8,1.7,1.76,0,0,0,.08.05.12C140.07,36.15,139.86,32.69,139.91,32Z"/><path class="cls-13" d="M142.45,36.62a1,1,0,0,0-1.06-.29c-.29.17-.29.56,0,.88a.93.93,0,0,0,1.05.3C142.74,37.34,142.74,37,142.45,36.62Z"/><path class="cls-8" d="M141.78,30.63c-1.12.1,1.39-1.38,1.39-1.38-2.21.89-3.25,1.68-2.06,1.79a8.74,8.74,0,0,0,3.18-.75S142.46,30.57,141.78,30.63Z"/><path class="cls-8" d="M138.38,32.45c.36-.71-1.63.48-1.63.48,1.36-1.18,2.34-1.63,2.17-.79S137.48,34,137.48,34,138.16,32.89,138.38,32.45Z"/><path class="cls-14" d="M143.13,41.62c-3.7-3.92-7.95-4.93-13.1,4.25s-6.44,8.62-6.44,8.62a22.43,22.43,0,0,0,9.8-3.13C138,48.45,143.13,41.62,143.13,41.62Z"/><path class="cls-9" d="M146.75,45.11A12.89,12.89,0,0,0,143,41.49l-1.71,2s3.36,2.43,4.89,2.69S146.75,45.11,146.75,45.11Z"/><path class="cls-9" d="M142.31,43.2c-1.12-.7-5-.89-4.82-.52s2,.19,5.12,1.42Z"/><path class="cls-9" d="M143.26,42.58c-1-.88-4.79-1.69-4.67-1.29s2,.51,4.82,2.22Z"/><path class="cls-9" d="M143.55,42.09c-.68-1.14-4.07-3-4.07-2.62s1.72,1.07,3.94,3.55Z"/></svg>