<svg id="Grupo_29075" data-name="Grupo 29075" xmlns="http://www.w3.org/2000/svg" xmlns:xlink="http://www.w3.org/1999/xlink" width="89.718" height="89.832" viewBox="0 0 89.718 89.832">
  <defs>
    <clipPath id="clip-path">
      <path id="Trazado_58547" data-name="Trazado 58547" d="M542.812,180.53a43.472,43.472,0,0,1-57.56,41.1l-.051-.018A43.441,43.441,0,0,1,499.37,137.09q2.186,0,4.316.213a43.183,43.183,0,0,1,17.534,5.676,43.621,43.621,0,0,1,14.7,14.063q.359.555.7,1.124a43.184,43.184,0,0,1,6.132,20.041Q542.812,179.36,542.812,180.53Z" transform="translate(-455.93 -137.09)" fill="none"/>
    </clipPath>
    <clipPath id="clip-path-2">
      <rect id="Rectángulo_5397" data-name="Rectángulo 5397" width="89.717" height="52.224" fill="none"/>
    </clipPath>
  </defs>
  <g id="Grupo_29063" data-name="Grupo 29063" transform="translate(2.835 2.949)">
    <g id="Grupo_29062" data-name="Grupo 29062" clip-path="url(#clip-path)">
      <rect id="Rectángulo_5366" data-name="Rectángulo 5366" width="88.325" height="96.197" transform="translate(0 -3.904)" fill="#dce6f4"/>
      <g id="Grupo_29061" data-name="Grupo 29061" transform="translate(-1.615 1.562)">
        <g id="Grupo_29053" data-name="Grupo 29053" transform="translate(21.119 12.672)">
          <path id="Trazado_58529" data-name="Trazado 58529" d="M517.562,155.58H469.69V148.54a1.408,1.408,0,0,1,1.408-1.408h45.056a1.407,1.407,0,0,1,1.407,1.408Z" transform="translate(-469.69 -147.132)" fill="#dad8db"/>
        </g>
        <g id="Grupo_29054" data-name="Grupo 29054" transform="translate(21.12 15.488)">
          <rect id="Rectángulo_5367" data-name="Rectángulo 5367" width="47.872" height="5.632" fill="#c8c5c9"/>
        </g>
        <g id="Grupo_29055" data-name="Grupo 29055" transform="translate(4.224 18.304)">
          <path id="Trazado_58530" data-name="Trazado 58530" d="M539.434,207.425H457.771V152.513a1.407,1.407,0,0,1,1.408-1.408h78.848a1.408,1.408,0,0,1,1.408,1.408Z" transform="translate(-457.771 -151.105)" fill="#ffe278"/>
          <path id="Trazado_58531" data-name="Trazado 58531" d="M538.027,151.105H459.179a1.407,1.407,0,0,0-1.408,1.408v1.409h25.767a4.3,4.3,0,0,1,3.274,1.565,15.432,15.432,0,0,0,23.579,0,4.307,4.307,0,0,1,3.276-1.565h25.767v-1.409A1.408,1.408,0,0,0,538.027,151.105Z" transform="translate(-457.771 -151.105)" fill="#ca9441"/>
        </g>
        <rect id="Rectángulo_5368" data-name="Rectángulo 5368" width="81.664" height="18.304" transform="translate(4.224 56.32)" fill="#6f6571"/>
        <rect id="Rectángulo_5369" data-name="Rectángulo 5369" width="81.664" height="4.224" transform="translate(4.224 70.4)" fill="#5d5360"/>
        <rect id="Rectángulo_5370" data-name="Rectángulo 5370" width="33.792" height="18.304" transform="translate(28.159 56.32)" fill="#c3ddff"/>
        <rect id="Rectángulo_5371" data-name="Rectángulo 5371" width="33.792" height="2.816" transform="translate(28.159 56.32)" fill="#a4ccff"/>
        <rect id="Rectángulo_5372" data-name="Rectángulo 5372" width="33.792" height="4.224" transform="translate(28.159 70.4)" fill="#a4ccff"/>
        <g id="Grupo_29056" data-name="Grupo 29056" transform="translate(25.343 32.384)">
          <path id="Trazado_58532" data-name="Trazado 58532" d="M472.67,162.446V172.3a1.409,1.409,0,0,0,1.408,1.409h36.608a1.408,1.408,0,0,0,1.408-1.409v-9.856a1.407,1.407,0,0,0-1.408-1.408H474.078A1.408,1.408,0,0,0,472.67,162.446Z" transform="translate(-472.67 -161.038)" fill="#c3ddff"/>
          <path id="Trazado_58533" data-name="Trazado 58533" d="M512.093,163.855v-1.409a1.407,1.407,0,0,0-1.408-1.408H474.078a1.408,1.408,0,0,0-1.408,1.408v1.409Z" transform="translate(-472.67 -161.038)" fill="#a4ccff"/>
        </g>
        <g id="Grupo_29057" data-name="Grupo 29057" transform="translate(32.383)">
          <circle id="Elipse_2740" data-name="Elipse 2740" cx="12.672" cy="12.672" r="12.672" fill="#dad8db"/>
        </g>
        <path id="Trazado_58534" data-name="Trazado 58534" d="M510.686,179.583H474.078a1.408,1.408,0,0,1-1.408-1.408v-2.817a1.408,1.408,0,0,1,1.408-1.408h36.608a1.407,1.407,0,0,1,1.408,1.408v2.817A1.407,1.407,0,0,1,510.686,179.583Z" transform="translate(-447.327 -123.263)" fill="#dad8db"/>
        <path id="Trazado_58535" data-name="Trazado 58535" d="M461.744,179.332v8.448a1.407,1.407,0,0,0,1.408,1.408h7.041a1.407,1.407,0,0,0,1.408-1.408v-8.448a1.408,1.408,0,0,0-1.408-1.408h-7.041A1.408,1.408,0,0,0,461.744,179.332Z" transform="translate(-451.888 -121.604)" fill="#c3ddff"/>
        <path id="Trazado_58536" data-name="Trazado 58536" d="M471.6,180.741v-1.409a1.408,1.408,0,0,0-1.408-1.408h-7.041a1.408,1.408,0,0,0-1.408,1.408v1.409Z" transform="translate(-451.888 -121.604)" fill="#a4ccff"/>
        <path id="Trazado_58537" data-name="Trazado 58537" d="M504.456,179.332v8.448a1.407,1.407,0,0,0,1.408,1.408H512.9a1.408,1.408,0,0,0,1.409-1.408v-8.448a1.409,1.409,0,0,0-1.409-1.408h-7.039A1.407,1.407,0,0,0,504.456,179.332Z" transform="translate(-434.056 -121.604)" fill="#c3ddff"/>
        <path id="Trazado_58538" data-name="Trazado 58538" d="M514.312,180.741v-1.409a1.409,1.409,0,0,0-1.409-1.408h-7.039a1.407,1.407,0,0,0-1.408,1.408v1.409Z" transform="translate(-434.056 -121.604)" fill="#a4ccff"/>
        <g id="Grupo_29058" data-name="Grupo 29058" transform="translate(70.4 32.384)">
          <path id="Trazado_58539" data-name="Trazado 58539" d="M504.456,162.446V172.3a1.408,1.408,0,0,0,1.408,1.409H512.9a1.409,1.409,0,0,0,1.409-1.409v-9.856a1.409,1.409,0,0,0-1.409-1.408h-7.039A1.407,1.407,0,0,0,504.456,162.446Z" transform="translate(-504.456 -161.038)" fill="#c3ddff"/>
          <path id="Trazado_58540" data-name="Trazado 58540" d="M514.312,163.855v-1.409a1.409,1.409,0,0,0-1.409-1.408h-7.039a1.407,1.407,0,0,0-1.408,1.408v1.409Z" transform="translate(-504.456 -161.038)" fill="#a4ccff"/>
        </g>
        <g id="Grupo_29059" data-name="Grupo 29059" transform="translate(11.263 32.384)">
          <path id="Trazado_58541" data-name="Trazado 58541" d="M462.737,162.446V172.3a1.409,1.409,0,0,0,1.408,1.409h7.041a1.409,1.409,0,0,0,1.408-1.409v-9.856a1.408,1.408,0,0,0-1.408-1.408h-7.041A1.408,1.408,0,0,0,462.737,162.446Z" transform="translate(-462.737 -161.038)" fill="#c3ddff"/>
          <path id="Trazado_58542" data-name="Trazado 58542" d="M472.593,163.855v-1.409a1.408,1.408,0,0,0-1.408-1.408h-7.041a1.408,1.408,0,0,0-1.408,1.408v1.409Z" transform="translate(-462.737 -161.038)" fill="#a4ccff"/>
        </g>
        <rect id="Rectángulo_5373" data-name="Rectángulo 5373" width="2.816" height="12.672" transform="translate(33.791 32.384)" fill="#a4ccff"/>
        <rect id="Rectángulo_5374" data-name="Rectángulo 5374" width="2.816" height="2.816" transform="translate(33.791 32.384)" fill="#8bb3ea"/>
        <rect id="Rectángulo_5375" data-name="Rectángulo 5375" width="2.816" height="12.672" transform="translate(43.647 32.384)" fill="#a4ccff"/>
        <rect id="Rectángulo_5376" data-name="Rectángulo 5376" width="2.816" height="2.816" transform="translate(43.647 32.384)" fill="#8bb3ea"/>
        <rect id="Rectángulo_5377" data-name="Rectángulo 5377" width="2.816" height="12.672" transform="translate(53.503 32.384)" fill="#a4ccff"/>
        <rect id="Rectángulo_5378" data-name="Rectángulo 5378" width="2.816" height="2.816" transform="translate(53.503 32.384)" fill="#8bb3ea"/>
        <path id="Trazado_58543" data-name="Trazado 58543" d="M510.686,178.754H474.078a1.408,1.408,0,0,1-1.408-1.408v-1.409h39.423v1.409A1.407,1.407,0,0,1,510.686,178.754Z" transform="translate(-447.327 -122.434)" fill="#c8c5c9"/>
        <g id="Grupo_29060" data-name="Grupo 29060" transform="translate(0 73.216)">
          <path id="Trazado_58544" data-name="Trazado 58544" d="M543.493,192.659H456.2a1.408,1.408,0,0,1,0-2.815h87.295a1.408,1.408,0,1,1,0,2.815Z" transform="translate(-454.791 -189.844)" fill="#b6b1b7"/>
        </g>
        <rect id="Rectángulo_5379" data-name="Rectángulo 5379" width="2.816" height="16.896" transform="translate(43.647 56.32)" fill="#a4ccff"/>
        <rect id="Rectángulo_5380" data-name="Rectángulo 5380" width="2.816" height="2.816" transform="translate(43.647 70.4)" fill="#8bb3ea"/>
        <rect id="Rectángulo_5381" data-name="Rectángulo 5381" width="2.816" height="2.816" transform="translate(43.647 56.32)" fill="#8bb3ea"/>
        <path id="Trazado_58545" data-name="Trazado 58545" d="M492.42,160.624a12.674,12.674,0,0,1-9.954-20.515,12.673,12.673,0,1,0,17.8,17.8A12.625,12.625,0,0,1,492.42,160.624Z" transform="translate(-445.253 -137.392)" fill="#c8c5c9"/>
      </g>
      <path id="Trazado_58546" data-name="Trazado 58546" d="M493.1,148.354l-3.259-5.619a1.937,1.937,0,0,0-3.222,0l-3.259,5.619a5.731,5.731,0,0,0-.75,2.809,5.619,5.619,0,0,0,11.238,0A5.744,5.744,0,0,0,493.1,148.354Z" transform="translate(-444.79 -135.093)" fill="#e33e4e"/>
    </g>
  </g>
  <g id="Grupo_29074" data-name="Grupo 29074">
    <g id="Grupo_29073" data-name="Grupo 29073" clip-path="url(#clip-path-2)">
      <g id="Grupo_29072" data-name="Grupo 29072" transform="translate(0.594 4.074)">
        <g id="Grupo_29064" data-name="Grupo 29064" transform="translate(21.394 12.836)">
          <path id="Trazado_58548" data-name="Trazado 58548" d="M517.936,155.5H469.442v-7.131a1.426,1.426,0,0,1,1.426-1.427h45.64a1.428,1.428,0,0,1,1.427,1.427Z" transform="translate(-469.442 -146.939)" fill="#dad8db"/>
        </g>
        <g id="Grupo_29065" data-name="Grupo 29065" transform="translate(21.394 15.689)">
          <rect id="Rectángulo_5382" data-name="Rectángulo 5382" width="48.494" height="5.705" fill="#c8c5c9"/>
        </g>
        <g id="Grupo_29066" data-name="Grupo 29066" transform="translate(4.278 18.541)">
          <path id="Trazado_58549" data-name="Trazado 58549" d="M540.092,208.015H457.367V152.39a1.427,1.427,0,0,1,1.427-1.426h79.872a1.426,1.426,0,0,1,1.426,1.426Z" transform="translate(-457.367 -150.964)" fill="#ffe278"/>
          <path id="Trazado_58550" data-name="Trazado 58550" d="M538.666,150.964H458.794a1.427,1.427,0,0,0-1.427,1.426v1.427h26.1a4.364,4.364,0,0,1,3.317,1.585,15.63,15.63,0,0,0,23.885,0,4.365,4.365,0,0,1,3.318-1.585h26.1V152.39A1.426,1.426,0,0,0,538.666,150.964Z" transform="translate(-457.367 -150.964)" fill="#ca9441"/>
        </g>
        <rect id="Rectángulo_5383" data-name="Rectángulo 5383" width="82.725" height="18.542" transform="translate(4.279 57.051)" fill="#6f6571"/>
        <rect id="Rectángulo_5384" data-name="Rectángulo 5384" width="82.725" height="4.279" transform="translate(4.279 71.314)" fill="#5d5360"/>
        <rect id="Rectángulo_5385" data-name="Rectángulo 5385" width="34.231" height="18.542" transform="translate(28.525 57.051)" fill="#c3ddff"/>
        <rect id="Rectángulo_5386" data-name="Rectángulo 5386" width="34.231" height="2.853" transform="translate(28.525 57.051)" fill="#a4ccff"/>
        <rect id="Rectángulo_5387" data-name="Rectángulo 5387" width="34.231" height="4.279" transform="translate(28.525 71.314)" fill="#a4ccff"/>
        <g id="Grupo_29067" data-name="Grupo 29067" transform="translate(25.672 32.804)">
          <path id="Trazado_58551" data-name="Trazado 58551" d="M472.46,162.452v9.985a1.426,1.426,0,0,0,1.427,1.426H510.97a1.425,1.425,0,0,0,1.426-1.426v-9.985a1.426,1.426,0,0,0-1.426-1.426H473.887A1.427,1.427,0,0,0,472.46,162.452Z" transform="translate(-472.46 -161.026)" fill="#c3ddff"/>
          <path id="Trazado_58552" data-name="Trazado 58552" d="M512.4,163.879v-1.427a1.426,1.426,0,0,0-1.426-1.426H473.887a1.427,1.427,0,0,0-1.427,1.426v1.427Z" transform="translate(-472.46 -161.026)" fill="#a4ccff"/>
        </g>
        <g id="Grupo_29068" data-name="Grupo 29068" transform="translate(32.804)">
          <circle id="Elipse_2741" data-name="Elipse 2741" cx="12.837" cy="12.837" r="12.837" fill="#f2f2f2"/>
        </g>
        <path id="Trazado_58553" data-name="Trazado 58553" d="M510.97,179.812H473.887a1.428,1.428,0,0,1-1.427-1.427v-2.852a1.427,1.427,0,0,1,1.427-1.426H510.97a1.425,1.425,0,0,1,1.426,1.426v2.852A1.426,1.426,0,0,1,510.97,179.812Z" transform="translate(-446.788 -122.761)" fill="#dad8db"/>
        <path id="Trazado_58554" data-name="Trazado 58554" d="M461.392,179.558v8.557a1.426,1.426,0,0,0,1.426,1.426h7.131a1.426,1.426,0,0,0,1.427-1.426v-8.557a1.426,1.426,0,0,0-1.427-1.426h-7.131A1.426,1.426,0,0,0,461.392,179.558Z" transform="translate(-451.409 -121.08)" fill="#c3ddff"/>
        <path id="Trazado_58555" data-name="Trazado 58555" d="M471.377,180.984v-1.426a1.426,1.426,0,0,0-1.427-1.426h-7.131a1.426,1.426,0,0,0-1.426,1.426v1.426Z" transform="translate(-451.409 -121.08)" fill="#a4ccff"/>
        <path id="Trazado_58556" data-name="Trazado 58556" d="M504.659,179.558v8.557a1.425,1.425,0,0,0,1.426,1.426h7.131a1.425,1.425,0,0,0,1.426-1.426v-8.557a1.425,1.425,0,0,0-1.426-1.426h-7.131A1.425,1.425,0,0,0,504.659,179.558Z" transform="translate(-433.345 -121.08)" fill="#c3ddff"/>
        <path id="Trazado_58557" data-name="Trazado 58557" d="M514.642,180.984v-1.426a1.425,1.425,0,0,0-1.426-1.426h-7.131a1.425,1.425,0,0,0-1.426,1.426v1.426Z" transform="translate(-433.345 -121.08)" fill="#a4ccff"/>
        <g id="Grupo_29069" data-name="Grupo 29069" transform="translate(71.314 32.804)">
          <path id="Trazado_58558" data-name="Trazado 58558" d="M504.659,162.452v9.985a1.425,1.425,0,0,0,1.426,1.426h7.131a1.425,1.425,0,0,0,1.426-1.426v-9.985a1.426,1.426,0,0,0-1.426-1.426h-7.131A1.426,1.426,0,0,0,504.659,162.452Z" transform="translate(-504.659 -161.026)" fill="#c3ddff"/>
          <path id="Trazado_58559" data-name="Trazado 58559" d="M514.642,163.879v-1.427a1.426,1.426,0,0,0-1.426-1.426h-7.131a1.426,1.426,0,0,0-1.426,1.426v1.427Z" transform="translate(-504.659 -161.026)" fill="#a4ccff"/>
        </g>
        <g id="Grupo_29070" data-name="Grupo 29070" transform="translate(11.409 32.804)">
          <path id="Trazado_58560" data-name="Trazado 58560" d="M462.4,162.452v9.985a1.426,1.426,0,0,0,1.427,1.426h7.131a1.426,1.426,0,0,0,1.426-1.426v-9.985a1.427,1.427,0,0,0-1.426-1.426h-7.131A1.427,1.427,0,0,0,462.4,162.452Z" transform="translate(-462.398 -161.026)" fill="#c3ddff"/>
          <path id="Trazado_58561" data-name="Trazado 58561" d="M472.383,163.879v-1.427a1.427,1.427,0,0,0-1.426-1.426h-7.131a1.427,1.427,0,0,0-1.427,1.426v1.427Z" transform="translate(-462.398 -161.026)" fill="#a4ccff"/>
        </g>
        <rect id="Rectángulo_5388" data-name="Rectángulo 5388" width="2.853" height="12.837" transform="translate(34.23 32.805)" fill="#a4ccff"/>
        <rect id="Rectángulo_5389" data-name="Rectángulo 5389" width="2.853" height="2.853" transform="translate(34.23 32.805)" fill="#8bb3ea"/>
        <rect id="Rectángulo_5390" data-name="Rectángulo 5390" width="2.853" height="12.837" transform="translate(44.215 32.805)" fill="#a4ccff"/>
        <rect id="Rectángulo_5391" data-name="Rectángulo 5391" width="2.853" height="2.853" transform="translate(44.215 32.805)" fill="#8bb3ea"/>
        <rect id="Rectángulo_5392" data-name="Rectángulo 5392" width="2.853" height="12.837" transform="translate(54.198 32.805)" fill="#a4ccff"/>
        <rect id="Rectángulo_5393" data-name="Rectángulo 5393" width="2.853" height="2.853" transform="translate(54.198 32.805)" fill="#8bb3ea"/>
        <path id="Trazado_58562" data-name="Trazado 58562" d="M510.97,178.972H473.887a1.428,1.428,0,0,1-1.427-1.427v-1.426H512.4v1.426A1.426,1.426,0,0,1,510.97,178.972Z" transform="translate(-446.788 -121.921)" fill="#c8c5c9"/>
        <g id="Grupo_29071" data-name="Grupo 29071" transform="translate(0 74.167)">
          <path id="Trazado_58563" data-name="Trazado 58563" d="M544.205,193.059h-88.43a1.427,1.427,0,0,1,0-2.853h88.43a1.427,1.427,0,0,1,0,2.853Z" transform="translate(-454.349 -190.206)" fill="#b6b1b7"/>
        </g>
        <rect id="Rectángulo_5394" data-name="Rectángulo 5394" width="2.853" height="17.115" transform="translate(44.215 57.051)" fill="#a4ccff"/>
        <rect id="Rectángulo_5395" data-name="Rectángulo 5395" width="2.853" height="2.853" transform="translate(44.215 71.314)" fill="#8bb3ea"/>
        <rect id="Rectángulo_5396" data-name="Rectángulo 5396" width="2.853" height="2.853" transform="translate(44.215 57.051)" fill="#8bb3ea"/>
        <path id="Trazado_58564" data-name="Trazado 58564" d="M492.468,160.606a12.837,12.837,0,0,1-10.084-20.78,12.837,12.837,0,1,0,18.028,18.028A12.787,12.787,0,0,1,492.468,160.606Z" transform="translate(-444.687 -137.073)" fill="#dad8db"/>
      </g>
      <path id="Trazado_58565" data-name="Trazado 58565" d="M493.156,148.176l-3.3-5.691a1.961,1.961,0,0,0-3.263,0l-3.3,5.691a5.813,5.813,0,0,0-.758,2.846,5.692,5.692,0,1,0,11.384,0A5.814,5.814,0,0,0,493.156,148.176Z" transform="translate(-441.989 -132.253)" fill="#e33e4e"/>
    </g>
  </g>
</svg>
