<svg xmlns="http://www.w3.org/2000/svg" width="32.263" height="32.264" viewBox="0 0 32.263 32.264">
  <g id="Grupo_29136" data-name="Grupo 29136" transform="translate(-705.66 -131.56)">
    <path id="Trazado_58832" data-name="Trazado 58832" d="M721.792,131.56a16.132,16.132,0,1,0,16.131,16.132A16.151,16.151,0,0,0,721.792,131.56Zm0,29.33a13.2,13.2,0,1,1,13.2-13.2A13.214,13.214,0,0,1,721.792,160.89Z" fill="#e33e4e"/>
    <path id="Trazado_58833" data-name="Trazado 58833" d="M721.792,138.4a1.955,1.955,0,1,0,1.955,1.956A1.957,1.957,0,0,0,721.792,138.4Z" fill="#e33e4e"/>
    <path id="Trazado_58834" data-name="Trazado 58834" d="M721.792,145.247a1.467,1.467,0,0,0-1.467,1.467v8.8a1.466,1.466,0,0,0,2.933,0v-8.8A1.466,1.466,0,0,0,721.792,145.247Z" fill="#e33e4e"/>
  </g>
</svg>
