<svg id="Grupo_29091" data-name="Grupo 29091" xmlns="http://www.w3.org/2000/svg" xmlns:xlink="http://www.w3.org/1999/xlink" width="89.718" height="85.119" viewBox="0 0 89.718 85.119">
  <defs>
    <clipPath id="clip-path">
      <path id="Trazado_58595" data-name="Trazado 58595" d="M395.17,179.392a42.333,42.333,0,0,1-56.051,40.019c-.015-.006-.033-.011-.048-.018a42.3,42.3,0,0,1,13.8-82.3q2.128,0,4.2.207a42.052,42.052,0,0,1,17.075,5.527,42.483,42.483,0,0,1,14.313,13.694q.35.54.682,1.095a42.048,42.048,0,0,1,5.97,19.515Q395.169,178.252,395.17,179.392Z" transform="translate(-310.565 -137.09)" fill="none"/>
    </clipPath>
  </defs>
  <g id="Grupo_29079" data-name="Grupo 29079">
    <g id="Grupo_29078" data-name="Grupo 29078" clip-path="url(#clip-path)">
      <rect id="Rectángulo_5398" data-name="Rectángulo 5398" width="86.01" height="93.675" transform="translate(0 -3.802)" fill="#dce6f4"/>
      <g id="Grupo_29077" data-name="Grupo 29077" transform="translate(6.279 14.078)">
        <path id="Trazado_58566" data-name="Trazado 58566" d="M352.321,192.5H320.656a5.542,5.542,0,0,1-5.542-5.542v-5.541h42.53Z" transform="translate(-315.114 -134.31)" fill="#d3dcfb"/>
        <path id="Trazado_58567" data-name="Trazado 58567" d="M387.161,161.142v38.792h-66.5a5.542,5.542,0,0,1-5.542-5.541V161.142l38.794-13.853Z" transform="translate(-315.114 -147.289)" fill="#ebf5fc"/>
        <g id="Grupo_29076" data-name="Grupo 29076" transform="translate(5.543 19.395)">
          <path id="Trazado_58568" data-name="Trazado 58568" d="M323.373,166.882h-2.944a1.3,1.3,0,0,1-1.3-1.3v-2.944a1.3,1.3,0,0,1,1.3-1.3h2.944a1.3,1.3,0,0,1,1.3,1.3v2.944A1.3,1.3,0,0,1,323.373,166.882Z" transform="translate(-319.13 -161.34)" fill="#3c58a0"/>
          <path id="Trazado_58569" data-name="Trazado 58569" d="M331.4,166.882h-2.943a1.3,1.3,0,0,1-1.3-1.3v-2.944a1.3,1.3,0,0,1,1.3-1.3H331.4a1.3,1.3,0,0,1,1.3,1.3v2.944A1.3,1.3,0,0,1,331.4,166.882Z" transform="translate(-316.076 -161.34)" fill="#3c58a0"/>
          <path id="Trazado_58570" data-name="Trazado 58570" d="M339.432,166.882h-2.944a1.3,1.3,0,0,1-1.3-1.3v-2.944a1.3,1.3,0,0,1,1.3-1.3h2.944a1.3,1.3,0,0,1,1.3,1.3v2.944A1.3,1.3,0,0,1,339.432,166.882Z" transform="translate(-313.022 -161.34)" fill="#3c58a0"/>
          <path id="Trazado_58571" data-name="Trazado 58571" d="M347.461,166.882h-2.944a1.3,1.3,0,0,1-1.3-1.3v-2.944a1.3,1.3,0,0,1,1.3-1.3h2.944a1.3,1.3,0,0,1,1.3,1.3v2.944A1.3,1.3,0,0,1,347.461,166.882Z" transform="translate(-309.968 -161.34)" fill="#3c58a0"/>
          <path id="Trazado_58572" data-name="Trazado 58572" d="M355.489,166.882h-2.944a1.3,1.3,0,0,1-1.3-1.3v-2.944a1.3,1.3,0,0,1,1.3-1.3h2.944a1.3,1.3,0,0,1,1.3,1.3v2.944A1.3,1.3,0,0,1,355.489,166.882Z" transform="translate(-306.915 -161.34)" fill="#3c58a0"/>
          <path id="Trazado_58573" data-name="Trazado 58573" d="M363.519,166.882h-2.944a1.3,1.3,0,0,1-1.3-1.3v-2.944a1.3,1.3,0,0,1,1.3-1.3h2.944a1.3,1.3,0,0,1,1.3,1.3v2.944A1.3,1.3,0,0,1,363.519,166.882Z" transform="translate(-303.861 -161.34)" fill="#3c58a0"/>
          <path id="Trazado_58574" data-name="Trazado 58574" d="M323.373,174.911h-2.944a1.3,1.3,0,0,1-1.3-1.3v-2.944a1.3,1.3,0,0,1,1.3-1.3h2.944a1.3,1.3,0,0,1,1.3,1.3v2.944A1.3,1.3,0,0,1,323.373,174.911Z" transform="translate(-319.13 -158.286)" fill="#3c58a0"/>
          <path id="Trazado_58575" data-name="Trazado 58575" d="M331.4,174.911h-2.943a1.3,1.3,0,0,1-1.3-1.3v-2.944a1.3,1.3,0,0,1,1.3-1.3H331.4a1.3,1.3,0,0,1,1.3,1.3v2.944A1.3,1.3,0,0,1,331.4,174.911Z" transform="translate(-316.076 -158.286)" fill="#3c58a0"/>
          <path id="Trazado_58576" data-name="Trazado 58576" d="M339.432,174.911h-2.944a1.3,1.3,0,0,1-1.3-1.3v-2.944a1.3,1.3,0,0,1,1.3-1.3h2.944a1.3,1.3,0,0,1,1.3,1.3v2.944A1.3,1.3,0,0,1,339.432,174.911Z" transform="translate(-313.022 -158.286)" fill="#3c58a0"/>
          <path id="Trazado_58577" data-name="Trazado 58577" d="M348.76,174.911v-4.156a1.385,1.385,0,0,0-1.386-1.384H344.6a1.386,1.386,0,0,0-1.386,1.384v2.772a1.386,1.386,0,0,0,1.386,1.384Z" transform="translate(-309.968 -158.286)" fill="#3c58a0"/>
          <path id="Trazado_58578" data-name="Trazado 58578" d="M323.373,182.941h-2.944a1.3,1.3,0,0,1-1.3-1.3V178.7a1.3,1.3,0,0,1,1.3-1.3h2.944a1.3,1.3,0,0,1,1.3,1.3v2.944A1.3,1.3,0,0,1,323.373,182.941Z" transform="translate(-319.13 -155.232)" fill="#3c58a0"/>
          <path id="Trazado_58579" data-name="Trazado 58579" d="M331.4,182.941h-2.943a1.3,1.3,0,0,1-1.3-1.3V178.7a1.3,1.3,0,0,1,1.3-1.3H331.4a1.3,1.3,0,0,1,1.3,1.3v2.944A1.3,1.3,0,0,1,331.4,182.941Z" transform="translate(-316.076 -155.232)" fill="#3c58a0"/>
          <path id="Trazado_58580" data-name="Trazado 58580" d="M339.432,182.941h-2.944a1.3,1.3,0,0,1-1.3-1.3V178.7a1.3,1.3,0,0,1,1.3-1.3h2.944a1.3,1.3,0,0,1,1.3,1.3v2.944A1.3,1.3,0,0,1,339.432,182.941Z" transform="translate(-313.022 -155.232)" fill="#3c58a0"/>
        </g>
        <path id="Trazado_58581" data-name="Trazado 58581" d="M363.246,161.34H360.38a1.346,1.346,0,0,0-.49.094,1.339,1.339,0,0,1,.848,1.244v2.866a1.34,1.34,0,0,1-.848,1.245,1.346,1.346,0,0,0,.49.094h2.866a1.338,1.338,0,0,0,1.339-1.339v-2.866A1.338,1.338,0,0,0,363.246,161.34Z" transform="translate(-298.084 -141.945)" fill="#2a428c"/>
        <path id="Trazado_58582" data-name="Trazado 58582" d="M355.217,161.34h-2.866a1.353,1.353,0,0,0-.491.094,1.337,1.337,0,0,1,.848,1.244v2.866a1.338,1.338,0,0,1-.848,1.245,1.353,1.353,0,0,0,.491.094h2.866a1.338,1.338,0,0,0,1.338-1.339v-2.866A1.338,1.338,0,0,0,355.217,161.34Z" transform="translate(-301.138 -141.945)" fill="#2a428c"/>
        <path id="Trazado_58583" data-name="Trazado 58583" d="M347.189,161.34h-2.866a1.353,1.353,0,0,0-.491.094,1.337,1.337,0,0,1,.848,1.244v2.866a1.338,1.338,0,0,1-.848,1.245,1.353,1.353,0,0,0,.491.094h2.866a1.338,1.338,0,0,0,1.338-1.339v-2.866A1.338,1.338,0,0,0,347.189,161.34Z" transform="translate(-304.191 -141.945)" fill="#2a428c"/>
        <path id="Trazado_58584" data-name="Trazado 58584" d="M339.159,161.34h-2.866a1.346,1.346,0,0,0-.49.094,1.339,1.339,0,0,1,.848,1.244v2.866a1.34,1.34,0,0,1-.848,1.245,1.346,1.346,0,0,0,.49.094h2.866a1.338,1.338,0,0,0,1.339-1.339v-2.866A1.338,1.338,0,0,0,339.159,161.34Z" transform="translate(-307.245 -141.945)" fill="#2a428c"/>
        <path id="Trazado_58585" data-name="Trazado 58585" d="M331.13,161.34h-2.866a1.353,1.353,0,0,0-.491.094,1.337,1.337,0,0,1,.848,1.244v2.866a1.338,1.338,0,0,1-.848,1.245,1.353,1.353,0,0,0,.491.094h2.866a1.338,1.338,0,0,0,1.338-1.339v-2.866A1.338,1.338,0,0,0,331.13,161.34Z" transform="translate(-310.299 -141.945)" fill="#2a428c"/>
        <path id="Trazado_58586" data-name="Trazado 58586" d="M323.1,161.34h-2.866a1.348,1.348,0,0,0-.491.094,1.339,1.339,0,0,1,.848,1.244v2.866a1.34,1.34,0,0,1-.848,1.245,1.348,1.348,0,0,0,.491.094H323.1a1.338,1.338,0,0,0,1.338-1.339v-2.866A1.338,1.338,0,0,0,323.1,161.34Z" transform="translate(-313.353 -141.945)" fill="#2a428c"/>
        <path id="Trazado_58587" data-name="Trazado 58587" d="M323.1,169.37h-2.866a1.32,1.32,0,0,0-.491.094,1.336,1.336,0,0,1,.848,1.244v2.866a1.338,1.338,0,0,1-.848,1.244,1.319,1.319,0,0,0,.491.094H323.1a1.338,1.338,0,0,0,1.338-1.338v-2.866a1.338,1.338,0,0,0-1.338-1.338Z" transform="translate(-313.353 -138.891)" fill="#2a428c"/>
        <path id="Trazado_58588" data-name="Trazado 58588" d="M323.1,177.4h-2.866a1.348,1.348,0,0,0-.491.094,1.338,1.338,0,0,1,.848,1.244V181.6a1.34,1.34,0,0,1-.848,1.245,1.348,1.348,0,0,0,.491.094H323.1a1.338,1.338,0,0,0,1.338-1.339v-2.866A1.338,1.338,0,0,0,323.1,177.4Z" transform="translate(-313.353 -135.837)" fill="#2a428c"/>
        <path id="Trazado_58589" data-name="Trazado 58589" d="M331.13,169.37h-2.866a1.325,1.325,0,0,0-.491.094,1.334,1.334,0,0,1,.848,1.244v2.866a1.336,1.336,0,0,1-.848,1.244,1.324,1.324,0,0,0,.491.094h2.866a1.338,1.338,0,0,0,1.338-1.338v-2.866a1.338,1.338,0,0,0-1.338-1.338Z" transform="translate(-310.299 -138.891)" fill="#2a428c"/>
        <path id="Trazado_58590" data-name="Trazado 58590" d="M331.13,177.4h-2.866a1.353,1.353,0,0,0-.491.094,1.336,1.336,0,0,1,.848,1.244V181.6a1.338,1.338,0,0,1-.848,1.245,1.353,1.353,0,0,0,.491.094h2.866a1.338,1.338,0,0,0,1.338-1.339v-2.866a1.338,1.338,0,0,0-1.338-1.338Z" transform="translate(-310.299 -135.837)" fill="#2a428c"/>
        <path id="Trazado_58591" data-name="Trazado 58591" d="M339.159,169.37h-2.866a1.318,1.318,0,0,0-.49.094,1.336,1.336,0,0,1,.848,1.244v2.866a1.338,1.338,0,0,1-.848,1.244,1.317,1.317,0,0,0,.49.094h2.866a1.338,1.338,0,0,0,1.339-1.338v-2.866a1.338,1.338,0,0,0-1.339-1.338Z" transform="translate(-307.245 -138.891)" fill="#2a428c"/>
        <path id="Trazado_58592" data-name="Trazado 58592" d="M348.527,174.911v-4.2a1.337,1.337,0,0,0-1.338-1.338h-2.866a1.319,1.319,0,0,0-.491.094,1.334,1.334,0,0,1,.848,1.244v2.866a1.336,1.336,0,0,1-.848,1.244,1.319,1.319,0,0,0,.491.094Z" transform="translate(-304.191 -138.891)" fill="#2a428c"/>
        <path id="Trazado_58593" data-name="Trazado 58593" d="M339.159,177.4h-2.866a1.346,1.346,0,0,0-.49.094,1.338,1.338,0,0,1,.848,1.244V181.6a1.34,1.34,0,0,1-.848,1.245,1.346,1.346,0,0,0,.49.094h2.866A1.338,1.338,0,0,0,340.5,181.6v-2.866a1.338,1.338,0,0,0-1.339-1.338Z" transform="translate(-307.245 -135.837)" fill="#2a428c"/>
        <path id="Trazado_58594" data-name="Trazado 58594" d="M364.52,156.163v40.4h3.85V157.767Z" transform="translate(-296.323 -143.914)" fill="#d3dcfb"/>
      </g>
    </g>
  </g>
  <path id="Trazado_58596" data-name="Trazado 58596" d="M387.161,162.669V148.816a5.541,5.541,0,0,0-5.541-5.542H320.656a5.542,5.542,0,0,0-5.542,5.542v13.853Z" transform="translate(-308.835 -134.738)" fill="#e33e4e"/>
  <g id="Grupo_29085" data-name="Grupo 29085" transform="translate(18.879 12.823)">
    <g id="Grupo_29084" data-name="Grupo 29084">
      <g id="Grupo_29080" data-name="Grupo 29080">
        <path id="Trazado_58597" data-name="Trazado 58597" d="M329.1,148.888H325.5a1.254,1.254,0,1,1,0-2.508H329.1a1.254,1.254,0,1,1,0,2.508Z" transform="translate(-324.242 -146.38)" fill="#e80054"/>
      </g>
      <g id="Grupo_29081" data-name="Grupo 29081" transform="translate(8.862)">
        <path id="Trazado_58598" data-name="Trazado 58598" d="M335.524,148.888h-3.607a1.254,1.254,0,1,1,0-2.508h3.607a1.254,1.254,0,1,1,0,2.508Z" transform="translate(-330.662 -146.38)" fill="#e80054"/>
      </g>
      <g id="Grupo_29082" data-name="Grupo 29082" transform="translate(31.866)">
        <path id="Trazado_58599" data-name="Trazado 58599" d="M352.19,148.888h-3.607a1.254,1.254,0,1,1,0-2.508h3.607a1.254,1.254,0,1,1,0,2.508Z" transform="translate(-347.328 -146.38)" fill="#e80054"/>
      </g>
      <g id="Grupo_29083" data-name="Grupo 29083" transform="translate(40.728)">
        <path id="Trazado_58600" data-name="Trazado 58600" d="M358.61,148.888H355a1.254,1.254,0,1,1,0-2.508h3.607a1.254,1.254,0,1,1,0,2.508Z" transform="translate(-353.748 -146.38)" fill="#e80054"/>
      </g>
    </g>
  </g>
  <path id="Trazado_58601" data-name="Trazado 58601" d="M334.086,149.65a3.464,3.464,0,0,1-6.928,0v-6.928a3.464,3.464,0,0,1,6.928,0v6.928Z" transform="translate(-304.254 -136.265)" fill="#ebf5fc"/>
  <path id="Trazado_58602" data-name="Trazado 58602" d="M357.172,149.65a3.464,3.464,0,0,1-6.928,0v-6.928a3.463,3.463,0,1,1,6.927,0v6.928Z" transform="translate(-295.474 -136.265)" fill="#ebf5fc"/>
  <path id="Trazado_58603" data-name="Trazado 58603" d="M353.282,139.259a3.451,3.451,0,0,0-1.921.583,3.458,3.458,0,0,1,1.542,2.881v6.928a3.458,3.458,0,0,1-1.542,2.881,3.462,3.462,0,0,0,5.385-2.881v-6.928A3.463,3.463,0,0,0,353.282,139.259Z" transform="translate(-295.049 -136.265)" fill="#d3dcfb"/>
  <path id="Trazado_58604" data-name="Trazado 58604" d="M330.2,139.259a3.451,3.451,0,0,0-1.921.583,3.458,3.458,0,0,1,1.542,2.881v6.928a3.458,3.458,0,0,1-1.542,2.881,3.464,3.464,0,0,0,5.386-2.881v-6.928a3.465,3.465,0,0,0-3.465-3.463Z" transform="translate(-303.829 -136.265)" fill="#d3dcfb"/>
  <path id="Trazado_58605" data-name="Trazado 58605" d="M364.355,143.274h-3.848a5.54,5.54,0,0,1,5.541,5.541v13.854H369.9V148.816a5.541,5.541,0,0,0-5.541-5.542Z" transform="translate(-291.57 -134.738)" fill="#e80054"/>
  <path id="Trazado_58606" data-name="Trazado 58606" d="M315.114,152.4h72.047v2.508H315.114Z" transform="translate(-308.835 -131.266)" fill="#e80054"/>
  <g id="Grupo_29090" data-name="Grupo 29090" transform="translate(48.155 43.556)">
    <circle id="Elipse_2742" data-name="Elipse 2742" cx="20.781" cy="20.781" r="20.781" fill="#62cca2"/>
    <circle id="Elipse_2743" data-name="Elipse 2743" cx="15.24" cy="15.24" r="15.24" transform="translate(5.542 5.542)" fill="#ebf5fc"/>
    <g id="Grupo_29087" data-name="Grupo 29087" transform="translate(19.527 9.83)">
      <g id="Grupo_29086" data-name="Grupo 29086">
        <path id="Trazado_58607" data-name="Trazado 58607" d="M360.853,185.2a1.254,1.254,0,0,1-1.255-1.253v-6.928a1.255,1.255,0,0,1,2.509,0v6.928A1.254,1.254,0,0,1,360.853,185.2Z" transform="translate(-359.598 -175.766)" fill="#3c58a0"/>
      </g>
    </g>
    <g id="Grupo_29089" data-name="Grupo 29089" transform="translate(22.297 19.526)">
      <g id="Grupo_29088" data-name="Grupo 29088">
        <path id="Trazado_58608" data-name="Trazado 58608" d="M367.016,185.3H362.86a1.255,1.255,0,1,1,0-2.509h4.156a1.255,1.255,0,0,1,0,2.509Z" transform="translate(-361.605 -182.791)" fill="#3c58a0"/>
      </g>
    </g>
    <path id="Trazado_58609" data-name="Trazado 58609" d="M361.037,168.645c-.649,0-1.291.032-1.924.09a20.78,20.78,0,0,1,0,41.382q.95.089,1.924.09a20.781,20.781,0,1,0,0-41.562Z" transform="translate(-340.256 -168.645)" fill="#56af89"/>
    <path id="Trazado_58610" data-name="Trazado 58610" d="M361.037,172.66a15.233,15.233,0,0,0-1.923.12,15.241,15.241,0,0,1,0,30.238,15.24,15.24,0,1,0,1.923-30.358Z" transform="translate(-340.255 -167.118)" fill="#d3dcfb"/>
    <circle id="Elipse_2744" data-name="Elipse 2744" cx="2.771" cy="2.771" r="2.771" transform="translate(18.01 18.01)" fill="#ffdd40"/>
  </g>
</svg>
