<svg id="Grupo_29043" data-name="Grupo 29043" xmlns="http://www.w3.org/2000/svg" width="85.258" height="84.634" viewBox="0 0 85.258 84.634">
  <path id="Trazado_58503" data-name="Trazado 58503" d="M465.355,179.406a42.347,42.347,0,0,1-56.07,40.032c-.015-.006-.033-.011-.048-.018a42.316,42.316,0,0,1,13.8-82.331q2.129,0,4.2.207a42.066,42.066,0,0,1,17.081,5.529,42.5,42.5,0,0,1,14.316,13.7q.35.541.682,1.095a42.079,42.079,0,0,1,5.973,19.522Q465.354,178.266,465.355,179.406Z" transform="translate(-380.723 -137.09)" fill="#dce6f4"/>
  <g id="Grupo_29042" data-name="Grupo 29042" transform="translate(3.866 5.208)">
    <g id="Grupo_29038" data-name="Grupo 29038" transform="translate(52.46 14.29)">
      <path id="Trazado_58504" data-name="Trazado 58504" d="M426.283,153.593v9.528a2.384,2.384,0,0,1-4.768,0v-9.528a2.384,2.384,0,0,1,4.768,0Z" transform="translate(-421.515 -151.211)" fill="#ffe278"/>
    </g>
    <g id="Grupo_29039" data-name="Grupo 29039" transform="translate(61.997 9.526)">
      <path id="Trazado_58505" data-name="Trazado 58505" d="M433.191,150.143v14.291a2.385,2.385,0,0,1-4.769,0V150.143a2.385,2.385,0,0,1,4.769,0Z" transform="translate(-428.422 -147.761)" fill="#7cd2e3"/>
    </g>
    <g id="Grupo_29040" data-name="Grupo 29040" transform="translate(71.535 4.762)">
      <path id="Trazado_58506" data-name="Trazado 58506" d="M440.1,146.693v19.055a2.385,2.385,0,0,1-4.769,0V146.693a2.385,2.385,0,0,1,4.769,0Z" transform="translate(-435.33 -144.311)" fill="#e33e4e"/>
    </g>
    <path id="Trazado_58507" data-name="Trazado 58507" d="M424.392,143.243v30.965l-20.189-1.27-15.292-9.921a35.721,35.721,0,0,1,33.1-22.154A2.383,2.383,0,0,1,424.392,143.243Z" transform="translate(-381.471 -140.862)" fill="#ffe278"/>
    <path id="Trazado_58508" data-name="Trazado 58508" d="M453.332,167.393a35.723,35.723,0,0,1-33.384,35.648q-1.183.079-2.385.08a35.723,35.723,0,0,1-16.981-4.276l4.754-19.384,14.612-14.45h31A2.385,2.385,0,0,1,453.332,167.393Z" transform="translate(-377.027 -131.666)" fill="#6b6bd6"/>
    <path id="Trazado_58509" data-name="Trazado 58509" d="M447.991,167.393a35.723,35.723,0,0,1-33.384,35.648v-38.03h31A2.385,2.385,0,0,1,447.991,167.393Z" transform="translate(-371.686 -131.666)" fill="#e33e4e"/>
    <path id="Trazado_58510" data-name="Trazado 58510" d="M426.444,168.336c-1.614,2.821-19.692,34.4-20.586,35.966a2.386,2.386,0,0,1-3.288.757,40.522,40.522,0,0,1-16.977-47.149,2.388,2.388,0,0,1,3.017-1.506Z" transform="translate(-383.523 -134.991)" fill="#7cd2e3"/>
    <g id="Grupo_29041" data-name="Grupo 29041" transform="translate(47.69 23.818)">
      <path id="Trazado_58511" data-name="Trazado 58511" d="M451.762,160.493a2.385,2.385,0,0,1-2.385,2.382H420.446a2.382,2.382,0,1,1,0-4.764h28.932A2.385,2.385,0,0,1,451.762,160.493Z" transform="translate(-418.061 -158.111)" fill="#61729b"/>
    </g>
  </g>
</svg>
