<svg id="Grupo_29034" data-name="Grupo 29034" xmlns="http://www.w3.org/2000/svg" width="89.718" height="89.718" viewBox="0 0 89.718 89.718">
  <path id="Trazado_58425" data-name="Trazado 58425" d="M450.487,107.932a2.378,2.378,0,0,1-2.383-2.368v-.023a44.859,44.859,0,1,1,89.718,0v.023a2.38,2.38,0,0,1-2.384,2.368Z" transform="translate(-448.104 -60.681)" fill="#dce6f4"/>
  <path id="Trazado_58426" data-name="Trazado 58426" d="M537.822,91.661a44.651,44.651,0,0,1-7.566,24.939H509.444a19.8,19.8,0,0,0-19.8,19.8h6.635q-1.644.119-3.318.12a44.656,44.656,0,0,1-27.1-9.112v-5.864a22.929,22.929,0,0,0-17.094-22.173,45.055,45.055,0,0,1-.66-7.71q0-.527.012-1.052H537.81Q537.821,91.134,537.822,91.661Z" transform="translate(-448.104 -46.802)" fill="#dce6f4"/>
  <path id="Trazado_58427" data-name="Trazado 58427" d="M491.7,99.224V122a2.629,2.629,0,0,1-2.629,2.629H465.649a45.1,45.1,0,0,1-4.125-3.544,1,1,0,0,1,.7-1.713h23.347a.876.876,0,0,0,.877-.877v-15.77a.876.876,0,0,0-.877-.877H451.551a2.306,2.306,0,0,1-2.237-1.726q-.448-1.739-.76-3.531h40.518A2.629,2.629,0,0,1,491.7,99.224Z" transform="translate(-447.895 -44.026)" fill="#e33e4e"/>
  <path id="Trazado_58428" data-name="Trazado 58428" d="M487.959,99.866V119.14a.876.876,0,0,1-.877.877H461.326a44.824,44.824,0,0,1-12.257-21.028h38.014A.876.876,0,0,1,487.959,99.866Z" transform="translate(-447.656 -42.916)" fill="#fff5f5"/>
  <path id="Trazado_58429" data-name="Trazado 58429" d="M477.224,104.4a3.855,3.855,0,1,1,3.856,3.856A3.855,3.855,0,0,1,477.224,104.4Zm3.856,5.432a3.856,3.856,0,1,0,3.854,3.856A3.855,3.855,0,0,0,481.08,109.832Zm-10.164-9.286a3.855,3.855,0,1,0,3.856,3.854A3.854,3.854,0,0,0,470.915,100.546Zm0,9.286a3.856,3.856,0,1,0,3.856,3.856A3.855,3.855,0,0,0,470.915,109.832Zm-10.163-9.286a3.855,3.855,0,1,0,3.855,3.854A3.856,3.856,0,0,0,460.753,100.546Zm0,9.286a3.856,3.856,0,0,0-3.681,5q.931,1.179,1.938,2.292a3.855,3.855,0,1,0,1.743-7.294Zm-10.163-9.286a3.889,3.889,0,0,0-1.044.142,44.592,44.592,0,0,0,2.942,7.068,3.856,3.856,0,0,0-1.9-7.21Z" transform="translate(-447.435 -42.194)" fill="#fdbcbc"/>
  <path id="Trazado_58430" data-name="Trazado 58430" d="M481.449,91.719a1.314,1.314,0,0,1-1.314,1.314h-.875v.877a1.314,1.314,0,0,1-2.629,0v-.877h-.875a1.314,1.314,0,1,1,0-2.627h.875v-.877a1.314,1.314,0,0,1,2.629,0v.877h.875A1.314,1.314,0,0,1,481.449,91.719Z" transform="translate(-435.89 -47.912)" fill="#6b6bd6"/>
  <path id="Trazado_58431" data-name="Trazado 58431" d="M466.313,79.477a5.247,5.247,0,0,1,3.911-6.3l27.12-6.357,2.395,10.215-27.12,6.357a5.246,5.246,0,0,1-6.306-3.911Z" transform="translate(-439.724 -57.836)" fill="#a6e0ec"/>
  <path id="Trazado_58432" data-name="Trazado 58432" d="M466.178,78.469a5.248,5.248,0,0,1,4.046-5.3l27.12-6.357,2.395,10.217-1.461.343-1.429-6.1Z" transform="translate(-439.724 -57.836)" fill="#7cd2e3"/>
  <path id="Trazado_58433" data-name="Trazado 58433" d="M448.243,83.841a5.248,5.248,0,0,1,3.911-6.306l28.839-6.76,2.395,10.217-28.839,6.758a5.247,5.247,0,0,1-6.306-3.91Z" transform="translate(-448.104 -55.999)" fill="#62cca2"/>
  <path id="Trazado_58434" data-name="Trazado 58434" d="M454.807,79.489l25.165-5.9,1.429,6.1-25.165,5.9a3.13,3.13,0,1,1-1.429-6.1Z" transform="translate(-446.116 -54.694)" fill="#94ddbe"/>
  <path id="Trazado_58435" data-name="Trazado 58435" d="M482.113,117.525a1.408,1.408,0,0,1-1.149-2.22l3.1-4.388A35.043,35.043,0,0,0,490.5,90.683v-11.2h10.492V90.614a35.043,35.043,0,0,0,6.432,20.235l3.1,4.381a1.455,1.455,0,0,1-1.187,2.3Z" transform="translate(-432.986 -51.963)" fill="#a6e0ec"/>
  <path id="Trazado_58436" data-name="Trazado 58436" d="M486.959,117.525h-4.846a1.408,1.408,0,0,1-1.149-2.22l3.1-4.388a35.052,35.052,0,0,0,6.43-20.233v-11.2h4.846v11.2a35.048,35.048,0,0,1-6.43,20.233l-3.1,4.388A1.407,1.407,0,0,0,486.959,117.525Z" transform="translate(-432.986 -51.963)" fill="#7cd2e3"/>
  <path id="Trazado_58437" data-name="Trazado 58437" d="M488.963,80.62l-3.283-14.01a1.752,1.752,0,1,1,3.412-.8l3.283,14.008a1.752,1.752,0,1,1-3.412.8Zm13.8,6.7a1.751,1.751,0,0,0-1.752-1.752H486.619a1.752,1.752,0,1,0,0,3.5h14.389A1.752,1.752,0,0,0,502.76,87.317Z" transform="translate(-431.055 -58.929)" fill="#c2eaf2"/>
  <path id="Trazado_58438" data-name="Trazado 58438" d="M481.6,130.412q-1.673,0-3.317-.12a7.015,7.015,0,0,1-4.4-10.936l11.016-15.579H514.15l4.748,6.716A44.816,44.816,0,0,1,481.6,130.412Z" transform="translate(-436.747 -40.695)" fill="#ffc14f"/>
  <path id="Trazado_58439" data-name="Trazado 58439" d="M517.72,87.4a1.314,1.314,0,0,1-1.314,1.314h-.877v.877a1.314,1.314,0,0,1-2.629,0v-.877h-.875a1.314,1.314,0,1,1,0-2.627h.875v-.877a1.314,1.314,0,0,1,2.629,0v.877h.877A1.314,1.314,0,0,1,517.72,87.4ZM473.364,75.794a1.753,1.753,0,0,1,1.306-2.106l10.943-2.564a1.752,1.752,0,0,1,.8,3.412L475.47,77.1a1.752,1.752,0,0,1-2.106-1.306Zm28.259,32.636V93.009a1.753,1.753,0,0,0-3.506,0v15.421a1.753,1.753,0,0,0,3.506,0Z" transform="translate(-436.411 -55.86)" fill="#fff5f5"/>
  <path id="Trazado_58440" data-name="Trazado 58440" d="M467.606,110.357a2.628,2.628,0,1,1-2.629-2.629A2.629,2.629,0,0,1,467.606,110.357Z" transform="translate(-441.497 -38.863)" fill="#e33e4e"/>
  <path id="Trazado_58441" data-name="Trazado 58441" d="M480.989,104.012a2.628,2.628,0,1,1-2.627-2.629A2.628,2.628,0,0,1,480.989,104.012Zm-22.954-2.629a2.629,2.629,0,1,0,2.629,2.629A2.629,2.629,0,0,0,458.035,101.383Z" transform="translate(-444.718 -41.806)" fill="#fd9a9a"/>
  <path id="Trazado_58442" data-name="Trazado 58442" d="M470.827,104.012a2.628,2.628,0,1,1-2.629-2.629A2.629,2.629,0,0,1,470.827,104.012Zm-12.792,6.659a2.629,2.629,0,1,0,2.629,2.629A2.629,2.629,0,0,0,458.035,110.67Z" transform="translate(-444.718 -41.806)" fill="#e33e4e"/>
  <path id="Trazado_58443" data-name="Trazado 58443" d="M483.584,113.3a2.628,2.628,0,1,1-2.627-2.629A2.628,2.628,0,0,1,483.584,113.3Zm-33.117-11.916a2.614,2.614,0,0,0-.656.083,44.983,44.983,0,0,0,2,4.8,2.629,2.629,0,0,0-1.345-4.887Z" transform="translate(-447.312 -41.806)" fill="#e33e4e"/>
  <path id="Trazado_58444" data-name="Trazado 58444" d="M484.158,132.672q-1.267.072-2.553.072-1.673,0-3.317-.12a7.015,7.015,0,0,1-4.4-10.936l11.016-15.579h5.1L479,121.688a7.015,7.015,0,0,0,4.4,10.936c.255.018.511.035.767.048Zm20.2-28.666a3.5,3.5,0,1,0,3.5,3.5A3.5,3.5,0,0,0,504.353,104.006Zm-5.258-2.627a2.628,2.628,0,1,1-2.627-2.629A2.628,2.628,0,0,1,499.1,101.379Z" transform="translate(-436.747 -43.027)" fill="#ffa90b"/>
  <path id="Trazado_58445" data-name="Trazado 58445" d="M503.353,107.206a1.752,1.752,0,1,1-1.752-1.752A1.752,1.752,0,0,1,503.353,107.206Zm-18.412,7.36a1.752,1.752,0,1,0,1.752,1.752A1.752,1.752,0,0,0,484.94,114.566Zm5.893,4.205a1.752,1.752,0,1,0,1.752,1.752A1.752,1.752,0,0,0,490.833,118.771Z" transform="translate(-431.834 -39.918)" fill="#ffd993"/>
  <path id="Trazado_58446" data-name="Trazado 58446" d="M493.766,72.227a1.753,1.753,0,1,1-1.752-1.752A1.752,1.752,0,0,1,493.766,72.227Zm4.791.351a1.752,1.752,0,1,0,1.752,1.752A1.752,1.752,0,0,0,498.557,72.578Zm-3.039,8.292a1.752,1.752,0,1,0,1.752,1.752A1.752,1.752,0,0,0,495.518,80.871Z" transform="translate(-428.554 -56.139)" fill="#62cca2"/>
  <path id="Trazado_58447" data-name="Trazado 58447" d="M476.8,76.529a1.752,1.752,0,1,1-1.752-1.752A1.752,1.752,0,0,1,476.8,76.529Zm-16.646-1.752a1.752,1.752,0,1,0,1.752,1.752A1.751,1.751,0,0,0,460.152,74.777Zm-5.668,4.1a1.752,1.752,0,1,0,1.752,1.752A1.752,1.752,0,0,0,454.484,78.876Z" transform="translate(-445.958 -54.144)" fill="#b4efd4"/>
</svg>
