<svg id="Grupo_29036" data-name="Grupo 29036" xmlns="http://www.w3.org/2000/svg" width="89.718" height="89.718" viewBox="0 0 89.718 89.718">
  <path id="Trazado_58448" data-name="Trazado 58448" d="M292.826,108.653a1.3,1.3,0,1,1-1.3-1.3A1.3,1.3,0,0,1,292.826,108.653Z" transform="translate(-215.215 -39.735)" fill="#f0f6ff" opacity="0.2"/>
  <path id="Trazado_58449" data-name="Trazado 58449" d="M328.7,106.019a44.822,44.822,0,0,1-41.211,44.712q-1.8.147-3.648.146c-1.442,0-2.873-.067-4.283-.2a44.475,44.475,0,0,1-15.375-4.323A44.863,44.863,0,1,1,328.7,106.019Z" transform="translate(-238.984 -61.16)" fill="#dce6f4"/>
  <path id="Trazado_58450" data-name="Trazado 58450" d="M308.212,104.706v5.616a45.044,45.044,0,0,1-21.819,22.042,44.692,44.692,0,0,1-11.879,3.651l-.029,0V104.706a12.716,12.716,0,0,1,11.679-12.675c.344-.029.691-.042,1.039-.042h8.285a12.7,12.7,0,0,1,12.723,12.717Z" transform="translate(-222.52 -46.862)" fill="#bfd5de"/>
  <path id="Trazado_58451" data-name="Trazado 58451" d="M306.154,104.706v5.616a45.044,45.044,0,0,1-21.819,22.042,44.453,44.453,0,0,1-5.412,2.115V104.706a12.72,12.72,0,0,1,12.722-12.717h1.786A12.719,12.719,0,0,1,306.154,104.706Z" transform="translate(-220.461 -46.862)" fill="#dde8ed"/>
  <path id="Trazado_58452" data-name="Trazado 58452" d="M280.175,83.743a4.222,4.222,0,0,1-3.545,4.166,4.286,4.286,0,0,1-.676.054,4.221,4.221,0,0,1,0-8.442,4.286,4.286,0,0,1,.676.054A4.223,4.223,0,0,1,280.175,83.743Z" transform="translate(-223.796 -52.645)" fill="#d3a489"/>
  <path id="Trazado_58453" data-name="Trazado 58453" d="M278.8,83.725a4.222,4.222,0,0,1-3.545,4.166,15.763,15.763,0,0,1,0-8.333A4.223,4.223,0,0,1,278.8,83.725Z" transform="translate(-222.422 -52.627)" fill="#bf8e75"/>
  <path id="Trazado_58454" data-name="Trazado 58454" d="M276.6,82.883a1.508,1.508,0,1,1-1.509-1.509A1.509,1.509,0,0,1,276.6,82.883Z" transform="translate(-222.937 -51.785)" fill="#bf8e75"/>
  <path id="Trazado_58455" data-name="Trazado 58455" d="M288.37,97.769l-5.726,3.182-1.742-8.1,3.558-2.1" transform="translate(-219.543 -47.436)" fill="#bfd5de"/>
  <path id="Trazado_58456" data-name="Trazado 58456" d="M286,97.769l5.728,3.182,1.742-8.1-3.558-2.1" transform="translate(-217.177 -47.436)" fill="#bfd5de"/>
  <path id="Trazado_58457" data-name="Trazado 58457" d="M294.51,83.743a4.22,4.22,0,0,0,3.544,4.166,4.288,4.288,0,0,0,.676.054,4.221,4.221,0,0,0,0-8.442,4.288,4.288,0,0,0-.676.054A4.222,4.222,0,0,0,294.51,83.743Z" transform="translate(-213.232 -52.645)" fill="#d3a489"/>
  <g id="Grupo_29035" data-name="Grupo 29035" transform="translate(53.125 13.125)">
    <path id="Trazado_58458" data-name="Trazado 58458" d="M294.51,83.725a4.22,4.22,0,0,0,3.544,4.166,15.763,15.763,0,0,0,0-8.333A4.222,4.222,0,0,0,294.51,83.725Z" transform="translate(-266.357 -65.752)" fill="#bf8e75"/>
    <path id="Trazado_58459" data-name="Trazado 58459" d="M299.38,82.883a1.509,1.509,0,1,1-1.509-1.509A1.509,1.509,0,0,1,299.38,82.883Z" transform="translate(-265.498 -64.91)" fill="#bf8e75"/>
    <path id="Trazado_58460" data-name="Trazado 58460" d="M306.684,85.856a15.7,15.7,0,1,1-31.407,0c0-4.1,1.426-10.264,4-13.061,2.87-3.115,7.132-2.642,11.7-2.642a15.7,15.7,0,0,1,15.7,15.7Z" transform="translate(-275.277 -70.126)" fill="#bf8e75"/>
    <path id="Trazado_58461" data-name="Trazado 58461" d="M291.981,88.641v5.57a4.538,4.538,0,0,1-9.077,0v-5.57Z" transform="translate(-271.74 -61.54)" fill="#bf8e75"/>
  </g>
  <path id="Trazado_58462" data-name="Trazado 58462" d="M291.119,92.205v.353a3.282,3.282,0,1,1-6.356.591c.3.018.609.028.915.028a15.714,15.714,0,0,0,5.441-.972Z" transform="translate(-217.753 -46.762)" fill="#d3a489"/>
  <path id="Trazado_58463" data-name="Trazado 58463" d="M305.087,85.783a15.7,15.7,0,0,1-13.183,15.5,15.705,15.705,0,0,1,0-31,15.71,15.71,0,0,1,13.105,13.935C305.061,84.732,305.087,85.256,305.087,85.783Z" transform="translate(-220.555 -56.929)" fill="#d3a489"/>
  <path id="Trazado_58464" data-name="Trazado 58464" d="M289.537,100.392h6.846v2.1h-6.846Z" transform="translate(-215.539 -42.965)" fill="#bfd5de"/>
  <path id="Trazado_58465" data-name="Trazado 58465" d="M285.377,67.087a9.519,9.519,0,0,1,8.818,9.021l.045.908h2.737l1.474,9.8,3.569-1.105-.479-9.6A9.519,9.519,0,0,0,292,67.062Z" transform="translate(-217.468 -58.423)" fill="#401f43"/>
  <path id="Trazado_58466" data-name="Trazado 58466" d="M300.56,64.49a9.7,9.7,0,0,1-13.719,13.718Z" transform="translate(-216.789 -59.616)" fill="#401f43"/>
  <path id="Trazado_58467" data-name="Trazado 58467" d="M292.212,77.016H280.306l-1.474,9.8-3.569-1.105.479-9.6a9.518,9.518,0,0,1,9.542-9.046l17.193.066,2.273,4.091" transform="translate(-222.159 -58.423)" fill="#401f43"/>
  <path id="Trazado_58468" data-name="Trazado 58468" d="M291.905,67.087a9.521,9.521,0,0,0-8.818,9.021l-.045.908h-2.736l-1.474,9.8-3.57-1.105.48-9.6a9.518,9.518,0,0,1,9.541-9.046Z" transform="translate(-222.159 -58.423)" fill="#2a152d"/>
  <path id="Trazado_58469" data-name="Trazado 58469" d="M273.064,104.7v30.471a44.936,44.936,0,0,1-31.509-25.821V104.7a11.885,11.885,0,0,1,8.8-11.48c.184-.051.372-.1.562-.138a11.681,11.681,0,0,1,1.544-.227q.481-.04.973-.04h7.739a11.929,11.929,0,0,1,2.522.266c.047.009.092.02.139.031.138.032.272.064.408.1l.01,0a11.888,11.888,0,0,1,8.806,11.482Z" transform="translate(-237.792 -46.479)" fill="#6b6bd6"/>
  <path id="Trazado_58470" data-name="Trazado 58470" d="M254.528,98.215l-5.35,2.974-1.628-7.571,3.324-1.959" transform="translate(-235.011 -47.015)" fill="#2ba1cf"/>
  <path id="Trazado_58471" data-name="Trazado 58471" d="M252.317,98.215l5.35,2.974,1.628-7.571-3.324-1.959" transform="translate(-232.801 -47.015)" fill="#2ba1cf"/>
  <path id="Trazado_58472" data-name="Trazado 58472" d="M257.9,89.687v5.2a4.24,4.24,0,0,1-8.48,0v-5.2Z" transform="translate(-234.144 -47.93)" fill="#eab599"/>
  <path id="Trazado_58473" data-name="Trazado 58473" d="M257.1,93.017v.329a3.065,3.065,0,1,1-5.937.552c.283.018.568.026.853.026a14.618,14.618,0,0,0,5.084-.908Z" transform="translate(-233.338 -46.386)" fill="#f6caae"/>
  <path id="Trazado_58474" data-name="Trazado 58474" d="M246.869,85.11a3.945,3.945,0,1,1-3.311-3.892A3.942,3.942,0,0,1,246.869,85.11Z" transform="translate(-238.984 -51.881)" fill="#f6caae"/>
  <path id="Trazado_58475" data-name="Trazado 58475" d="M245.586,85.094a3.942,3.942,0,0,1-3.311,3.892,14.717,14.717,0,0,1,0-7.784A3.942,3.942,0,0,1,245.586,85.094Z" transform="translate(-237.701 -51.865)" fill="#eab599"/>
  <path id="Trazado_58476" data-name="Trazado 58476" d="M243.533,84.308a1.409,1.409,0,1,1-1.408-1.41A1.409,1.409,0,0,1,243.533,84.308Z" transform="translate(-238.181 -51.078)" fill="#eab599"/>
  <path id="Trazado_58477" data-name="Trazado 58477" d="M260.264,85.11a3.945,3.945,0,1,0,3.311-3.892A3.943,3.943,0,0,0,260.264,85.11Z" transform="translate(-229.115 -51.881)" fill="#f6caae"/>
  <path id="Trazado_58478" data-name="Trazado 58478" d="M260.264,85.094a3.943,3.943,0,0,0,3.311,3.892,14.717,14.717,0,0,0,0-7.784A3.943,3.943,0,0,0,260.264,85.094Z" transform="translate(-229.115 -51.865)" fill="#eab599"/>
  <path id="Trazado_58479" data-name="Trazado 58479" d="M271.638,83.262v5.587A14.673,14.673,0,0,1,259.32,103.33l-.072.012a14.467,14.467,0,0,1-2.283.177,14.67,14.67,0,0,1-14.67-14.67V83.262a14.662,14.662,0,0,1,14.67-14.673h0a14.658,14.658,0,0,1,14.671,14.673Z" transform="translate(-237.448 -57.715)" fill="#eab599"/>
  <path id="Trazado_58480" data-name="Trazado 58480" d="M264.813,84.308A1.409,1.409,0,1,1,263.4,82.9,1.408,1.408,0,0,1,264.813,84.308Z" transform="translate(-228.312 -51.078)" fill="#eab599"/>
  <path id="Trazado_58481" data-name="Trazado 58481" d="M270.19,83.206v5.587a14.673,14.673,0,0,1-12.318,14.481l-.072.012a14.674,14.674,0,0,1-12.385-14.493V83.206A14.676,14.676,0,0,1,257.8,68.71,14.676,14.676,0,0,1,270.19,83.206Z" transform="translate(-236.001 -57.659)" fill="#f6caae"/>
  <path id="Trazado_58482" data-name="Trazado 58482" d="M271.638,78.891v5.723h-2.731V80.132L249.2,76.47l-4.17-.776v8.92H242.3V78.891A11.81,11.81,0,0,1,254.1,67.08h5.722c.155,0,.31,0,.465.01A11.808,11.808,0,0,1,271.638,78.891Z" transform="translate(-237.448 -58.414)" fill="#e8c934"/>
  <path id="Trazado_58483" data-name="Trazado 58483" d="M269.452,78.888v5.723H266.72V80.129l-19.711-3.662a11.31,11.31,0,0,1,22.443,2.421Z" transform="translate(-235.262 -58.411)" fill="#ffe278"/>
  <path id="Trazado_58484" data-name="Trazado 58484" d="M294.9,122.069v3.1a45.082,45.082,0,0,1-28.627,3.2q-1.862-.406-3.664-.963a44.477,44.477,0,0,1-6.408-2.537v-2.8a14.6,14.6,0,0,1,10.813-14.1c.228-.06.457-.117.689-.165a14.422,14.422,0,0,1,1.9-.281c.394-.032.79-.047,1.193-.047H280.3a14.59,14.59,0,0,1,3.1.328c.057.01.116.023.17.035.168.04.337.082.5.127h.013a14.613,14.613,0,0,1,10.817,14.1Z" transform="translate(-231 -39.68)" fill="#e8c934"/>
  <path id="Trazado_58485" data-name="Trazado 58485" d="M292.869,122.069v3.1a45.082,45.082,0,0,1-28.627,3.2q-1.862-.406-3.664-.963v-5.34a14.6,14.6,0,0,1,10.813-14.1c.227-.06.457-.117.689-.165a14.42,14.42,0,0,1,1.9-.281c.394-.032.79-.047,1.193-.047h3.1a14.589,14.589,0,0,1,3.1.328c.057.01.116.023.17.035.168.04.337.082.5.127h.013a14.613,14.613,0,0,1,10.817,14.1Z" transform="translate(-228.969 -39.68)" fill="#ffe152"/>
  <path id="Trazado_58486" data-name="Trazado 58486" d="M280.7,107.7l-.037.164-4.576,21.285q-1.8.147-3.648.146c-1.442,0-2.873-.067-4.283-.2L263.6,107.864l-.037-.165Z" transform="translate(-227.585 -39.576)" fill="#f2f0ec"/>
  <path id="Trazado_58487" data-name="Trazado 58487" d="M272.132,114.107l-6.571,3.652-2-9.3,4.084-2.4" transform="translate(-227.585 -40.338)" fill="#d8d5d0"/>
  <path id="Trazado_58488" data-name="Trazado 58488" d="M269.417,114.107l6.571,3.652,2-9.3-4.082-2.4" transform="translate(-224.87 -40.338)" fill="#d8d5d0"/>
  <path id="Trazado_58489" data-name="Trazado 58489" d="M256.015,118.261V96.249a19.62,19.62,0,1,1,39.241,0v22.012" transform="translate(-231.085 -53.987)" fill="#e33e4e"/>
  <path id="Trazado_58490" data-name="Trazado 58490" d="M264.085,97.109c0,7.786,4.56,16.792,7.063,21.152H256.014V96.248a19.61,19.61,0,0,1,19.477-19.619C269.459,76.778,264.085,86.457,264.085,97.109Z" transform="translate(-231.086 -53.986)" fill="#dd3033"/>
  <path id="Trazado_58491" data-name="Trazado 58491" d="M276.276,103.633v6.391a5.207,5.207,0,0,1-10.415,0v-6.391Z" transform="translate(-226.519 -41.462)" fill="#eab599"/>
  <path id="Trazado_58492" data-name="Trazado 58492" d="M275.287,107.723v.4a5.208,5.208,0,0,1-3.667,4.974,5.2,5.2,0,0,1-3.626-4.3q.523.033,1.05.032a18.021,18.021,0,0,0,6.243-1.114Z" transform="translate(-225.53 -39.565)" fill="#f6caae"/>
  <path id="Trazado_58493" data-name="Trazado 58493" d="M262.729,98.011a4.847,4.847,0,0,1-4.066,4.782,5.033,5.033,0,0,1-.777.061,4.843,4.843,0,1,1,4.844-4.844Z" transform="translate(-232.464 -46.315)" fill="#f6caae"/>
  <path id="Trazado_58494" data-name="Trazado 58494" d="M261.152,97.991a4.847,4.847,0,0,1-4.066,4.782,18.065,18.065,0,0,1,0-9.561A4.844,4.844,0,0,1,261.152,97.991Z" transform="translate(-230.887 -46.295)" fill="#eab599"/>
  <path id="Trazado_58495" data-name="Trazado 58495" d="M258.631,97.025a1.731,1.731,0,1,1-1.732-1.73A1.731,1.731,0,0,1,258.631,97.025Z" transform="translate(-231.478 -45.329)" fill="#eab599"/>
  <path id="Trazado_58496" data-name="Trazado 58496" d="M287.563,95.735v16.648a17.96,17.96,0,0,1-9.544,4.748l-.088.013a17.689,17.689,0,0,1-2.8.22,18.018,18.018,0,0,1-18.018-18.018V92.484a18.164,18.164,0,0,1,.184-2.586,11.417,11.417,0,0,0,14.349-.924,10.187,10.187,0,0,0,2.708-4.23,11.891,11.891,0,0,0,3.719,7.421A13.289,13.289,0,0,0,287.563,95.735Z" transform="translate(-230.578 -50.222)" fill="#eab599"/>
  <path id="Trazado_58497" data-name="Trazado 58497" d="M285.785,95.735v16.648a17.96,17.96,0,0,1-9.544,4.748l-.088.013a18.017,18.017,0,0,1-15.21-17.8V92.484c0-.183,0-.363.009-.545a11.289,11.289,0,0,0,8.913-2.966,10.186,10.186,0,0,0,2.708-4.23,11.891,11.891,0,0,0,3.719,7.421A13.289,13.289,0,0,0,285.785,95.735Z" transform="translate(-228.8 -50.222)" fill="#f6caae"/>
</svg>
