<svg id="Grupo_29052" data-name="Grupo 29052" xmlns="http://www.w3.org/2000/svg" xmlns:xlink="http://www.w3.org/1999/xlink" width="89.718" height="89.718" viewBox="0 0 89.718 89.718">
  <defs>
    <clipPath id="clip-path">
      <path id="Trazado_58526" data-name="Trazado 58526" d="M325.561,181.948a44.891,44.891,0,0,1-59.439,42.437c-.016-.006-.035-.012-.051-.019A44.858,44.858,0,0,1,280.7,137.09q2.257,0,4.456.22a44.574,44.574,0,0,1,18.107,5.861,45.049,45.049,0,0,1,15.178,14.522q.371.573.723,1.161a44.608,44.608,0,0,1,6.332,20.695Q325.559,180.74,325.561,181.948Z" transform="translate(-235.843 -137.09)" fill="none"/>
    </clipPath>
  </defs>
  <g id="Grupo_29051" data-name="Grupo 29051">
    <g id="Grupo_29050" data-name="Grupo 29050" clip-path="url(#clip-path)">
      <rect id="Rectángulo_5365" data-name="Rectángulo 5365" width="91.207" height="99.336" transform="translate(0.001 -4.031)" fill="#dce6f4"/>
      <g id="Grupo_29049" data-name="Grupo 29049" transform="translate(6.768 13.162)">
        <path id="Trazado_58512" data-name="Trazado 58512" d="M317.039,206.912h-74.6a1.805,1.805,0,0,1-1.8-1.79l-.17-20.094a1.8,1.8,0,0,1,1.8-1.821h72.962a1.8,1.8,0,0,1,1.8,1.8v21.9Z" transform="translate(-240.467 -128.865)" fill="#6b6bd6"/>
        <path id="Trazado_58513" data-name="Trazado 58513" d="M311.174,195.191l-11.046-11.045c.139-.312.272-.624.4-.938H253.113a25.544,25.544,0,0,0,34.12,13.831l9.874,9.874h14.067Z" transform="translate(-234.602 -128.865)" fill="#6161bc"/>
        <path id="Trazado_58514" data-name="Trazado 58514" d="M312.241,200.424H242.947V147.906a1.824,1.824,0,0,1,1.824-1.824h65.648a1.823,1.823,0,0,1,1.822,1.824Z" transform="translate(-239.317 -146.082)" fill="#f4fbff"/>
        <path id="Trazado_58515" data-name="Trazado 58515" d="M290.565,146.082h-4.807a1.824,1.824,0,0,1,1.824,1.824v52.518h4.805V147.906A1.823,1.823,0,0,0,290.565,146.082Z" transform="translate(-219.463 -146.082)" fill="#e4f6ff"/>
        <g id="Grupo_29044" data-name="Grupo 29044" transform="translate(9.466 4.482)">
          <path id="Trazado_58516" data-name="Trazado 58516" d="M288.02,190.186l-5.258,5.258a1.754,1.754,0,0,1-2.478,0l-3.4-3.4,7.737-7.736,3.4,3.4A1.751,1.751,0,0,1,288.02,190.186Z" transform="translate(-233.046 -132.838)" fill="#2b4d66"/>
          <path id="Trazado_58517" data-name="Trazado 58517" d="M281.1,193.175l4.642-4.642,4.642,4.642-4.642,4.64Z" transform="translate(-231.09 -130.877)" fill="#4a80aa"/>
          <path id="Trazado_58518" data-name="Trazado 58518" d="M301.366,203.232H288.072l-3.839-3.839a1.754,1.754,0,0,1,0-2.478l5.259-5.258a1.751,1.751,0,0,1,2.478,0L302,201.691A.9.9,0,0,1,301.366,203.232Z" transform="translate(-229.875 -129.667)" fill="#407093"/>
          <path id="Trazado_58519" data-name="Trazado 58519" d="M288.088,191.657,286.747,193l10.236,10.236h2.979a.9.9,0,0,0,.638-1.541l-10.034-10.034A1.751,1.751,0,0,0,288.088,191.657Z" transform="translate(-228.471 -129.667)" fill="#365e7d"/>
          <path id="Trazado_58520" data-name="Trazado 58520" d="M246.934,169.95v-19a1.8,1.8,0,0,1,1.8-1.8h14.626a1.8,1.8,0,0,1,1.8,1.8v19a1.805,1.805,0,0,1-1.8,1.806H248.739A1.806,1.806,0,0,1,246.934,169.95Z" transform="translate(-246.934 -149.144)" fill="#e33e4e"/>
          <circle id="Elipse_2738" data-name="Elipse 2738" cx="21.882" cy="21.882" r="21.882" transform="translate(10.864 18.495)" fill="#407093"/>
          <path id="Trazado_58521" data-name="Trazado 58521" d="M288.06,164.823A21.883,21.883,0,0,1,257.4,195.484a21.883,21.883,0,1,0,30.661-30.661Z" transform="translate(-242.081 -141.873)" fill="#365e7d"/>
          <circle id="Elipse_2739" data-name="Elipse 2739" cx="16.047" cy="16.047" r="16.047" transform="translate(16.699 24.331)" fill="#e4f6ff"/>
          <path id="Trazado_58522" data-name="Trazado 58522" d="M283.049,167.991a16.047,16.047,0,0,1-22.482,22.48,16.047,16.047,0,1,0,22.482-22.48Z" transform="translate(-240.612 -140.404)" fill="#d3effb"/>
        </g>
        <g id="Grupo_29048" data-name="Grupo 29048" transform="translate(32.548 4.482)">
          <g id="Grupo_29045" data-name="Grupo 29045">
            <path id="Trazado_58523" data-name="Trazado 58523" d="M297.245,151.852H264.057a1.354,1.354,0,0,1,0-2.708h33.188a1.354,1.354,0,1,1,0,2.708Z" transform="translate(-262.703 -149.144)" fill="#62cca2"/>
          </g>
          <g id="Grupo_29046" data-name="Grupo 29046" transform="translate(0 5.836)">
            <path id="Trazado_58524" data-name="Trazado 58524" d="M297.245,155.837H264.057a1.353,1.353,0,1,1,0-2.706h33.188a1.353,1.353,0,1,1,0,2.706Z" transform="translate(-262.703 -153.131)" fill="#62cca2"/>
          </g>
          <g id="Grupo_29047" data-name="Grupo 29047" transform="translate(0 11.67)">
            <path id="Trazado_58525" data-name="Trazado 58525" d="M286.3,159.825H264.057a1.354,1.354,0,0,1,0-2.708H286.3a1.354,1.354,0,1,1,0,2.708Z" transform="translate(-262.703 -157.117)" fill="#62cca2"/>
          </g>
        </g>
      </g>
    </g>
  </g>
  <path id="Trazado_58527" data-name="Trazado 58527" d="M307.439,143.945h-62v-4.012a1.824,1.824,0,0,1,1.824-1.824h58.352a1.824,1.824,0,0,1,1.824,1.824Z" transform="translate(-231.393 -136.617)" fill="#7cd2e3"/>
  <path id="Trazado_58528" data-name="Trazado 58528" d="M309.841,147.931H244.193v-4.012a1.824,1.824,0,0,1,1.824-1.822h62a1.823,1.823,0,0,1,1.824,1.822Z" transform="translate(-231.971 -134.768)" fill="#cbe2ff"/>
</svg>
