<svg xmlns="http://www.w3.org/2000/svg" width="162.968" height="149.7" viewBox="0 0 162.968 149.7">
  <g id="Grupo_29033" data-name="Grupo 29033" transform="translate(-418.526 -56.087)">
    <circle id="Elipse_2737" data-name="Elipse 2737" cx="64.333" cy="64.333" r="64.333" transform="translate(441.304 73.451)" fill="#c5dbee" opacity="0.5"/>
    <g id="Grupo_29025" data-name="Grupo 29025" transform="translate(435.186 62.683)">
      <g id="Grupo_29022" data-name="Grupo 29022" transform="translate(0 32.134)">
        <path id="Trazado_58406" data-name="Trazado 58406" d="M544.485,113.793l-4.9,20.1-3.823,15.7-12.673,52.031a.9.9,0,0,1-1.6.322l-2.855-3.846a.9.9,0,0,0-1.123-.263l-5.363,2.6a.9.9,0,0,1-1.123-.263l-3.571-4.789a.88.88,0,0,0-1.112-.275l-5.375,2.616a.892.892,0,0,1-1.111-.275l-3.571-4.789a.906.906,0,0,0-1.124-.276l-5.363,2.617a.909.909,0,0,1-1.123-.275l-3.559-4.791a.911.911,0,0,0-1.124-.275l-5.363,2.617a.909.909,0,0,1-1.123-.275l-3.559-4.791a.926.926,0,0,0-1.124-.275l-5.375,2.616a.877.877,0,0,1-1.111-.275l-3.571-4.777a.879.879,0,0,0-1.111-.275l-5.376,2.616a.907.907,0,0,1-1.111-.275l-3.571-4.789a.908.908,0,0,0-1.123-.276l-5.364,2.617a.909.909,0,0,1-1.123-.275l-3.571-4.791a.892.892,0,0,0-1.111-.275l-4.325,2.1a.9.9,0,0,1-1.265-1.027l7.286-29.946,5.112-20.987,8.982-36.9a.9.9,0,0,1,1.6-.323l2.867,3.847a.909.909,0,0,0,1.123.275l5.363-2.617a.908.908,0,0,1,1.123.276l3.56,4.789a.909.909,0,0,0,1.123.275l5.363-2.616a.894.894,0,0,1,1.123.275l3.56,4.789a.9.9,0,0,0,1.123.263l5.363-2.6a.9.9,0,0,1,1.123.263l3.571,4.791a.894.894,0,0,0,1.112.275l5.375-2.617a.892.892,0,0,1,1.111.275l3.571,4.791a.911.911,0,0,0,1.124.275l5.363-2.616a.906.906,0,0,1,1.123.275l3.559,4.789a.911.911,0,0,0,1.124.275l5.363-2.616a.907.907,0,0,1,1.123.275l3.571,4.789a.907.907,0,0,0,1.111.275l5.376-2.616a.889.889,0,0,1,1.111.263l3.571,4.8a.9.9,0,0,0,1.123.264l4.313-2.09A.9.9,0,0,1,544.485,113.793Z" transform="translate(-433.692 -91.344)" fill="#62cca2"/>
        <rect id="Rectángulo_5352" data-name="Rectángulo 5352" width="77.024" height="77.024" rx="8.554" transform="translate(27.103 8.953) rotate(13.687)" fill="#fff" style="mix-blend-mode: soft-light;isolation: isolate"/>
        <path id="Trazado_58407" data-name="Trazado 58407" d="M535.765,144.425l-12.673,52.031a.9.9,0,0,1-1.6.322l-2.855-3.846a.9.9,0,0,0-1.123-.263l-5.363,2.6a.9.9,0,0,1-1.123-.263l-3.571-4.789a.88.88,0,0,0-1.112-.275l-5.375,2.616a.892.892,0,0,1-1.111-.275l-3.571-4.789a.906.906,0,0,0-1.124-.276l-5.363,2.617a.909.909,0,0,1-1.123-.275l-3.559-4.791A.911.911,0,0,0,484,184.5l-5.363,2.617a.909.909,0,0,1-1.123-.275l-3.559-4.791a.926.926,0,0,0-1.124-.275l-5.375,2.616a.877.877,0,0,1-1.111-.275l-3.571-4.777a.879.879,0,0,0-1.111-.275l-5.376,2.616a.907.907,0,0,1-1.111-.275l-3.571-4.789a.908.908,0,0,0-1.123-.276l-5.364,2.617a.909.909,0,0,1-1.123-.275l-3.571-4.791a.892.892,0,0,0-1.111-.275l-4.325,2.1a.9.9,0,0,1-1.265-1.027l7.286-29.946a8.853,8.853,0,0,1,.836.514c2.162,1.481,3.87,3.786,6.4,4.431,3.774.968,7.382-2.138,11.264-2.353,2.306-.132,5.279.334,6.892,2.019a.954.954,0,0,1,.108.119,32.716,32.716,0,0,0,5.985,5.28,31.209,31.209,0,0,0,14.764,5.363,28.309,28.309,0,0,0,22.278-7.992,29.736,29.736,0,0,1,3.523-3.427c1.2-.884,2.592-1.458,3.835-2.259,1.457-.932,2.807-2.77,4.563-2.64,1.983.156,3.87,1.039,5.817,1.4A17.085,17.085,0,0,0,535.765,144.425Z" transform="translate(-433.692 -86.178)" opacity="0.25" style="mix-blend-mode: soft-light;isolation: isolate"/>
        <path id="Trazado_58408" data-name="Trazado 58408" d="M543.371,113.793l-4.9,20.1a20.086,20.086,0,0,1-2.9-2.641,67.116,67.116,0,0,0-68.515-16.566c-8.051,2.591-16.281,7.071-22.05,14.238l8.982-36.9a.9.9,0,0,1,1.6-.323l2.867,3.847a.909.909,0,0,0,1.123.275l5.363-2.617a.908.908,0,0,1,1.123.276l3.56,4.789a.909.909,0,0,0,1.123.275l5.363-2.616a.894.894,0,0,1,1.123.275l3.56,4.789a.9.9,0,0,0,1.123.263l5.363-2.6a.9.9,0,0,1,1.123.263l3.571,4.791a.894.894,0,0,0,1.112.275l5.375-2.617a.892.892,0,0,1,1.111.275l3.571,4.791a.911.911,0,0,0,1.124.275l5.363-2.616a.906.906,0,0,1,1.123.275l3.559,4.789a.911.911,0,0,0,1.124.275l5.363-2.616a.907.907,0,0,1,1.123.275l3.571,4.789a.907.907,0,0,0,1.111.275l5.376-2.616a.889.889,0,0,1,1.111.263l3.571,4.8a.9.9,0,0,0,1.123.264l4.313-2.09A.9.9,0,0,1,543.371,113.793Z" transform="translate(-432.578 -91.344)" fill="#fff" opacity="0.5" style="mix-blend-mode: soft-light;isolation: isolate"/>
        <g id="Grupo_29021" data-name="Grupo 29021" transform="translate(26.527 24.558)" style="mix-blend-mode: soft-light;isolation: isolate">
          <path id="Trazado_58409" data-name="Trazado 58409" d="M506.864,123.5a23.338,23.338,0,0,0-16.682-7.943,27.688,27.688,0,0,1,22.079,25.592A23.323,23.323,0,0,0,506.864,123.5Z" transform="translate(-454.656 -113.516)" opacity="0.6"/>
          <path id="Trazado_58410" data-name="Trazado 58410" d="M470.141,117.536a27.23,27.23,0,0,0-12.3,15.982,33.359,33.359,0,0,1,32.191-19.161A27.216,27.216,0,0,0,470.141,117.536Z" transform="translate(-457.841 -113.7)" fill="#fff" opacity="0.5" style="mix-blend-mode: soft-light;isolation: isolate"/>
          <path id="Trazado_58411" data-name="Trazado 58411" d="M496.33,166.952a27.225,27.225,0,0,0,14.708-13.8A33.361,33.361,0,0,1,476.186,166.9,27.212,27.212,0,0,0,496.33,166.952Z" transform="translate(-456.034 -109.814)" fill="#fff" opacity="0.5" style="mix-blend-mode: soft-light;isolation: isolate"/>
          <path id="Trazado_58412" data-name="Trazado 58412" d="M519.531,144.127a31.777,31.777,0,0,1-61.144,12.141,31.768,31.768,0,0,0,57.432-27.058A31.59,31.59,0,0,1,519.531,144.127Z" transform="translate(-457.787 -112.172)" opacity="0.6"/>
          <path id="Trazado_58413" data-name="Trazado 58413" d="M508.508,128.882a27.189,27.189,0,0,0-42.753,33.55,27.189,27.189,0,1,1,42.753-33.55Z" transform="translate(-457.691 -113.302)" opacity="0.6"/>
        </g>
      </g>
      <g id="Grupo_29024" data-name="Grupo 29024" transform="translate(81.366)">
        <g id="Grupo_29023" data-name="Grupo 29023">
          <path id="Trazado_58414" data-name="Trazado 58414" d="M569.13,165.838l-32.036,11.05c-.023-.06-.035-.132-.059-.191-.335-.944-.657-1.887-.98-2.843-.645-1.875-1.3-3.762-1.947-5.639q-1.326-3.834-2.64-7.669c-1.027-2.962-2.043-5.924-3.07-8.887q-1.611-4.676-3.213-9.328c-.275-.789-.549-1.588-.824-2.377-.765-2.21-1.517-4.407-2.281-6.605q-1.345-3.925-2.7-7.848-1.02-2.956-2.042-5.925c-.227-.657-.454-1.326-.681-1.983-.131-.394-.179-1-.5-1.242-.754-.561-1.793-.131-2.174-1.253a1.56,1.56,0,0,1,.071-1.207c.238-.5.944-.883.716-1.54-.3-.836-1.564-.561-2.078-1.23a1.567,1.567,0,0,1-.167-1.673c.238-.5.681-.883.5-1.5-.264-.883-1.326-.6-1.852-1.242a1.615,1.615,0,0,1-.191-1.7c.263-.537.992-.991.693-1.672-.215-.49-.681-.442-1.111-.537a1.564,1.564,0,0,1-1.112-2.234c.239-.513.933-.944.717-1.576-.2-.549-.74-.5-1.2-.633a1.661,1.661,0,0,1-1.135-1.028,1.613,1.613,0,0,1,.085-1.206,4.766,4.766,0,0,0,.645-1.3,4.246,4.246,0,0,0-.24-1.541,16.459,16.459,0,0,1-.525-3.655,17.027,17.027,0,0,1,1.265-7.012c.144-.323.287-.645.443-.968a17,17,0,0,1,3.524-4.826,3.6,3.6,0,0,0,1.027-3.333l-1.291-6.068a4.378,4.378,0,0,1,2.747-5.1,4.16,4.16,0,0,1,3.01.132,4.507,4.507,0,0,1,2.294,2.2l2.723,5.566A3.586,3.586,0,0,0,526.44,72.2,17.051,17.051,0,0,1,537.572,78a16.611,16.611,0,0,1,2.1,3.046,18.888,18.888,0,0,1,.8,1.719c.191.478.2,1.123.763,1.314.681.227,1.315.036,1.744.8a1.581,1.581,0,0,1,.059,1.493c-.275.573-.979,1.1-.417,1.744.525.6,1.434.442,1.875,1.182a1.641,1.641,0,0,1,.024,1.625c-.167.323-.5.549-.657.872a.8.8,0,0,0-.06.382c.036.525.49.7.931.812a1.794,1.794,0,0,1,1.3.765,1.665,1.665,0,0,1,0,1.637c-.252.442-.789.812-.622,1.373.251.86,1.673.634,2.139,1.421a1.6,1.6,0,0,1,.083,1.517c-.215.431-.693.669-.765,1.183a.874.874,0,0,0,.238.693c.61.609,1.661.275,2.078,1.253a1.574,1.574,0,0,1-.023,1.314c-.287.585-.657.968-.622,1.673a6.938,6.938,0,0,0,.466,1.684c.264.74.514,1.481.777,2.221q1.111,3.263,2.245,6.523,1.415,4.137,2.855,8.289,1.595,4.6,3.19,9.233c.238.681.466,1.374.7,2.055.836,2.436,1.684,4.873,2.52,7.321q1.506,4.355,3.011,8.708c.824,2.413,1.66,4.826,2.484,7.227.573,1.649,1.135,3.3,1.708,4.933C568.712,164.62,568.927,165.23,569.13,165.838Z" transform="translate(-507.763 -62.091)" fill="#f0c86a"/>
          <path id="Trazado_58415" data-name="Trazado 58415" d="M561.3,164.351c-.573-1.637-1.135-3.285-1.708-4.933-.824-2.4-1.66-4.814-2.484-7.226q-1.506-4.355-3-8.708c-1.086-3.13-2.162-6.247-3.236-9.377l-3.19-9.246c-.956-2.758-1.9-5.518-2.855-8.277-.753-2.174-1.493-4.348-2.245-6.522-.263-.74-.513-1.482-.765-2.222a6,6,0,0,1-.466-1.684,3.134,3.134,0,0,1,.61-1.672,1.6,1.6,0,0,0,.023-1.326c-.417-.968-1.457-.634-2.078-1.242a.824.824,0,0,1-.226-.693c.059-.513.537-.752.752-1.182a1.6,1.6,0,0,0-.071-1.517c-.478-.789-1.9-.561-2.151-1.421-.167-.561.382-.932.622-1.374a1.606,1.606,0,0,0,0-1.637,1.77,1.77,0,0,0-1.3-.763c-.431-.108-.9-.287-.933-.813a.682.682,0,0,1,.072-.382c.143-.322.478-.549.645-.872a1.64,1.64,0,0,0-.024-1.624c-.442-.741-1.35-.585-1.875-1.183-.561-.645.143-1.171.417-1.744a1.581,1.581,0,0,0-.059-1.493c-.43-.765-1.063-.573-1.744-.8-.561-.191-.572-.836-.763-1.314a18.77,18.77,0,0,0-.8-1.72,16.614,16.614,0,0,0-2.1-3.046,27.571,27.571,0,0,0-8.039-5.793,17.062,17.062,0,0,1,11.133,5.793,16.6,16.6,0,0,1,2.1,3.046,18.754,18.754,0,0,1,.8,1.72c.191.478.2,1.123.765,1.314.681.226,1.314.035,1.743.8a1.582,1.582,0,0,1,.06,1.493c-.275.573-.98,1.1-.419,1.744.526.6,1.434.442,1.875,1.183a1.639,1.639,0,0,1,.024,1.624c-.167.323-.5.55-.657.872a.814.814,0,0,0-.059.382c.035.526.49.705.932.813a1.792,1.792,0,0,1,1.3.763,1.665,1.665,0,0,1,0,1.637c-.25.443-.789.813-.621,1.374.25.86,1.672.633,2.15,1.421a1.631,1.631,0,0,1,.071,1.517c-.215.43-.693.669-.765,1.182a.876.876,0,0,0,.239.693c.609.609,1.66.275,2.078,1.242a1.6,1.6,0,0,1-.024,1.326c-.287.584-.657.967-.61,1.672a6,6,0,0,0,.467,1.684c.25.74.5,1.482.763,2.222q1.112,3.261,2.246,6.522c.956,2.759,1.9,5.519,2.855,8.277q1.593,4.624,3.189,9.246c1.074,3.13,2.15,6.247,3.225,9.377q1.5,4.353,3.01,8.708c.824,2.412,1.66,4.826,2.485,7.226.573,1.649.84,2.453,1.414,4.09Z" transform="translate(-506.329 -61.062)" fill="#fff" style="mix-blend-mode: soft-light;isolation: isolate"/>
          <path id="Trazado_58416" data-name="Trazado 58416" d="M567.642,159.227l-32.036,11.05c-.023-.06-.035-.132-.059-.191-.335-.944-.657-1.887-.98-2.843-.645-1.875-1.3-3.762-1.947-5.639q-1.326-3.834-2.64-7.669c-1.027-2.962-2.043-5.924-3.07-8.887q-1.611-4.676-3.213-9.328c-.275-.789-.549-1.588-.824-2.377a45.1,45.1,0,0,0,12.816,3.105c7.012.537,14.371-1.147,19.793-5.625.622-.514,1.218-1.063,1.816-1.613.836,2.436,1.684,4.873,2.52,7.321q1.506,4.355,3.011,8.708c.824,2.413,1.66,4.826,2.484,7.227.573,1.649,1.135,3.3,1.708,4.933C567.224,158.009,567.439,158.619,567.642,159.227Z" transform="translate(-506.274 -55.481)" opacity="0.5" style="mix-blend-mode: soft-light;isolation: isolate"/>
          <path id="Trazado_58417" data-name="Trazado 58417" d="M541.221,84.871a31.075,31.075,0,0,0-7.686,1.472q-3.875,1.083-7.688,2.368t-7.552,2.77c-2.461.983-4.677,2.35-7.026,3.531-.059.031-.018.135.046.11,2.536-1.033,5.232-1.762,7.795-2.763q3.617-1.41,7.3-2.639t7.429-2.263a52,52,0,0,0,7.45-2.326C541.422,85.074,541.353,84.868,541.221,84.871Z" transform="translate(-507.42 -59.848)" opacity="0.5" style="mix-blend-mode: soft-light;isolation: isolate"/>
          <path id="Trazado_58418" data-name="Trazado 58418" d="M542.42,89.237a31.044,31.044,0,0,0-7.686,1.472q-3.874,1.081-7.687,2.367t-7.552,2.77c-2.461.983-4.677,2.35-7.027,3.532-.059.03-.018.135.046.109,2.536-1.033,5.232-1.761,7.795-2.762q3.618-1.412,7.3-2.639t7.429-2.264a51.948,51.948,0,0,0,7.45-2.326C542.621,89.44,542.552,89.234,542.42,89.237Z" transform="translate(-507.302 -59.418)" opacity="0.5" style="mix-blend-mode: soft-light;isolation: isolate"/>
          <path id="Trazado_58419" data-name="Trazado 58419" d="M543.62,93.6a31.093,31.093,0,0,0-7.687,1.472q-3.874,1.083-7.687,2.368t-7.552,2.77c-2.461.983-4.677,2.35-7.027,3.531-.059.031-.016.135.046.11,2.538-1.033,5.232-1.762,7.8-2.763q3.617-1.41,7.3-2.639t7.429-2.263a52.042,52.042,0,0,0,7.45-2.326C543.821,93.805,543.751,93.6,543.62,93.6Z" transform="translate(-507.184 -58.988)" opacity="0.5" style="mix-blend-mode: soft-light;isolation: isolate"/>
          <path id="Trazado_58420" data-name="Trazado 58420" d="M544.819,97.968a31.025,31.025,0,0,0-7.686,1.472q-3.875,1.081-7.688,2.367t-7.552,2.77c-2.461.983-4.677,2.35-7.026,3.532-.059.03-.018.135.046.109,2.536-1.033,5.232-1.761,7.795-2.762q3.617-1.412,7.3-2.639t7.429-2.264a51.86,51.86,0,0,0,7.45-2.326C545.02,98.171,544.951,97.965,544.819,97.968Z" transform="translate(-507.066 -58.558)" opacity="0.5" style="mix-blend-mode: soft-light;isolation: isolate"/>
          <path id="Trazado_58421" data-name="Trazado 58421" d="M546.018,102.333a31.145,31.145,0,0,0-7.686,1.472q-3.874,1.083-7.687,2.368t-7.552,2.77c-2.461.983-4.677,2.35-7.027,3.531-.059.031-.018.135.046.11,2.536-1.033,5.232-1.762,7.795-2.763q3.618-1.41,7.3-2.639t7.429-2.263a52.089,52.089,0,0,0,7.45-2.326C546.219,102.536,546.15,102.33,546.018,102.333Z" transform="translate(-506.947 -58.128)" opacity="0.5" style="mix-blend-mode: soft-light;isolation: isolate"/>
          <path id="Trazado_58422" data-name="Trazado 58422" d="M517.817,70.2a2.253,2.253,0,0,1,.582.676,1.4,1.4,0,0,1,.085,1.051,1.164,1.164,0,0,1-.645.628,9.184,9.184,0,0,1-1.359.545,1.688,1.688,0,0,1-1.153.054,2.1,2.1,0,0,1-.988-1.3,10.183,10.183,0,0,1-.393-1.93q-.125-.9-.249-1.793c-.291-2.1,1.044-.623,1.587-.147Z" transform="translate(-507.182 -61.604)" opacity="0.5" style="mix-blend-mode: soft-light;isolation: isolate"/>
          <path id="Trazado_58423" data-name="Trazado 58423" d="M521.595,70.5a7.745,7.745,0,0,0-.421-1.554q-.28-.643-.559-1.284a22.737,22.737,0,0,0-1.181-2.588,4.333,4.333,0,0,0-1.512-1.675,3.524,3.524,0,0,0-2.227-.278c-.11.023-.238.071-.264.183s.081.214.177.282a14.534,14.534,0,0,1,1.3,1.041,5.463,5.463,0,0,1,1.149,1.7c.379.76.707,1.549,1.055,2.324.18.4.347.818.544,1.215a8.774,8.774,0,0,0,.807,1.2C520.878,71.64,521.73,71.142,521.595,70.5Z" transform="translate(-507.007 -61.997)" fill="#fff" style="mix-blend-mode: soft-light;isolation: isolate"/>
          <path id="Trazado_58424" data-name="Trazado 58424" d="M569.035,159.317l-34.5,11.893a1.9,1.9,0,0,1-2.413-1.176h0a1.9,1.9,0,0,1,1.175-2.413l34.5-11.893a1.9,1.9,0,0,1,2.414,1.176h0A1.9,1.9,0,0,1,569.035,159.317Z" transform="translate(-505.373 -52.879)" fill="#f0c86a"/>
        </g>
      </g>
    </g>
    <g id="Grupo_29032" data-name="Grupo 29032" transform="translate(418.526 56.087)">
      <g id="Grupo_29026" data-name="Grupo 29026" transform="translate(35.994 25.621)">
        <rect id="Rectángulo_5353" data-name="Rectángulo 5353" width="1.286" height="6.416" transform="translate(2.565)" fill="#cce0fb"/>
        <rect id="Rectángulo_5354" data-name="Rectángulo 5354" width="1.286" height="6.416" transform="translate(6.416 2.565) rotate(90)" fill="#cce0fb"/>
      </g>
      <g id="Grupo_29027" data-name="Grupo 29027" transform="translate(0 41.288)">
        <rect id="Rectángulo_5355" data-name="Rectángulo 5355" width="2.143" height="10.69" transform="translate(4.273)" fill="#cce0fb"/>
        <rect id="Rectángulo_5356" data-name="Rectángulo 5356" width="2.143" height="10.69" transform="translate(10.69 4.273) rotate(90)" fill="#cce0fb"/>
      </g>
      <g id="Grupo_29028" data-name="Grupo 29028" transform="translate(120.881)">
        <rect id="Rectángulo_5357" data-name="Rectángulo 5357" width="2.143" height="10.69" transform="matrix(-0.001, -1, 1, -0.001, 0.002, 6.42)" fill="#cce0fb"/>
        <rect id="Rectángulo_5358" data-name="Rectángulo 5358" width="2.143" height="10.69" transform="translate(4.274)" fill="#cce0fb"/>
      </g>
      <g id="Grupo_29029" data-name="Grupo 29029" transform="translate(120.882 131.622)">
        <rect id="Rectángulo_5359" data-name="Rectángulo 5359" width="2.143" height="10.69" transform="translate(4.273)" fill="#cce0fb"/>
        <rect id="Rectángulo_5360" data-name="Rectángulo 5360" width="2.143" height="10.69" transform="translate(10.69 4.273) rotate(90)" fill="#cce0fb"/>
      </g>
      <g id="Grupo_29030" data-name="Grupo 29030" transform="translate(13.823 91.378)">
        <rect id="Rectángulo_5361" data-name="Rectángulo 5361" width="1.137" height="5.673" transform="translate(2.268)" fill="#cce0fb"/>
        <rect id="Rectángulo_5362" data-name="Rectángulo 5362" width="1.137" height="5.673" transform="translate(5.673 2.268) rotate(90)" fill="#cce0fb"/>
      </g>
      <g id="Grupo_29031" data-name="Grupo 29031" transform="translate(137.961 8.983)">
        <rect id="Rectángulo_5363" data-name="Rectángulo 5363" width="1.137" height="5.673" transform="matrix(-0.001, -1, 1, -0.001, 0.001, 3.408)" fill="#cce0fb"/>
        <rect id="Rectángulo_5364" data-name="Rectángulo 5364" width="1.137" height="5.673" transform="translate(2.268)" fill="#cce0fb"/>
      </g>
    </g>
  </g>
</svg>
