<svg xmlns="http://www.w3.org/2000/svg" width="233.954" height="187" viewBox="0 0 233.954 187">
  <g id="Grupo_29205" data-name="Grupo 29205" transform="translate(-690.694 -209.52)">
    <g id="Grupo_29192" data-name="Grupo 29192" transform="translate(690.694 234.36)">
      <g id="Grupo_29187" data-name="Grupo 29187" transform="translate(37.469 1.07)" opacity="0.4">
        <g id="Grupo_29186" data-name="Grupo 29186">
          <path id="Trazado_59107" data-name="Trazado 59107" d="M763.269,346.075a50.465,50.465,0,0,1-27.1-14.869c-9.941-10.256-18.85-26.982-12-51.838,12.973-47.094,71.846-54.911,98.65-44.043,42.6,17.271,62.118,87.168,3.571,109.814C811.831,350.769,779.125,348.974,763.269,346.075Z" transform="translate(-721.752 -230.997)" fill="#c5dbee"/>
        </g>
      </g>
      <g id="Grupo_29189" data-name="Grupo 29189" transform="translate(171.833)" opacity="0.4">
        <g id="Grupo_29188" data-name="Grupo 29188">
          <path id="Trazado_59108" data-name="Trazado 59108" d="M870.01,237.211c-9.272-8.746-25.069-10.15-33.172-.034a18.69,18.69,0,0,0-2.927,16.487c4.411,12.525,25.6,32.02,41.147,17.932C885.111,262.483,880.233,246.852,870.01,237.211Z" transform="translate(-833.128 -230.11)" fill="#c5dbee"/>
        </g>
      </g>
      <g id="Grupo_29191" data-name="Grupo 29191" transform="translate(0 57.379)" opacity="0.4">
        <g id="Grupo_29190" data-name="Grupo 29190">
          <path id="Trazado_59109" data-name="Trazado 59109" d="M722.533,292.075a20.469,20.469,0,0,0-24.93-13.661c-3.75,1.042-5.942,6.458-6.571,10.09-1.957,11.3,4.47,35.217,22.369,32.417C727.871,318.658,726.172,303.652,722.533,292.075Z" transform="translate(-690.694 -277.672)" fill="#c5dbee"/>
        </g>
      </g>
    </g>
    <g id="Grupo_29202" data-name="Grupo 29202" transform="translate(693.816 209.52)">
      <g id="Grupo_29195" data-name="Grupo 29195" transform="translate(119.668)">
        <path id="Trazado_59110" data-name="Trazado 59110" d="M814.848,359.362v6.229H804.581l6.691-3.691.577-2.538Z" transform="translate(-789.977 -178.591)" fill="#343456"/>
        <path id="Trazado_59111" data-name="Trazado 59111" d="M812.331,273.889l-.041,1.418-2.964,103.2h5.348l17.268-101.054Z" transform="translate(-788.997 -196.233)" fill="#172e60"/>
        <path id="Trazado_59112" data-name="Trazado 59112" d="M811.9,273.889l-.041,1.418-.425,14.783a46.056,46.056,0,0,1,5.268,5.2c3.543,4.233-2.507,65.562-4.332,83.217h1.872l17.267-101.055Z" transform="translate(-788.563 -196.234)" fill="#12214a"/>
        <path id="Trazado_59113" data-name="Trazado 59113" d="M795.858,288.4l-1.173,3.029c-.122.527-.07,1.093.391,1.216l2.363-3.775-1.664,3.553a.651.651,0,0,0,.409.848l2.033-3.593-.982,2.7s-.177.618.327.823c.7-.62,2.141-5.453,3.461-7.939l2.305-2.488-2.416-2.281s-8.388,4.14-8.436,5.373,3.236-.433,3.236-.433a11.582,11.582,0,0,0-2.21,4.193,1.917,1.917,0,0,0,.345,1.472Z" transform="translate(-792.476 -194.87)" fill="#fc8a7c"/>
        <path id="Trazado_59114" data-name="Trazado 59114" d="M844.436,295.7l1.637,2.8c.337.425.811.737,1.194.454l-1.478-4.2,1.741,3.515a.654.654,0,0,0,.919.209l-1.543-3.829,1.5,2.453s.373.524.847.257c-.047-.935-2.929-5.073-4.05-7.655l-.509-3.354-3.29.468s-1.99,9.14-1.057,9.947,1.678-2.8,1.678-2.8a11.581,11.581,0,0,0,1.9,4.342,1.916,1.916,0,0,0,1.366.649Z" transform="translate(-782.645 -193.66)" fill="#ff9a87"/>
        <path id="Trazado_59115" data-name="Trazado 59115" d="M813.9,240.119l-3.318,25.564c-5.295,9.063-12.618,20.667-13.4,24.075l3.737,3.361c4.078-.3,13.648-13.124,21.73-22.553l3.167-22.1C829.675,236.78,816.985,232.36,813.9,240.119Z" transform="translate(-791.504 -204.005)" fill="#ffe278"/>
        <path id="Trazado_59116" data-name="Trazado 59116" d="M800.4,288.839c3.649-.27,11.7-10.568,19.141-19.486l-3.784-12.379s-1.161,13.728-5.984,15.266-3.549,4.428-4.085,9.024c-.308,2.646-3.4,5.238-5.969,6.962Z" transform="translate(-790.981 -199.725)" fill="#231f20" opacity="0.31" style="mix-blend-mode: overlay;isolation: isolate"/>
        <path id="Trazado_59117" data-name="Trazado 59117" d="M824.862,359.461v6.229h10.026L827.966,362v-3.115Z" transform="translate(-785.791 -178.69)" fill="#343456"/>
        <path id="Trazado_59118" data-name="Trazado 59118" d="M817.459,270.682l7.681,108.484h5.123l10.061-103.211Z" transform="translate(-787.319 -196.895)" fill="#172e60"/>
        <path id="Trazado_59119" data-name="Trazado 59119" d="M818.024,279.081l-.245-3.468,12.794-2.412,9.685,2.234L830.2,378.646h-.706c.538-9.049,4.357-75.1,1.846-85.128C829.652,286.8,822.877,281.85,818.024,279.081Z" transform="translate(-787.253 -196.376)" fill="#12214a"/>
        <rect id="Rectángulo_5430" data-name="Rectángulo 5430" width="31.1" height="5.162" rx="1.443" transform="translate(53.224 86.469) rotate(-178.238)" fill="#fff"/>
        <path id="Trazado_59120" data-name="Trazado 59120" d="M817.394,235.533a6.6,6.6,0,0,0-6.437,5.183c-1.529,5.92-5.213,37.523.68,44.971,0,1.545,20.514,2.022,30.5,1.643,4.652-.023,4.052-17.839.458-41.83,0,0-.355-11.732-14.2-11.423Z" transform="translate(-789.186 -204.452)" fill="#ffe278"/>
        <path id="Trazado_59121" data-name="Trazado 59121" d="M817.394,235.372l3.93-.52a13.566,13.566,0,0,0-4,5.134c-2.352,6.23-3.572,32.595,3.5,34.986s7.071,8.62.841,7.927c-3.591-.4-3.318,1.923-2.445,3.962-4.428-.29-7.581-.73-7.581-1.336-5.893-7.448-2.209-39.051-.68-44.971A6.6,6.6,0,0,1,817.394,235.372Z" transform="translate(-789.186 -204.291)" fill="#ffda64"/>
        <path id="Trazado_59122" data-name="Trazado 59122" d="M834.482,282.525a6.821,6.821,0,0,1-1.142,2.909c1.585-.021,3.063-.054,4.36-.1,4.566-.023,4.07-17.191.653-40.512l-6.8-1.057s4.95,20.118,2.927,22.72-5.493,1.735-4.336,5.926S835.06,277.9,834.482,282.525Z" transform="translate(-784.748 -202.452)" fill="#ffda64"/>
        <path id="Trazado_59123" data-name="Trazado 59123" d="M828.072,234.924l12.986,36.121c.588,10.479.887,24.2,2.115,27.472l4.972.741c3.233-2.5,4.135-18.479,5.67-30.8l-9.556-20.174C841.023,236.406,830.537,233.244,828.072,234.924Z" transform="translate(-785.128 -204.363)" fill="#ffe278"/>
        <rect id="Rectángulo_5431" data-name="Rectángulo 5431" width="6.373" height="2.529" rx="0.719" transform="translate(5.588 85.039) rotate(34.461)" fill="#fff"/>
        <path id="Trazado_59124" data-name="Trazado 59124" d="M798.486,284.113s-2.2.975-3.328.574C795.158,284.687,796.261,286.224,798.486,284.113Z" transform="translate(-791.922 -194.123)" fill="#140f10" opacity="0.38" style="mix-blend-mode: overlay;isolation: isolate"/>
        <path id="Trazado_59125" data-name="Trazado 59125" d="M828.246,234.182s-.795,6.441-1.771,6.658S821.29,239,821.29,239s-.145,6.4-.5,6.5-.93.326-1.183,0,.433-6.5.433-6.5-2.385,1.589-3.18.433,1.86-4.19,1.86-4.19S825.318,232.256,828.246,234.182Z" transform="translate(-787.473 -204.563)" fill="#fff"/>
        <path id="Trazado_59126" data-name="Trazado 59126" d="M817.18,229.608l1.782,8.241s5.216.124,7.8-1.964l-3.424-7.469Z" transform="translate(-787.376 -205.619)" fill="#ff9a87"/>
        <path id="Trazado_59127" data-name="Trazado 59127" d="M818.169,234.183l-.989-4.575,6.157-1.192.876,1.911Z" transform="translate(-787.376 -205.619)" fill="#140f10" opacity="0.38" style="mix-blend-mode: overlay;isolation: isolate"/>
        <path id="Trazado_59128" data-name="Trazado 59128" d="M832.157,214.918c-.889-5.189-6.217-3.783-6.217-3.783-3.488-3.45-8.371-.671-11.49,1.839a6.236,6.236,0,1,0-1.688,9.428c1.647,1.164,5.7-.436,7.9-.706,2.476-.3,4.086,9.145,4.086,9.145l4.55-1.459S833.046,220.107,832.157,214.918Z" transform="translate(-790.211 -209.52)" fill="#343456"/>
        <path id="Trazado_59129" data-name="Trazado 59129" d="M832.117,214.918c-.889-5.189-6.217-3.783-6.217-3.783-3.488-3.45-8.371-.671-11.49,1.839a6.225,6.225,0,0,0-10.771,2.355,6.219,6.219,0,0,1,9.316.241c3.119-2.509,8-5.289,11.49-1.837,0,0,5.327-1.407,6.217,3.783.606,3.53-.935,8.945-1.982,12.051l.578-.185S833.006,220.107,832.117,214.918Z" transform="translate(-790.171 -209.52)" fill="#140f10" opacity="0.33" style="mix-blend-mode: overlay;isolation: isolate"/>
        <path id="Trazado_59130" data-name="Trazado 59130" d="M809.027,221.54s-.567,12.454,3.162,14.764,13-4.949,13-4.949,7.4-2.327,4.768-5.723-5.162-.724-5.162-.724,1.714-9.036-2.233-9.129-6.1,3.376-8.962,4.373S809.073,219.659,809.027,221.54Z" transform="translate(-789.066 -208.228)" fill="#ff9a87"/>
        <path id="Trazado_59131" data-name="Trazado 59131" d="M815.789,223.292a.81.81,0,0,1-.474,1.009c-.356.068-.72-.274-.813-.764a.808.808,0,0,1,.474-1.009C815.332,222.461,815.7,222.8,815.789,223.292Z" transform="translate(-787.934 -206.836)" fill="#202047"/>
        <path id="Trazado_59132" data-name="Trazado 59132" d="M811.011,224.2a.809.809,0,0,1-.475,1.009c-.355.068-.719-.274-.812-.764a.808.808,0,0,1,.474-1.009C810.554,223.372,810.918,223.713,811.011,224.2Z" transform="translate(-788.92 -206.648)" fill="#202047"/>
        <path id="Trazado_59133" data-name="Trazado 59133" d="M811.772,223.614l-1.257,3.576,2.6-.495a.782.782,0,0,0-.345-.72l-.565.074Z" transform="translate(-788.752 -206.611)" fill="#fc6b76"/>
        <g id="Grupo_29193" data-name="Grupo 29193" transform="translate(27.439 18.225)">
          <path id="Trazado_59134" data-name="Trazado 59134" d="M815.967,224.736a.134.134,0,0,1-.263.051.134.134,0,0,1,.263-.051Z" transform="translate(-815.121 -224.627)" fill="#fc6b76"/>
          <path id="Trazado_59135" data-name="Trazado 59135" d="M816.171,225.527a.134.134,0,1,1-.263.051.134.134,0,1,1,.263-.051Z" transform="translate(-815.079 -224.464)" fill="#fc6b76"/>
          <path id="Trazado_59136" data-name="Trazado 59136" d="M815.45,225.267a.116.116,0,0,1-.093.136.116.116,0,1,1,.093-.136Z" transform="translate(-815.22 -224.514)" fill="#fc6b76"/>
          <path id="Trazado_59137" data-name="Trazado 59137" d="M816.766,224.981a.171.171,0,1,1-.2-.136A.171.171,0,0,1,816.766,224.981Z" transform="translate(-814.971 -224.583)" fill="#fc6b76"/>
        </g>
        <g id="Grupo_29194" data-name="Grupo 29194" transform="translate(20.359 18.864)">
          <path id="Trazado_59138" data-name="Trazado 59138" d="M809.989,225.268a.115.115,0,1,0,.119-.112A.115.115,0,0,0,809.989,225.268Z" transform="translate(-809.219 -225.156)" fill="#fc6b76"/>
          <path id="Trazado_59139" data-name="Trazado 59139" d="M809.922,225.969a.117.117,0,0,0,.112.119.115.115,0,0,0,.007-.23A.116.116,0,0,0,809.922,225.969Z" transform="translate(-809.233 -225.011)" fill="#fc6b76"/>
          <path id="Trazado_59140" data-name="Trazado 59140" d="M810.5,225.651a.1.1,0,0,0,.1.1.1.1,0,0,0,.006-.2A.1.1,0,0,0,810.5,225.651Z" transform="translate(-809.115 -225.074)" fill="#fc6b76"/>
          <path id="Trazado_59141" data-name="Trazado 59141" d="M809.351,225.584a.148.148,0,1,0,.153-.144A.149.149,0,0,0,809.351,225.584Z" transform="translate(-809.351 -225.097)" fill="#fc6b76"/>
        </g>
        <path id="Trazado_59142" data-name="Trazado 59142" d="M813.463,221.65s2.964-1.894,4.455-.064l.316-.754s-2.784-1.7-4.718.3l-.456-.4Z" transform="translate(-788.227 -207.324)" fill="#343456"/>
        <path id="Trazado_59143" data-name="Trazado 59143" d="M811.9,222.266s-2.989-.729-3.233,1.379l-.568-.567s1.231-2.41,3.529-1.256l.146-.5Z" transform="translate(-789.251 -207.084)" fill="#343456"/>
        <path id="Trazado_59144" data-name="Trazado 59144" d="M811.754,229.01l5.333-1.6s.042,3.277-1.268,3.536C813.73,231.362,811.754,229.01,811.754,229.01Z" transform="translate(-788.496 -205.826)" fill="#343456"/>
        <path id="Trazado_59145" data-name="Trazado 59145" d="M816.595,228.663a2.09,2.09,0,0,0-.657-.18,2.116,2.116,0,0,0-2.322,1.888c0,.036,0,.072-.006.109a3.088,3.088,0,0,0,1.828.251C816.144,230.59,816.457,229.571,816.595,228.663Z" transform="translate(-788.113 -205.608)" fill="#fc6b76"/>
        <path id="Trazado_59146" data-name="Trazado 59146" d="M824.107,223.689a2,2,0,0,0-2,2,1.969,1.969,0,0,0,.031.308,1.544,1.544,0,1,1,2.234,1.667,2,2,0,0,0-.265-3.975Z" transform="translate(-786.359 -206.595)" fill="#140f10" opacity="0.38" style="mix-blend-mode: overlay;isolation: isolate"/>
        <rect id="Rectángulo_5432" data-name="Rectángulo 5432" width="6.01" height="2.291" rx="0.539" transform="translate(57.631 93.199) rotate(10.947)" fill="#fff"/>
      </g>
      <g id="Grupo_29199" data-name="Grupo 29199" transform="translate(0 9.458)">
        <path id="Trazado_59147" data-name="Trazado 59147" d="M758.7,289.336l.8,3.15c.057.538-.064,1.093-.536,1.159l-1.886-4.034,1.217,3.729a.653.653,0,0,1-.509.793l-1.579-3.815.644,2.8s.1.636-.425.777c-.62-.7-1.461-5.673-2.467-8.3l-1.986-2.751,2.677-1.969s7.821,5.131,7.719,6.361-3.158-.824-3.158-.824a11.578,11.578,0,0,1,1.682,4.431,1.916,1.916,0,0,1-.521,1.419Z" transform="translate(-681.168 -204.249)" fill="#fc8a7c"/>
        <path id="Trazado_59148" data-name="Trazado 59148" d="M755.291,284.657s2.061,1.235,3.234.977C758.525,285.634,757.244,287.024,755.291,284.657Z" transform="translate(-680.483 -203.469)" fill="#140f10" opacity="0.38" style="mix-blend-mode: overlay;isolation: isolate"/>
        <path id="Trazado_59149" data-name="Trazado 59149" d="M734.629,239.513s4.6-1.9,8.391,9.663,18.435,41.994,18.435,41.994l-3.7,2.661L742.26,270.418S723.891,245.519,734.629,239.513Z" transform="translate(-685.443 -212.811)" fill="#e33e4e"/>
        <path id="Trazado_59150" data-name="Trazado 59150" d="M748.9,274.634c-.941-2.824-.492-6.628.316-10.029-2.626-6-4.98-11.7-6.2-15.429-3.786-11.559-8.391-9.663-8.391-9.663-10.738,6.007,7.631,30.906,7.631,30.906l15.494,23.413,1.472-1.058C756.049,288,750.434,279.222,748.9,274.634Z" transform="translate(-685.443 -212.811)" fill="#bf2e43"/>
        <g id="Grupo_29196" data-name="Grupo 29196" transform="translate(25.274)">
          <path id="Trazado_59151" data-name="Trazado 59151" d="M754.3,232.5s3.64-8.024-2.809-12.454-21.39-4.18-21.726,6.858-2.918,7.807-8.246,11.653-.77,7.773-1.475,12.338-7.491.724-5.414,8.236,15.208,10.154,22.471,3.429,1.2-12.582,5.464-13.654,8.578-2.472,7.047-7.633S754.3,232.5,754.3,232.5Z" transform="translate(-714.232 -217.36)" fill="#343456"/>
          <path id="Trazado_59152" data-name="Trazado 59152" d="M717.8,259.976c-2.076-7.512,4.71-3.67,5.416-8.236s-3.853-8.493,1.474-12.338,7.91-.613,8.247-11.653c.25-8.214,8.587-10.452,15.5-9.235-7.2-2.624-18.376-1.14-18.667,8.392-.335,11.04-2.918,7.807-8.246,11.653s-.771,7.773-1.475,12.338-7.491.724-5.414,8.236c1.053,3.812,4.957,6.367,9.494,7.083C721.022,265.021,718.593,262.859,717.8,259.976Z" transform="translate(-714.232 -217.359)" fill="#140f10" opacity="0.24" style="mix-blend-mode: overlay;isolation: isolate"/>
        </g>
        <path id="Trazado_59153" data-name="Trazado 59153" d="M731.667,353.441V364.55H716.036l10.427-4.388.217-6.721Z" transform="translate(-688.585 -189.272)" fill="#ff9a87"/>
        <path id="Trazado_59154" data-name="Trazado 59154" d="M754.215,357.921l3.758,5.782,7.805,3.593h-9.54l-6.938-2.076,1.445-5.7-1.445-9.982h4.047Z" transform="translate(-681.719 -190.077)" fill="#ff9a87"/>
        <path id="Trazado_59155" data-name="Trazado 59155" d="M749.493,249.3c-3.368-4.178-6.122-6.737-7.218-7.933,0,0-6.918-4.986-12.578-1.752s3.024,24.436-1.755,29.556c-14.559,15.6-12.46,110.731-10.56,111.953,0,0,42.788,2.233,50.636.867,0,0-24.2-117.756-20.562-122.338S752.863,253.478,749.493,249.3Z" transform="translate(-688.585 -212.991)" fill="#e33e4e"/>
        <path id="Trazado_59156" data-name="Trazado 59156" d="M758.147,361.279l-2.169,2.093-6.938-2.093s-1.3.29,0,1.481l7.372,2.111h10.3S764.759,361.207,758.147,361.279Z" transform="translate(-681.893 -187.654)" fill="#12214a"/>
        <path id="Trazado_59157" data-name="Trazado 59157" d="M731.868,362.273h-7.815l-.472-2.172s-8.3-.972-8.516,3.8h16.8S733.494,363.032,731.868,362.273Z" transform="translate(-688.786 -187.914)" fill="#12214a"/>
        <path id="Trazado_59158" data-name="Trazado 59158" d="M725.235,335.817c2.6,11.793,16.793,34.46,16.793,34.46s-13.324-53.769-13.443-71.114-2.483-19.079,4.692-27.752.341-18.5-.4-22.512c-.519-2.822-3.622-3.05-2.152-5.674-2.062-.417,1.116-4.988-1.03-3.762-5.66,3.234,3.024,24.436-1.755,29.556-14.559,15.6-12.46,110.731-10.56,111.953,0,0,6.359.332,14.622.661C717.374,361.911,725.235,335.817,725.235,335.817Z" transform="translate(-688.585 -212.84)" fill="#bf2e43"/>
        <path id="Trazado_59159" data-name="Trazado 59159" d="M740.556,234.44l-2.8,8.573s-5.565-.44-8.083-2.944l4.461-7.571Z" transform="translate(-685.77 -214.235)" fill="#ff9a87"/>
        <path id="Trazado_59160" data-name="Trazado 59160" d="M738.077,240.894l2.107-6.454-6.42-1.943-2.287,3.881Z" transform="translate(-685.398 -214.235)" fill="#140f10" opacity="0.38" style="mix-blend-mode: overlay;isolation: isolate"/>
        <path id="Trazado_59161" data-name="Trazado 59161" d="M750.883,229.231s.049,12.146-8.194,13.672c-4.613.855-9.744-9.11-9.744-9.11s-8.042-2.005-4.593-5.043,5.569.279,5.569.279,1.944-6.464,6.109-5.767,3.8,1.4,6.607,3.024S750.549,226.389,750.883,229.231Z" transform="translate(-686.221 -216.152)" fill="#ff9a87"/>
        <path id="Trazado_59162" data-name="Trazado 59162" d="M739.726,229.267a.866.866,0,0,0,.3,1.156c.359.142.811-.144,1.007-.638a.866.866,0,0,0-.3-1.156C740.373,228.485,739.922,228.771,739.726,229.267Z" transform="translate(-683.715 -215.041)" fill="#333"/>
        <path id="Trazado_59163" data-name="Trazado 59163" d="M744.561,231.186a.864.864,0,0,0,.3,1.155c.361.144.812-.142,1.007-.638a.863.863,0,0,0-.3-1.155C745.208,230.4,744.757,230.69,744.561,231.186Z" transform="translate(-682.716 -214.645)" fill="#333"/>
        <path id="Trazado_59164" data-name="Trazado 59164" d="M743.612,230.626l.6,4.01-2.629-1.042a.838.838,0,0,1,.508-.686l.578.191Z" transform="translate(-683.312 -214.621)" fill="#fc6b76"/>
        <g id="Grupo_29197" data-name="Grupo 29197" transform="translate(54.112 16.022)">
          <path id="Trazado_59165" data-name="Trazado 59165" d="M739.024,230.73a.143.143,0,1,0,.186-.08A.142.142,0,0,0,739.024,230.73Z" transform="translate(-737.955 -230.641)" fill="#fc6b76"/>
          <path id="Trazado_59166" data-name="Trazado 59166" d="M738.65,231.52a.143.143,0,1,0,.186-.08A.143.143,0,0,0,738.65,231.52Z" transform="translate(-738.032 -230.478)" fill="#fc6b76"/>
          <path id="Trazado_59167" data-name="Trazado 59167" d="M739.452,231.392a.124.124,0,1,0,.16-.07A.123.123,0,0,0,739.452,231.392Z" transform="translate(-737.866 -230.502)" fill="#fc6b76"/>
          <path id="Trazado_59168" data-name="Trazado 59168" d="M738.149,230.829a.184.184,0,1,0,.239-.1A.185.185,0,0,0,738.149,230.829Z" transform="translate(-738.136 -230.626)" fill="#fc6b76"/>
        </g>
        <g id="Grupo_29198" data-name="Grupo 29198" transform="translate(61.62 18.084)">
          <path id="Trazado_59169" data-name="Trazado 59169" d="M745.189,232.492a.124.124,0,0,1-.142.1.126.126,0,0,1-.1-.142.124.124,0,0,1,.245.04Z" transform="translate(-744.239 -232.35)" fill="#fc6b76"/>
          <path id="Trazado_59170" data-name="Trazado 59170" d="M745.117,233.242a.123.123,0,0,1-.244-.039.123.123,0,1,1,.244.039Z" transform="translate(-744.253 -232.195)" fill="#fc6b76"/>
          <path id="Trazado_59171" data-name="Trazado 59171" d="M744.573,232.792a.108.108,0,1,1-.089-.123A.107.107,0,0,1,744.573,232.792Z" transform="translate(-744.359 -232.284)" fill="#fc6b76"/>
          <path id="Trazado_59172" data-name="Trazado 59172" d="M745.808,232.953a.159.159,0,1,1-.131-.181A.158.158,0,0,1,745.808,232.953Z" transform="translate(-744.125 -232.263)" fill="#fc6b76"/>
        </g>
        <path id="Trazado_59173" data-name="Trazado 59173" d="M743.72,228.1s-1.6-5.037-5.839-2.287l.347.664S740.61,223.932,743.72,228.1Z" transform="translate(-684.076 -215.784)" fill="#343456"/>
        <path id="Trazado_59174" data-name="Trazado 59174" d="M744.594,228.492s3.113-1.5,2.993,1.977l-.451.125S747.722,228.181,744.594,228.492Z" transform="translate(-682.691 -215.128)" fill="#343456"/>
        <path id="Trazado_59175" data-name="Trazado 59175" d="M739.274,232.781l2.092,3.467s-2.854,1.337-3.672-.327S739.274,232.781,739.274,232.781Z" transform="translate(-684.15 -214.177)" fill="#343456"/>
        <path id="Trazado_59176" data-name="Trazado 59176" d="M740.193,236.313c-.887.2-2.029.239-2.5-.718a1.6,1.6,0,0,1-.082-1.232A3.354,3.354,0,0,1,740.193,236.313Z" transform="translate(-684.15 -213.85)" fill="#fc6b76"/>
        <path id="Trazado_59177" data-name="Trazado 59177" d="M730.006,229.458a1.67,1.67,0,0,1,2.28-.616,1.718,1.718,0,0,1,.314.238,1.666,1.666,0,1,0-2.783,1.5A1.657,1.657,0,0,1,730.006,229.458Z" transform="translate(-685.849 -215.225)" fill="#140f10" opacity="0.76" style="mix-blend-mode: overlay;isolation: isolate"/>
        <path id="Trazado_59178" data-name="Trazado 59178" d="M697.98,282.689l-3.205.519c-.543.01-1.085-.158-1.11-.635l4.183-1.529-3.821.889a.652.652,0,0,1-.744-.575l3.937-1.244-2.848.4s-.641.045-.737-.491c.753-.557,5.779-.963,8.485-1.738l2.912-1.74,1.73,2.837s-5.791,7.347-7.007,7.138,1.094-3.075,1.094-3.075a11.574,11.574,0,0,1-4.56,1.291,1.912,1.912,0,0,1-1.368-.642Z" transform="translate(-693.282 -205.143)" fill="#ff9a87"/>
        <path id="Trazado_59179" data-name="Trazado 59179" d="M735.84,239.265s-4.218-2.647-9.9,8.1-25.331,38.67-25.331,38.67l2.881,3.251,19.606-20.856S745.408,247,735.84,239.265Z" transform="translate(-691.77 -212.898)" fill="#e33e4e"/>
      </g>
      <g id="Grupo_29201" data-name="Grupo 29201" transform="translate(74.316 67.306)">
        <path id="Trazado_59180" data-name="Trazado 59180" d="M773.518,361.825v1.287s-4.224-.982-5.1,1.615h7.649l.343-2.9v-1.886Z" transform="translate(-752.09 -245.778)" fill="#343456"/>
        <path id="Trazado_59181" data-name="Trazado 59181" d="M769.558,313.214c-1.375,23.7-1.788,53.053,3.8,58.676h2.887c5.466-6.96,4.387-35.857,6.03-57.923Z" transform="translate(-752.035 -255.422)" fill="#6b6bd6"/>
        <path id="Trazado_59182" data-name="Trazado 59182" d="M769.474,313.214c-.141,2.435-.273,4.931-.389,7.453a15.423,15.423,0,0,1,9.3,11.771c1.983,9.733-2.016,31.575-3.592,39.452h1.374c5.466-6.96,4.386-35.857,6.03-57.923Z" transform="translate(-751.952 -255.422)" fill="#140f10" opacity="0.38" style="mix-blend-mode: overlay;isolation: isolate"/>
        <path id="Trazado_59183" data-name="Trazado 59183" d="M787.3,362.173v1.288s4.224-.983,5.1,1.614h-7.649l-.341-2.9v-1.884Z" transform="translate(-748.788 -245.706)" fill="#343456"/>
        <path id="Trazado_59184" data-name="Trazado 59184" d="M790.927,312.375c1.375,23.7,3.216,54.065-2.375,59.688h-2.887c-5.466-6.96-5.656-35.778-7.3-57.845Z" transform="translate(-750.036 -255.595)" fill="#6b6bd6"/>
        <path id="Trazado_59185" data-name="Trazado 59185" d="M782.119,313.554a22.334,22.334,0,0,1,3.98,8.217c2.948,10.186,2.421,35.9-1.361,50.074.052.071.1.152.152.218h2.887c5.592-5.623,3.751-35.99,2.375-59.688Z" transform="translate(-749.262 -255.595)" fill="#140f10" opacity="0.38" style="mix-blend-mode: overlay;isolation: isolate"/>
        <path id="Trazado_59186" data-name="Trazado 59186" d="M773.607,287.023,760.888,299.07s-.434,7.155,5.095,11.708l5.746-4.879Z" transform="translate(-753.646 -260.828)" fill="#62cca2"/>
        <path id="Trazado_59187" data-name="Trazado 59187" d="M781.585,276.607a1.34,1.34,0,0,0-.755-.072,1.34,1.34,0,0,1-.308,2.538c.019.008.035.021.054.028a1.345,1.345,0,0,0,1.009-2.494Z" transform="translate(-749.591 -262.998)" opacity="0.35" style="mix-blend-mode: overlay;isolation: isolate"/>
        <path id="Trazado_59188" data-name="Trazado 59188" d="M780.851,284.629c-1.666.347-8.109-.092-10.625,5.587s-1.532,21.873-1.532,30.559c0,0,20.089,2.749,25.292,1.232C793.987,322.007,802.664,280.086,780.851,284.629Z" transform="translate(-752.072 -261.393)" fill="#62cca2"/>
        <path id="Trazado_59189" data-name="Trazado 59189" d="M776.628,265.333c-.6.022-3.485-.084-5.335,1.994s.414,4.212-.685,5.68-3.608,1.188-4.055,5.533,4.376,9.623,15.172,10.362,9.476-3.947,8.473-6.229,3.639-3.924,3.291-8.546S787.083,264.946,776.628,265.333Z" transform="translate(-752.481 -265.31)" fill="#343456"/>
        <path id="Trazado_59190" data-name="Trazado 59190" d="M790.2,282.669c-.438-.994.2-1.868,1.024-2.918-.333-5.347-5.5-3.963-5.5-3.963-2.777-.115-3.033-5.06-3.033-5.06-3.35.255-5.136-3.115-5.956-5.4h-.1c-.6.022-3.485-.084-5.335,1.994s.414,4.212-.685,5.68-3.607,1.188-4.055,5.533,4.376,9.623,15.172,10.362S791.2,284.95,790.2,282.669Z" transform="translate(-752.481 -265.306)" fill="#140f10" opacity="0.31" style="mix-blend-mode: overlay;isolation: isolate"/>
        <path id="Trazado_59191" data-name="Trazado 59191" d="M783.334,286.5c-1.375,1.53-2.172,6.278-6.162,5.294a2.646,2.646,0,0,1-.122-3.882l-2.278-9.113a.154.154,0,0,1,.112-.187l6.1-1.525a.154.154,0,0,1,.187.113l2.279,9.112A.156.156,0,0,1,783.334,286.5Z" transform="translate(-750.779 -262.879)" fill="#ff9a87"/>
        <g id="Grupo_29200" data-name="Grupo 29200" transform="translate(23.988 14.207)" opacity="0.38" style="mix-blend-mode: overlay;isolation: isolate">
          <path id="Trazado_59192" data-name="Trazado 59192" d="M782.981,284.461l-1.814-7.257a.154.154,0,0,0-.187-.113l-6.1,1.525a.154.154,0,0,0-.112.187l2.049,8.2Z" transform="translate(-774.767 -277.086)" fill="#140f10"/>
          <path id="Trazado_59193" data-name="Trazado 59193" d="M776.089,287.023a2.78,2.78,0,0,0,.637,2.549Z" transform="translate(-774.515 -275.035)" fill="#140f10"/>
        </g>
        <path id="Trazado_59194" data-name="Trazado 59194" d="M774.552,269.107s-4.534,6.694-4.31,10.85,7.061,7.17,11.165,5.449,4.18-4.163,4.18-4.163,3.823.052,3.182-2.917-3.987-.758-3.987-.758l-1.572-.376s-3.14-2.438-2.552-5.446A5.151,5.151,0,0,1,774.552,269.107Z" transform="translate(-751.715 -264.526)" fill="#ff9a87"/>
        <path id="Trazado_59195" data-name="Trazado 59195" d="M780.712,276.154s-.457-3.073-4.13-2.755l-.312.539A6.812,6.812,0,0,1,780.712,276.154Z" transform="translate(-750.469 -263.645)" fill="#343456"/>
        <path id="Trazado_59196" data-name="Trazado 59196" d="M771.331,272.964a1.8,1.8,0,0,1,3.18-.439l.024.623A3.049,3.049,0,0,0,771.331,272.964Z" transform="translate(-751.488 -263.987)" fill="#343456"/>
        <path id="Trazado_59197" data-name="Trazado 59197" d="M774.557,274.768s-1.987,1.919-1.807,2.6,1.659.52,1.659.52A9.63,9.63,0,0,0,774.557,274.768Z" transform="translate(-751.198 -263.358)" fill="#fc6b76"/>
        <path id="Trazado_59198" data-name="Trazado 59198" d="M772.335,278.265l6.319.927S776.221,284.83,772.335,278.265Z" transform="translate(-751.281 -262.636)" fill="#343456"/>
        <path id="Trazado_59199" data-name="Trazado 59199" d="M777.107,280.617a2.312,2.312,0,0,0-1.048-.844,2.171,2.171,0,0,0-2.352.411C775.148,281.569,776.306,281.272,777.107,280.617Z" transform="translate(-750.998 -262.361)" fill="#fc6b76"/>
        <path id="Trazado_59200" data-name="Trazado 59200" d="M782.908,284.737l-5.535,5.6s1.954,2.643,4.339,2.48S783.344,285.217,782.908,284.737Z" transform="translate(-750.241 -261.3)" fill="#f2f2f2"/>
        <path id="Trazado_59201" data-name="Trazado 59201" d="M777.336,286.063l.169,3.882a5.4,5.4,0,0,1-3.709,1.572C771.614,291.463,775.533,286.624,777.336,286.063Z" transform="translate(-751.113 -261.026)" fill="#f2f2f2"/>
        <circle id="Elipse_2755" data-name="Elipse 2755" cx="0.786" cy="0.786" r="0.786" transform="translate(26.109 11.52)" fill="#343456"/>
        <path id="Trazado_59202" data-name="Trazado 59202" d="M773.424,274.663a.786.786,0,1,1-.785-.787A.785.785,0,0,1,773.424,274.663Z" transform="translate(-751.381 -263.542)" fill="#343456"/>
        <path id="Trazado_59203" data-name="Trazado 59203" d="M759.8,290.492c.577-.423,1.679-1.346,1.787-2.276,0,0,.939-.759.939-1.157s-.252-.867-.831-.65c0,0,.247-1.1-.7-1.059,0,0,.09-1.326-1.1-1.181,0,0,.145-1.085-.8-1.266s-2.494,3.18-2.783,3.4-1.192-.65-1.409.036,1.951,3.649,1.951,3.649h0c-.527,3.4-2.676,19.48,3.8,20.236,0,0,3.273.373,4.382-.9C765.984,308.228,761.151,294.314,759.8,290.492Z" transform="translate(-754.883 -261.68)" fill="#ff9a87"/>
        <path id="Trazado_59204" data-name="Trazado 59204" d="M758.425,305.645c-2.232-3.449-.992-15.969-.992-15.969s-.294-5.689,1.658-6.774c-.94-.18-2.494,3.18-2.783,3.4s-1.192-.65-1.409.036,1.951,3.649,1.951,3.649h0c-.527,3.4-2.676,19.48,3.8,20.236,0,0,3.273.373,4.382-.9C765.028,309.324,760.657,309.094,758.425,305.645Z" transform="translate(-754.883 -261.68)" fill="#140f10" opacity="0.38" style="mix-blend-mode: overlay;isolation: isolate"/>
        <path id="Trazado_59205" data-name="Trazado 59205" d="M786.825,291.458s-5.776,7.184-2.093,12.965c3.093,4.856,1.862,12.461.4,16.572a22.673,22.673,0,0,0,5.757-.452s3.312-16.007.695-27.166C789.973,291.962,788.313,291.1,786.825,291.458Z" transform="translate(-748.976 -259.93)" fill="#140f10" opacity="0.17" style="mix-blend-mode: overlay;isolation: isolate"/>
        <path id="Trazado_59206" data-name="Trazado 59206" d="M785.134,285.1s-1.157,6.889-.289,10.791,6.241,13.876,6.241,13.876l10.467-9.344S792.192,286.2,785.134,285.1Z" transform="translate(-748.766 -261.225)" fill="#62cca2"/>
        <path id="Trazado_59207" data-name="Trazado 59207" d="M796.424,290.492c-.577-.423-1.679-1.346-1.787-2.276,0,0-.939-.759-.939-1.157s.252-.867.831-.65c0,0-.247-1.1.7-1.059,0,0-.09-1.326,1.1-1.181,0,0-.145-1.085.8-1.266s2.494,3.18,2.782,3.4,1.193-.65,1.41.036-1.951,3.649-1.951,3.649h0c.527,3.4,2.676,19.48-3.8,20.236,0,0-3.273.373-4.382-.9C790.238,308.228,795.07,294.314,796.424,290.492Z" transform="translate(-747.414 -261.68)" fill="#ff9a87"/>
        <path id="Trazado_59208" data-name="Trazado 59208" d="M797.776,305.645c2.232-3.449.992-15.969.992-15.969s.294-5.689-1.658-6.774c.94-.18,2.494,3.18,2.782,3.4s1.193-.65,1.41.036-1.951,3.649-1.951,3.649h0c.527,3.4,2.676,19.48-3.8,20.236,0,0-3.273.373-4.382-.9C791.173,309.324,795.544,309.094,797.776,305.645Z" transform="translate(-747.393 -261.68)" fill="#140f10" opacity="0.38" style="mix-blend-mode: overlay;isolation: isolate"/>
      </g>
    </g>
    <g id="Grupo_29203" data-name="Grupo 29203" transform="translate(702.818 226.852)">
      <circle id="Elipse_2756" data-name="Elipse 2756" cx="1.814" cy="1.814" r="1.814" transform="matrix(0.183, -0.983, 0.983, 0.183, 63.691, 3.568)" fill="#badfff"/>
      <circle id="Elipse_2757" data-name="Elipse 2757" cx="2.575" cy="2.575" r="2.575" transform="translate(208.059 14.479)" fill="#badfff"/>
      <path id="Trazado_59209" data-name="Trazado 59209" d="M884.936,249.171a2.135,2.135,0,1,1-2.134-2.135A2.135,2.135,0,0,1,884.936,249.171Z" transform="translate(-663.607 -219.109)" fill="none" stroke="#badfff" stroke-miterlimit="10" stroke-width="1"/>
      <circle id="Elipse_2758" data-name="Elipse 2758" cx="1.345" cy="1.345" r="1.345" transform="translate(171.353 101.625)" fill="none" stroke="#badfff" stroke-miterlimit="10" stroke-width="1"/>
      <path id="Trazado_59210" data-name="Trazado 59210" d="M702.242,266.993a.749.749,0,1,1-.749-.748A.749.749,0,0,1,702.242,266.993Z" transform="translate(-700.744 -215.144)" fill="#badfff"/>
      <path id="Trazado_59211" data-name="Trazado 59211" d="M707.483,251.019a2.587,2.587,0,1,1-2.587-2.587A2.587,2.587,0,0,1,707.483,251.019Z" transform="translate(-700.421 -218.821)" fill="none" stroke="#badfff" stroke-miterlimit="10" stroke-width="1"/>
    </g>
    <g id="Grupo_29204" data-name="Grupo 29204" transform="translate(778.379 215.028)">
      <path id="Trazado_59212" data-name="Trazado 59212" d="M782.928,219.722a32.386,32.386,0,0,1,4.022-3.827c5.9-3.957,13.035-1.17,15.367,5.878,1.372,4.146.328,7.932-1.807,11.509-3.082,5.161-7.5,9.053-12.257,12.585-1.442,1.069-2.948,2.055-4.463,3.022a1.27,1.27,0,0,1-1.1.113c-6.375-4.049-12.281-8.639-16.488-15.045-2.181-3.32-3.413-6.933-2.554-10.99,1.135-5.37,5.341-9.007,10.357-8.836a10.411,10.411,0,0,1,8.266,4.506c.273.367.527.749.794,1.122C783.085,219.781,783.132,219.78,782.928,219.722Z" transform="translate(-763.377 -214.086)" fill="#e33e4e"/>
      <path id="Trazado_59213" data-name="Trazado 59213" d="M784.653,231.524a4.168,4.168,0,0,1-8.335,0c0-2.3,4.167-7.294,4.167-7.294S784.653,229.222,784.653,231.524Z" transform="translate(-760.706 -211.992)" fill="#fff"/>
    </g>
  </g>
</svg>
