<svg xmlns="http://www.w3.org/2000/svg" width="180.139" height="139" viewBox="0 0 180.139 139">
  <g id="Grupo_29124" data-name="Grupo 29124" transform="translate(-164.689 -267.062)">
    <circle id="Elipse_2753" data-name="Elipse 2753" cx="65.844" cy="65.844" r="65.844" transform="translate(184.796 267.062)" fill="#c5dbee" opacity="0.47"/>
    <g id="Grupo_29119" data-name="Grupo 29119" transform="translate(164.689 273.468)">
      <g id="Grupo_29114" data-name="Grupo 29114" transform="translate(16.609 0)">
        <rect id="Rectángulo_5402" data-name="Rectángulo 5402" width="1.944" height="9.697" transform="translate(3.877)" fill="#cce0fb"/>
        <rect id="Rectángulo_5403" data-name="Rectángulo 5403" width="1.944" height="9.697" transform="translate(9.697 3.877) rotate(90)" fill="#cce0fb"/>
      </g>
      <g id="Grupo_29115" data-name="Grupo 29115" transform="translate(0 80.604)">
        <rect id="Rectángulo_5404" data-name="Rectángulo 5404" width="3.239" height="16.156" transform="translate(6.458)" fill="#cce0fb"/>
        <rect id="Rectángulo_5405" data-name="Rectángulo 5405" width="3.239" height="16.156" transform="translate(16.156 6.458) rotate(90)" fill="#cce0fb"/>
      </g>
      <g id="Grupo_29116" data-name="Grupo 29116" transform="translate(153.652 64.006)">
        <rect id="Rectángulo_5406" data-name="Rectángulo 5406" width="3.239" height="16.156" transform="matrix(-0.001, -1, 1, -0.001, 0.003, 9.703)" fill="#cce0fb"/>
        <rect id="Rectángulo_5407" data-name="Rectángulo 5407" width="3.239" height="16.156" transform="translate(6.46)" fill="#cce0fb"/>
      </g>
      <g id="Grupo_29117" data-name="Grupo 29117" transform="translate(17.435 104.367)">
        <rect id="Rectángulo_5408" data-name="Rectángulo 5408" width="1.719" height="8.574" transform="translate(3.428)" fill="#cce0fb"/>
        <rect id="Rectángulo_5409" data-name="Rectángulo 5409" width="1.719" height="8.574" transform="translate(8.574 3.428) rotate(90)" fill="#cce0fb"/>
      </g>
      <g id="Grupo_29118" data-name="Grupo 29118" transform="translate(171.564 45.049)">
        <rect id="Rectángulo_5410" data-name="Rectángulo 5410" width="1.719" height="8.574" transform="matrix(-0.001, -1, 1, -0.001, 0.001, 5.15)" fill="#cce0fb"/>
        <rect id="Rectángulo_5411" data-name="Rectángulo 5411" width="1.719" height="8.574" transform="translate(3.428)" fill="#cce0fb"/>
      </g>
    </g>
    <g id="Grupo_29122" data-name="Grupo 29122" transform="translate(190.456 291.583)">
      <path id="Trazado_58785" data-name="Trazado 58785" d="M237.17,328.361H212.365l-7.6,33.251H229.57Z" transform="translate(-163.999 -247.501)" fill="#dfccbf"/>
      <path id="Trazado_58786" data-name="Trazado 58786" d="M238.485,328.361H213.679l-7.6,33.251h24.806Z" transform="translate(-163.131 -247.501)" fill="#efe6ca"/>
      <path id="Trazado_58787" data-name="Trazado 58787" d="M233.138,348.161l4.526-19.8H212.858l-5.535,24.217Z" transform="translate(-162.31 -247.501)" fill="#efe6de"/>
      <rect id="Rectángulo_5412" data-name="Rectángulo 5412" width="37.897" height="4.401" transform="translate(42.721 110.077)" fill="#dfccbf"/>
      <rect id="Rectángulo_5413" data-name="Rectángulo 5413" width="27.75" height="4.401" transform="translate(54.09 110.077)" fill="#fff"/>
      <path id="Trazado_58788" data-name="Trazado 58788" d="M277.256,286.465H185.587a5.377,5.377,0,0,0-5.347,5.94l7.346,69.681a5.378,5.378,0,0,0,5.347,4.813H284.6a5.376,5.376,0,0,0,5.346-5.94L282.6,291.276A5.373,5.373,0,0,0,277.256,286.465Z" transform="translate(-180.21 -275.16)" fill="#efe6ca"/>
      <path id="Trazado_58789" data-name="Trazado 58789" d="M180.894,298.609c15.441-3.473,34.167-4.463,54.076-2.253,18.656,2.072,35.681,6.656,49.518,12.8L282.6,291.276a5.373,5.373,0,0,0-5.346-4.811H185.587a5.377,5.377,0,0,0-5.347,5.94Z" transform="translate(-180.21 -275.16)" fill="#fff"/>
      <path id="Trazado_58790" data-name="Trazado 58790" d="M280.238,286.465H188.569a5.375,5.375,0,0,0-5.346,5.94l7.345,69.681a5.378,5.378,0,0,0,5.347,4.813h91.669a5.375,5.375,0,0,0,5.346-5.94l-7.345-69.683A5.376,5.376,0,0,0,280.238,286.465Z" transform="translate(-178.241 -275.16)" fill="#fff"/>
      <path id="Trazado_58791" data-name="Trazado 58791" d="M285.585,291.276a5.378,5.378,0,0,0-5.347-4.811H188.569a5.375,5.375,0,0,0-5.346,5.94l6.649,63.494H292.354Z" transform="translate(-178.241 -275.16)" fill="#3d312e"/>
      <path id="Trazado_58792" data-name="Trazado 58792" d="M281.043,288.967h-96.27l6.752,65.28H287.8Z" transform="translate(-177.198 -273.509)" fill="#aacce9"/>
      <path id="Trazado_58793" data-name="Trazado 58793" d="M231.259,288.967H204.543c.043.654.07,1.316.07,1.986,0,12.407-7.635,22.464-17.053,22.464-.427,0-.848-.028-1.268-.068l4.23,40.9h85.241S252.29,299.3,231.259,288.967Z" transform="translate(-176.195 -273.509)" fill="#cae4f9"/>
      <path id="Trazado_58794" data-name="Trazado 58794" d="M250.561,307.921c-6.171-5.718-17.6-11-22.127-11s-20.782,8.191-23.962,12.959c-3.933,5.9-11.857,39.119-11.857,39.119h78.238C266.942,337.75,255.573,312.568,250.561,307.921Z" transform="translate(-172.02 -268.259)" fill="#fff"/>
      <path id="Trazado_58795" data-name="Trazado 58795" d="M216.274,299.643c-5.142,2.675-10.179,6-11.8,8.437-3.933,5.9-11.857,39.119-11.857,39.119h17.377C202.269,329.935,205.219,310.931,216.274,299.643Z" transform="translate(-172.02 -266.461)" fill="#efe6ca"/>
      <path id="Trazado_58796" data-name="Trazado 58796" d="M218.195,296.735c-1.864,0-5.817,1.7-9.933,3.671,5.077,12.619,18.031,21.941,18.031,21.941s6.083-12.041,7.116-19.464C228.309,299.343,221.293,296.735,218.195,296.735Z" transform="translate(-161.69 -268.38)" fill="#7857a3"/>
      <path id="Trazado_58797" data-name="Trazado 58797" d="M233.264,302.786c-5.087-3.49-12-6.051-15.07-6.051-1.864,0-5.817,1.7-9.933,3.671.017.041.037.081.053.121,2.2,4.119,7.733,8.4,13.7,8.4C226.813,308.929,231.551,306.545,233.264,302.786Z" transform="translate(-161.69 -268.38)" fill="#66468e"/>
      <path id="Trazado_58798" data-name="Trazado 58798" d="M211.645,303.53s1.386-10.1,3.677-15.31L225.5,289.8l.642,14.854C224.946,310.425,214.678,312.626,211.645,303.53Z" transform="translate(-159.457 -274.002)" fill="#d27558"/>
      <path id="Trazado_58799" data-name="Trazado 58799" d="M222.494,299.7a40.215,40.215,0,0,0,4.28-14.12l-5.258-3.606Z" transform="translate(-152.94 -278.127)" fill="#401f43"/>
      <path id="Trazado_58800" data-name="Trazado 58800" d="M213.8,307.962c-1.6-9.093.564-23.236,4.9-25s11.132,1.021,11.982,5.467-.574,18.8-2.826,22.32C226.59,312.732,214.644,312.779,213.8,307.962Z" transform="translate(-158.381 -277.823)" fill="#edb984"/>
      <path id="Trazado_58801" data-name="Trazado 58801" d="M228.328,332.159l18.948,13.509h1.956c.593-13.831,1.409-27.345.184-38.08l-8.435-5.625C235.437,311.483,231.4,322.593,228.328,332.159Z" transform="translate(-148.443 -264.929)" fill="#fff"/>
      <ellipse id="Elipse_2754" data-name="Elipse 2754" cx="9.535" cy="0.413" rx="9.535" ry="0.413" transform="translate(55.375 84.833)" fill="#92796f"/>
      <path id="Trazado_58802" data-name="Trazado 58802" d="M212.467,303.722l2.357-2.459s1.941-12,4.418-13.668c3.179-2.138,4.906,2.306,9.842,2.2a8.852,8.852,0,0,0,5.195-2.263s-6.845-11.49-16.615-6.717C209.1,281.238,212.467,303.722,212.467,303.722Z" transform="translate(-159.346 -279.656)" fill="#401f43"/>
      <path id="Trazado_58803" data-name="Trazado 58803" d="M213.93,296.211l2.5,1.946s0-11.59,2.568-13.336c0,0-.6-3.3-3.349-.691S213.93,296.211,213.93,296.211Z" transform="translate(-158.074 -277.366)" fill="#401f43"/>
      <path id="Trazado_58804" data-name="Trazado 58804" d="M216.112,292.3c-.39-2.06-1.652-3.722-2.862-3.656-1.272.07-1.941,2-1.444,4.252.48,2.18,1.848,3.682,3.013,3.425C215.929,296.079,216.492,294.3,216.112,292.3Z" transform="translate(-159.459 -273.721)" fill="#edb984"/>
      <path id="Trazado_58805" data-name="Trazado 58805" d="M214.906,291.868c-.231-1.22-.978-2.2-1.692-2.163-.754.04-1.149,1.185-.857,2.515.284,1.29,1.094,2.178,1.783,2.027C214.8,294.1,215.132,293.051,214.906,291.868Z" transform="translate(-159.05 -273.023)" fill="#d27558"/>
      <path id="Trazado_58806" data-name="Trazado 58806" d="M214.491,292.229c-.148-.782-.628-1.414-1.087-1.39-.483.027-.737.762-.548,1.615.183.828.7,1.4,1.144,1.3C214.422,293.663,214.636,292.989,214.491,292.229Z" transform="translate(-158.699 -272.273)" fill="#edb984"/>
      <path id="Trazado_58807" data-name="Trazado 58807" d="M235.949,306.265a13.968,13.968,0,0,0,8.435,5.625s3.131-5.99,2.152-8.862-6.493-7.58-6.493-7.58S237.048,298.869,235.949,306.265Z" transform="translate(-143.411 -269.231)" fill="#e79b69"/>
      <path id="Trazado_58808" data-name="Trazado 58808" d="M236.624,304.069c.8-5.824,4.089-12.28,4.634-12.573s2.387.176,2.46,1-1.693,7.572-1.693,7.572C240.851,303.326,238.879,304.134,236.624,304.069Z" transform="translate(-142.966 -271.896)" fill="#edb984"/>
      <path id="Trazado_58809" data-name="Trazado 58809" d="M238.767,299.031c.473-2.464,1.893-3.259,3.055-2.465s.613,3.2-.06,4.3S238.461,300.62,238.767,299.031Z" transform="translate(-141.567 -268.688)" fill="#edb984"/>
      <path id="Trazado_58810" data-name="Trazado 58810" d="M236.277,302.378c.591-3.94,2.049-5.211,3.173-3.94s.46,5.113-.266,6.872S235.9,304.92,236.277,302.378Z" transform="translate(-143.22 -267.569)" fill="#edb984"/>
      <path id="Trazado_58811" data-name="Trazado 58811" d="M239.476,298.421c2.924,2.052,3.868,4.26,2.927,5.2s-3.792-1.164-5.1-2.643A1.681,1.681,0,0,1,239.476,298.421Z" transform="translate(-142.831 -267.521)" fill="#edb984"/>
      <path id="Trazado_58812" data-name="Trazado 58812" d="M240.051,299.923c.473-2.464,1.893-3.259,3.055-2.465s.613,3.2-.06,4.3S239.745,301.512,240.051,299.923Z" transform="translate(-140.72 -268.099)" fill="#edb984"/>
      <path id="Trazado_58813" data-name="Trazado 58813" d="M240.928,301.792c.4-2.517,1.585-3.475,2.558-2.812s.513,3.128-.05,4.3S240.673,303.416,240.928,301.792Z" transform="translate(-140.138 -267.033)" fill="#edb984"/>
      <path id="Trazado_58814" data-name="Trazado 58814" d="M208.53,334.365h4.034c-2.474-3.87-3.611-9.334-4.34-15.282C208.335,324.528,208.437,329.693,208.53,334.365Z" transform="translate(-161.715 -253.626)" fill="#efe6ca"/>
      <path id="Trazado_58815" data-name="Trazado 58815" d="M247.552,334.53H230.927l-2.17-15.7C232.1,327.732,238.032,333.378,247.552,334.53Z" transform="translate(-148.16 -253.791)" fill="#efe6ca"/>
      <path id="Trazado_58816" data-name="Trazado 58816" d="M210.8,314.983l11.369-.244,1.162,7.709-12.286.115Z" transform="translate(-160.013 -256.494)" fill="#e6d2a5"/>
      <path id="Trazado_58817" data-name="Trazado 58817" d="M213.573,312.879l2.439-.129.249,4.053-2.636.06Z" transform="translate(-158.184 -257.807)" fill="#e6d2a5"/>
      <path id="Trazado_58818" data-name="Trazado 58818" d="M211.264,314.945l10.41-.234,1.064,7.373-11.25.11Z" transform="translate(-159.708 -256.513)" fill="#fbf2e0"/>
      <g id="Grupo_29121" data-name="Grupo 29121" transform="translate(59.905 14.439)">
        <g id="Grupo_29120" data-name="Grupo 29120">
          <path id="Trazado_58819" data-name="Trazado 58819" d="M218.763,292.114c-.028-.923-.4-1.659-.818-1.645s-.747.774-.719,1.7.4,1.659.82,1.644S218.791,293.036,218.763,292.114Z" transform="translate(-215.679 -286.957)" fill="#5a4949"/>
          <path id="Trazado_58820" data-name="Trazado 58820" d="M223.223,292.79c.128-.915-.11-1.7-.531-1.76s-.865.636-.993,1.549.11,1.7.531,1.76S223.095,293.7,223.223,292.79Z" transform="translate(-212.748 -286.588)" fill="#5a4949"/>
          <path id="Trazado_58821" data-name="Trazado 58821" d="M219.919,288.369l-3.043.676a.769.769,0,0,0-.574.853l.111.769a.641.641,0,0,0,.779.551l3.045-.677a.767.767,0,0,0,.574-.852l-.111-.769A.642.642,0,0,0,219.919,288.369Z" transform="translate(-216.293 -288.353)" fill="#744937"/>
          <path id="Trazado_58822" data-name="Trazado 58822" d="M224.507,289.748l-2.437-.847c-.3-.1-.606.118-.684.5l-.156.752a.76.76,0,0,0,.4.877l2.439.847c.3.1.606-.12.684-.5l.156-.752A.759.759,0,0,0,224.507,289.748Z" transform="translate(-213.046 -288.009)" fill="#744937"/>
        </g>
        <path id="Trazado_58823" data-name="Trazado 58823" d="M220.851,292.491s-.143.133-.344.35c.3,1.406.455,3.7-1.509,2.842,0,.056-.018.116-.015.173C222.172,297.844,221.188,293.407,220.851,292.491Z" transform="translate(-214.518 -285.622)" fill="#d27558"/>
        <path id="Trazado_58824" data-name="Trazado 58824" d="M223.3,296.151a3.593,3.593,0,0,1-.088.485,3.151,3.151,0,0,1-3.719,2.382,3.025,3.025,0,0,1-2.044-3.468Z" transform="translate(-215.556 -283.602)" fill="#443239"/>
        <path id="Trazado_58825" data-name="Trazado 58825" d="M222.09,297.6a2.294,2.294,0,0,0,.525-.956,2.579,2.579,0,0,0,.056-.372l-5.049-.6a2.546,2.546,0,0,0,.246,1.409Z" transform="translate(-215.426 -283.522)" fill="#f4e9d6"/>
      </g>
    </g>
    <g id="Grupo_29123" data-name="Grupo 29123" transform="translate(285.132 271.195)">
      <path id="Trazado_58826" data-name="Trazado 58826" d="M253.221,309.985a16.062,16.062,0,0,1-15.984-16.1c0-10.848,14.425-25.514,15.04-26.131a1.37,1.37,0,0,1,1.891,0c.614.618,15.04,15.284,15.04,26.131A16.063,16.063,0,0,1,253.221,309.985Z" transform="translate(-237.237 -267.375)" fill="#bf2e43"/>
      <path id="Trazado_58827" data-name="Trazado 58827" d="M250.841,295.825h-.888a3.112,3.112,0,0,1-3.108-3.109V290.5h-2.22a3.112,3.112,0,0,1-3.11-3.108V286.5a3.112,3.112,0,0,1,3.11-3.108h2.22v-2.22a3.112,3.112,0,0,1,3.108-3.11h.888a3.112,3.112,0,0,1,3.108,3.11v2.22h2.22a3.112,3.112,0,0,1,3.11,3.108v.888a3.112,3.112,0,0,1-3.11,3.108h-2.22v2.22A3.112,3.112,0,0,1,250.841,295.825Z" transform="translate(-234.412 -260.319)" fill="#efe6ca"/>
      <path id="Trazado_58828" data-name="Trazado 58828" d="M253.221,267.375a1.326,1.326,0,0,0-.945.379c-.614.618-15.04,15.284-15.04,26.131a16.062,16.062,0,0,0,15.984,16.1v-7.1h-.443a3.112,3.112,0,0,1-3.108-3.109v-2.22h-2.22a3.112,3.112,0,0,1-3.11-3.108v-.888a3.112,3.112,0,0,1,3.11-3.108h2.22v-2.22a3.112,3.112,0,0,1,3.108-3.11h.443Z" transform="translate(-237.237 -267.375)" fill="#e33e4e"/>
      <path id="Trazado_58829" data-name="Trazado 58829" d="M250.4,278.063h-.443a3.112,3.112,0,0,0-3.108,3.11v2.22h-2.22a3.112,3.112,0,0,0-3.11,3.108v.888a3.112,3.112,0,0,0,3.11,3.108h2.22v2.22a3.112,3.112,0,0,0,3.108,3.109h.443Z" transform="translate(-234.412 -260.319)" fill="#fff"/>
    </g>
  </g>
</svg>
