<svg xmlns="http://www.w3.org/2000/svg" width="42.71" height="42.71" viewBox="0 0 42.71 42.71">
  <g id="Grupo_29153" data-name="Grupo 29153" transform="translate(-759.423 -126.503)">
    <g id="Grupo_29138" data-name="Grupo 29138">
      <g id="Grupo_29137" data-name="Grupo 29137">
        <path id="Trazado_58835" data-name="Trazado 58835" d="M788.286,153.114a.833.833,0,0,0-.834.834V159.7a4.176,4.176,0,0,1-4.171,4.171h-9.007a.834.834,0,0,0-.834.833v1.659l-1.991-1.991a.834.834,0,0,0-.765-.5h-5.421a4.175,4.175,0,0,1-4.17-4.171V146.857a4.175,4.175,0,0,1,4.17-4.171h8.426a.834.834,0,0,0,0-1.668h-8.426a5.846,5.846,0,0,0-5.839,5.839V159.7a5.846,5.846,0,0,0,5.839,5.839h4.994l3.426,3.426a.834.834,0,0,0,1.424-.589l0-2.837h8.173a5.845,5.845,0,0,0,5.839-5.839v-5.756A.833.833,0,0,0,788.286,153.114Z" fill="#e33e4e"/>
      </g>
    </g>
    <g id="Grupo_29140" data-name="Grupo 29140">
      <g id="Grupo_29139" data-name="Grupo 29139">
        <path id="Trazado_58836" data-name="Trazado 58836" d="M790.009,126.5H787.9a12.125,12.125,0,1,0,0,24.249h2.111a12.145,12.145,0,0,0,3.077-.394l3.119,3.117a.835.835,0,0,0,1.424-.59v-4.827a12.245,12.245,0,0,0,3.187-3.929,12,12,0,0,0,1.317-5.5A12.138,12.138,0,0,0,790.009,126.5Zm6.284,20.482a.836.836,0,0,0-.332.667v3.22l-2.042-2.041a.834.834,0,0,0-.835-.207,10.455,10.455,0,0,1-3.075.46H787.9a10.456,10.456,0,0,1,0-20.912h2.111a10.456,10.456,0,0,1,6.284,18.813Z" fill="#e33e4e"/>
      </g>
    </g>
    <g id="Grupo_29142" data-name="Grupo 29142">
      <g id="Grupo_29141" data-name="Grupo 29141">
        <path id="Trazado_58837" data-name="Trazado 58837" d="M792.71,135.631a3.532,3.532,0,0,0-7.055.249.834.834,0,0,0,1.669,0,1.863,1.863,0,0,1,2-1.859,1.864,1.864,0,0,1,.275,3.677,1.578,1.578,0,0,0-1.243,1.547v2a.834.834,0,1,0,1.668,0v-1.937A3.513,3.513,0,0,0,792.71,135.631Z" fill="#e33e4e"/>
      </g>
    </g>
    <g id="Grupo_29144" data-name="Grupo 29144">
      <g id="Grupo_29143" data-name="Grupo 29143">
        <path id="Trazado_58838" data-name="Trazado 58838" d="M789.777,143.959a.836.836,0,1,0,.244.59A.842.842,0,0,0,789.777,143.959Z" fill="#e33e4e"/>
      </g>
    </g>
    <g id="Grupo_29146" data-name="Grupo 29146">
      <g id="Grupo_29145" data-name="Grupo 29145">
        <path id="Trazado_58839" data-name="Trazado 58839" d="M782.363,152.363h-17.6a.834.834,0,1,0,0,1.668h17.6a.834.834,0,1,0,0-1.668Z" fill="#e33e4e"/>
      </g>
    </g>
    <g id="Grupo_29148" data-name="Grupo 29148">
      <g id="Grupo_29147" data-name="Grupo 29147">
        <path id="Trazado_58840" data-name="Trazado 58840" d="M782.953,157.279a.834.834,0,1,0,.244.59A.841.841,0,0,0,782.953,157.279Z" fill="#e33e4e"/>
      </g>
    </g>
    <g id="Grupo_29150" data-name="Grupo 29150">
      <g id="Grupo_29149" data-name="Grupo 29149">
        <path id="Trazado_58841" data-name="Trazado 58841" d="M779.082,157.034h-14.32a.835.835,0,0,0,0,1.669h14.32a.835.835,0,0,0,0-1.669Z" fill="#e33e4e"/>
      </g>
    </g>
    <g id="Grupo_29152" data-name="Grupo 29152">
      <g id="Grupo_29151" data-name="Grupo 29151">
        <path id="Trazado_58842" data-name="Trazado 58842" d="M776.941,147.692H764.762a.834.834,0,1,0,0,1.668h12.179a.834.834,0,1,0,0-1.668Z" fill="#e33e4e"/>
      </g>
    </g>
  </g>
</svg>
