<svg id="Grupo_29037" data-name="Grupo 29037" xmlns="http://www.w3.org/2000/svg" width="85.258" height="85.259" viewBox="0 0 85.258 85.259">
  <path id="Trazado_58498" data-name="Trazado 58498" d="M393.412,102.832a42.66,42.66,0,0,1-56.485,40.328c-.015-.006-.033-.011-.049-.018a42.63,42.63,0,0,1,13.9-82.939q2.145,0,4.236.209a42.376,42.376,0,0,1,17.207,5.57,42.832,42.832,0,0,1,14.422,13.8q.353.545.687,1.1a42.391,42.391,0,0,1,6.018,19.668Q393.41,101.683,393.412,102.832Z" transform="translate(-308.154 -60.203)" fill="#dce6f4"/>
  <path id="Trazado_58499" data-name="Trazado 58499" d="M357.5,133.4l-20.69,1.808a42.668,42.668,0,0,1-28.477-35.686l4.284-12,25.4-7.015c-2.509.936,26.969,20.065,26.969,20.065S358.372,136.04,357.5,133.4Z" transform="translate(-308.084 -52.266)" fill="#62cca2"/>
  <path id="Trazado_58500" data-name="Trazado 58500" d="M377.761,113.428l-3.564,9.983a42.687,42.687,0,0,1-45.358,11.608l3.806-10.662a9.382,9.382,0,0,0,5.65,5.574c.032.013.064.024.1.033l.011.006a9.4,9.4,0,0,0,6.737-17.545c-.152-.064-.3-.122-.456-.178a9.373,9.373,0,0,0-7.969.711l4.489-12.578s3.693-7.909,4.643-10.708c0,0,19.007-9.958,23.643-8.506C374.613,82.773,377.761,113.428,377.761,113.428Z" transform="translate(-300.066 -52.063)" fill="#6b6bd6"/>
  <path id="Trazado_58501" data-name="Trazado 58501" d="M384.561,97.245l-7.5,21.018-12.58-4.492a9.376,9.376,0,0,0,5.575-5.647l.026-.075v-.006a9.4,9.4,0,0,0-17.532-6.766c-.058.14-.115.28-.167.423a.19.19,0,0,0-.013.033,9.381,9.381,0,0,0,.712,7.971l-12.58-4.489,4.585-12.843a9.382,9.382,0,0,1-8.114.957c-.159-.054-.316-.113-.474-.178a9.4,9.4,0,0,1,6.669-17.575c.024.007.046.015.067.024a9.37,9.37,0,0,1,5.732,5.9l4.585-12.843,24.994,8.923A42.391,42.391,0,0,1,384.561,97.245Z" transform="translate(-299.362 -56.898)" fill="#ffe278"/>
  <path id="Trazado_58502" data-name="Trazado 58502" d="M335.907,112.506a9.386,9.386,0,0,0-.779-8.588l12.84,4.583,4.492-12.579a9.4,9.4,0,1,1,4.067-11.4l4.492-12.579L328.894,60.478a4.706,4.706,0,0,0-6.015,2.85L311.413,95.454l12.84,4.583a9.4,9.4,0,1,0,11.654,12.469Z" transform="translate(-306.88 -60.203)" fill="#e33e4e"/>
</svg>
