<svg xmlns="http://www.w3.org/2000/svg" width="107" height="107" viewBox="0 0 107 107">
  <g id="Grupo_29185" data-name="Grupo 29185" transform="translate(-287 -927)">
    <g id="Grupo_29184" data-name="Grupo 29184" transform="translate(-354.522 809.486)">
      <g id="Grupo_29180" data-name="Grupo 29180" transform="translate(653.522 132.514)">
        <path id="Trazado_58934" data-name="Trazado 58934" d="M707.608,181.017l1.094,5.9a38.165,38.165,0,0,0,6.7-10.489L707.661,181A.14.14,0,0,1,707.608,181.017Z" transform="translate(-642.177 -123.302)" fill="#dce6f4"/>
        <path id="Trazado_58935" data-name="Trazado 58935" d="M678.395,194.792h-.311a38.019,38.019,0,0,0,16.894-.008l-16.57.006Z" transform="translate(-648.37 -119.453)" fill="#dce6f4"/>
        <path id="Trazado_58936" data-name="Trazado 58936" d="M672.473,146.573a4.667,4.667,0,0,1,4.649,4.659v3.826h0v2.951a5.007,5.007,0,0,1,6.206-.132,5.059,5.059,0,0,1,8.38-.094l7.009-7.026a.874.874,0,0,1,1.238,0,11.147,11.147,0,0,1,3.093,6.008,9.036,9.036,0,0,1,9.581-1.864.286.286,0,0,1,.1.064.293.293,0,0,1,.064.1,9.076,9.076,0,0,1-.143,7,5.3,5.3,0,0,1,2.828-.826,5.341,5.341,0,0,1,5.2,6.617,8.278,8.278,0,0,1,5.364.248.27.27,0,0,1,.149.149,8.351,8.351,0,0,1-.933,7.878h1.175a.84.84,0,0,1,.838.84,30.722,30.722,0,0,1-.225,3.607,38.139,38.139,0,0,0-66.575-33.785,4.555,4.555,0,0,1,1.315-.214Z" transform="translate(-652.065 -132.514)" fill="#dce6f4"/>
        <path id="Trazado_58937" data-name="Trazado 58937" d="M658.59,185.03V148.347a38.148,38.148,0,0,0-.494,37.112C658.256,185.311,658.422,185.17,658.59,185.03Z" transform="translate(-653.522 -129.193)" fill="#dce6f4"/>
        <path id="Trazado_58938" data-name="Trazado 58938" d="M660.721,179.136c0-1.111,2.282-2.012,5.1-2.012a11.2,11.2,0,0,1,2.724.327,30.255,30.255,0,0,1-.911-7.386.839.839,0,0,1,.838-.84h1.466a5.164,5.164,0,0,1-.037-.583,5.339,5.339,0,0,1,1.088-3.236H657.711v16.046a12.338,12.338,0,0,1,3.145-1.879A.9.9,0,0,1,660.721,179.136Z" transform="translate(-652.643 -125.615)" fill="#a2dff9"/>
        <path id="Trazado_58939" data-name="Trazado 58939" d="M677.7,152.62v-3.826a4.667,4.667,0,0,0-4.649-4.659H662.36a4.555,4.555,0,0,0-1.315.214,38.226,38.226,0,0,0-3.334,4.881v3.39Z" transform="translate(-652.643 -130.076)" fill="#a2dff9"/>
        <path id="Trazado_58940" data-name="Trazado 58940" d="M674.234,154.1v-2.951h0V154.1Z" transform="translate(-649.178 -128.605)" fill="#6b6bd6"/>
        <path id="Trazado_58941" data-name="Trazado 58941" d="M673.657,166.521a5.019,5.019,0,0,1,2.434-6.794,4.984,4.984,0,0,1-.22-.835A5.045,5.045,0,0,1,677.7,154.1v-2.951H657.711V168.4h13.273A5.35,5.35,0,0,1,673.657,166.521Z" transform="translate(-652.643 -128.605)" fill="#6b6bd6"/>
        <path id="Trazado_58942" data-name="Trazado 58942" d="M687.206,157.539a5.065,5.065,0,0,1,2.87,1.219,1.2,1.2,0,0,1,1.593.085l1.179,1.183a1.182,1.182,0,0,1,.227.381,5.272,5.272,0,0,1,1.734-.455,9.083,9.083,0,0,1,2.646-6.154c.056-.056.12-.1.177-.154a11.146,11.146,0,0,0-3.093-6.008.874.874,0,0,0-1.237,0l-7.009,7.026a5,5,0,0,1,.842,2.014A5.1,5.1,0,0,1,687.206,157.539Zm8.047-.974a1.216,1.216,0,0,1-1.216,1.216h-1.668a1.216,1.216,0,1,1,0-2.432h1.668A1.216,1.216,0,0,1,695.253,156.566Zm-3.98-4.217,1.181-1.183a1.216,1.216,0,0,1,1.72,1.718l-1.181,1.183a1.216,1.216,0,1,1-1.72-1.718Z" transform="translate(-646.649 -129.396)" fill="#e33e4e"/>
        <path id="Trazado_58943" data-name="Trazado 58943" d="M691.005,159.435a5.331,5.331,0,0,1,1.414-.954,1.184,1.184,0,0,0-.227-.381l-1.18-1.183a1.2,1.2,0,0,0-1.593-.085A5.033,5.033,0,0,1,691.005,159.435Z" transform="translate(-645.992 -127.468)" fill="#bf2e43"/>
        <path id="Trazado_58944" data-name="Trazado 58944" d="M691.526,153.968a1.216,1.216,0,1,0,0,2.432h1.668a1.216,1.216,0,0,0,0-2.432Z" transform="translate(-645.806 -128.014)" fill="#bf2e43"/>
        <path id="Trazado_58945" data-name="Trazado 58945" d="M691.331,153.829a1.215,1.215,0,0,0,.86-.357l1.181-1.183a1.216,1.216,0,0,0-1.72-1.718l-1.181,1.183a1.216,1.216,0,0,0,.86,2.075Z" transform="translate(-645.846 -128.801)" fill="#bf2e43"/>
        <path id="Trazado_58946" data-name="Trazado 58946" d="M696.066,153.262a8.9,8.9,0,0,0-2.6,6.019v0c.116-.007.227-.035.347-.035a5.3,5.3,0,0,1,1.884.359l4.091-4.1a1.216,1.216,0,0,1,1.721,1.717L697.74,161a5.332,5.332,0,0,1,1.189,2.135,4.416,4.416,0,0,1,.517.317,4.59,4.59,0,0,1,3.961-2.053,5.361,5.361,0,0,1,2.32-3.11,9.076,9.076,0,0,0,.143-7,.293.293,0,0,0-.064-.1.287.287,0,0,0-.1-.064,9.036,9.036,0,0,0-9.581,1.864c.01.058.031.112.04.171C696.133,153.2,696.1,153.228,696.066,153.262Z" transform="translate(-645.145 -128.744)" fill="#62cca2"/>
        <path id="Trazado_58947" data-name="Trazado 58947" d="M693.332,158.867c.052,0,.1-.012.156-.016v0a8.9,8.9,0,0,1,2.6-6.019c.033-.034.068-.065.1-.1-.009-.058-.03-.113-.04-.171-.057.054-.121.1-.177.154A9.082,9.082,0,0,0,693.332,158.867Z" transform="translate(-645.172 -128.31)" fill="#62cca2"/>
        <path id="Trazado_58948" data-name="Trazado 58948" d="M697.353,160.191l3.765-3.773A1.216,1.216,0,0,0,699.4,154.7l-4.091,4.1A5.319,5.319,0,0,1,697.353,160.191Z" transform="translate(-644.758 -127.935)" fill="#8befc4"/>
        <path id="Trazado_58949" data-name="Trazado 58949" d="M701.731,160.2a4.568,4.568,0,0,1,4.309,3.78,4.467,4.467,0,0,1,.067.777,4.56,4.56,0,0,1,1.933.638c.123-.143.247-.286.381-.42a8.284,8.284,0,0,1,3.6-2.1,5.34,5.34,0,0,0-5.2-6.617,5.3,5.3,0,0,0-2.828.826,9.04,9.04,0,0,1-1.87,2.784C702,159.985,701.859,160.082,701.731,160.2Z" transform="translate(-643.41 -127.535)" fill="#ffc502"/>
        <path id="Trazado_58950" data-name="Trazado 58950" d="M701.682,160.046c.021,0,.039.006.059.007.128-.115.269-.212.391-.334a9.04,9.04,0,0,0,1.87-2.784A5.361,5.361,0,0,0,701.682,160.046Z" transform="translate(-643.42 -127.391)" fill="#ffc502"/>
        <path id="Trazado_58951" data-name="Trazado 58951" d="M671.573,163.964c-.008,0-.012.016-.021.018a5.107,5.107,0,0,0-.755.306c-.1.051-.193.114-.292.171-.131.076-.264.149-.386.235s-.227.18-.339.273c-.087.074-.178.143-.26.221-.111.108-.213.225-.315.342a5.178,5.178,0,0,0-1.29,3.415,5,5,0,0,0,.036.565c0,.006-.006.011-.006.017h8.128a8.359,8.359,0,0,1-.968-2.93A5.063,5.063,0,0,1,671.573,163.964Z" transform="translate(-650.503 -125.917)" fill="#ffc502"/>
        <path id="Trazado_58952" data-name="Trazado 58952" d="M671.073,163.964h0c-.008,0-.012.016-.021.019a5.11,5.11,0,0,0-.755.306,5.11,5.11,0,0,1,.755-.306C671.061,163.98,671.065,163.968,671.073,163.964Z" transform="translate(-650.003 -125.917)" fill="#ffc502"/>
        <path id="Trazado_58953" data-name="Trazado 58953" d="M669.738,164.608c.122-.086.255-.158.386-.235C669.993,164.449,669.86,164.521,669.738,164.608Z" transform="translate(-650.121 -125.831)" fill="#ffc502"/>
        <path id="Trazado_58954" data-name="Trazado 58954" d="M669.243,165.014c.082-.079.173-.148.26-.221C669.416,164.867,669.325,164.936,669.243,165.014Z" transform="translate(-650.224 -125.743)" fill="#ffc502"/>
        <path id="Trazado_58955" data-name="Trazado 58955" d="M667.981,169.239a5,5,0,0,1-.036-.565,5.178,5.178,0,0,1,1.29-3.415c-.053.06-.114.115-.163.178h-.2a5.339,5.339,0,0,0-1.088,3.236,5.164,5.164,0,0,0,.037.583h.154C667.975,169.25,667.981,169.245,667.981,169.239Z" transform="translate(-650.531 -125.646)" fill="#ffc502"/>
        <path id="Trazado_58956" data-name="Trazado 58956" d="M669.458,164.84c.111-.093.22-.19.339-.273C669.677,164.65,669.569,164.747,669.458,164.84Z" transform="translate(-650.179 -125.791)" fill="#ffc502"/>
        <path id="Trazado_58957" data-name="Trazado 58957" d="M670.057,164.4c.1-.057.19-.12.292-.171C670.247,164.282,670.155,164.347,670.057,164.4Z" transform="translate(-650.054 -125.861)" fill="#ffc502"/>
        <path id="Trazado_58958" data-name="Trazado 58958" d="M668.983,165.318c.1-.117.2-.235.315-.342C669.185,165.084,669.085,165.2,668.983,165.318Z" transform="translate(-650.279 -125.705)" fill="#ffc502"/>
        <path id="Trazado_58959" data-name="Trazado 58959" d="M669.046,165.553c.1-.117.2-.235.315-.342.082-.079.173-.148.26-.221.111-.093.219-.19.339-.273s.255-.158.386-.235c.1-.056.19-.121.292-.171a5.108,5.108,0,0,1,.755-.306c.008,0,.012-.015.021-.019-.022-.041-.037-.087-.057-.129a5.35,5.35,0,0,0-2.672,1.875h.2C668.932,165.668,668.993,165.614,669.046,165.553Z" transform="translate(-650.342 -125.94)" fill="#ffc502"/>
        <path id="Trazado_58960" data-name="Trazado 58960" d="M707.417,164c-.11.111-.225.236-.353.382a4.55,4.55,0,0,1,2.026,3.057c.012.065.011.128.018.192l1.643-1.646a1.216,1.216,0,1,1,1.721,1.718l-2.352,2.357h5.359a8.351,8.351,0,0,0,.933-7.878.27.27,0,0,0-.149-.149,8.278,8.278,0,0,0-5.364-.248c-.012.051-.018.1-.031.154A8.124,8.124,0,0,0,707.417,164Z" transform="translate(-642.291 -126.445)" fill="#62cca2"/>
        <path id="Trazado_58961" data-name="Trazado 58961" d="M706.946,164.244c.047.027.1.047.143.076.128-.146.243-.271.353-.382a8.124,8.124,0,0,1,3.451-2.061c.013-.05.019-.1.031-.154a8.284,8.284,0,0,0-3.6,2.1C707.193,163.959,707.069,164.1,706.946,164.244Z" transform="translate(-642.316 -126.387)" fill="#62cca2"/>
        <path id="Trazado_58962" data-name="Trazado 58962" d="M708.469,169.331h1.357l2.352-2.357a1.216,1.216,0,1,0-1.721-1.718l-1.643,1.646A4.53,4.53,0,0,1,708.469,169.331Z" transform="translate(-641.997 -125.721)" fill="#8befc4"/>
        <path id="Trazado_58963" data-name="Trazado 58963" d="M675,154.189h0a4.964,4.964,0,0,0-1.432,2.034,4.87,4.87,0,0,0-.238,2.548,4.8,4.8,0,0,0,.214.808.17.17,0,0,1,0,.117.16.16,0,0,1-.082.085,4.893,4.893,0,0,0-2.367,6.57c0,.008,0,.017,0,.025l.006,0a4.88,4.88,0,0,0,3.43,2.651,8.339,8.339,0,0,1,.52-4.044.269.269,0,0,1,.149-.149,8.305,8.305,0,0,1,8.953,1.845,10.969,10.969,0,0,1-.077-1.238.875.875,0,0,1,.875-.876h8.313c0-.059-.007-.119-.007-.179a5.352,5.352,0,0,1,1.609-3.829c-.021-.021-.051-.031-.058-.06a4.833,4.833,0,0,0-.814-1.694,4.883,4.883,0,0,0-3.5-1.984.164.164,0,0,1-.149-.161,4.909,4.909,0,0,0-.858-2.772l.105-.105a5.059,5.059,0,0,0-8.38.094,5.007,5.007,0,0,0-6.206.132v.184Zm12.358,5.236a3.551,3.551,0,0,1,2.03,1.934,1.216,1.216,0,0,1-2.238.951,1.091,1.091,0,0,0-.633-.6,1.112,1.112,0,0,0-1.428.656,1.216,1.216,0,0,1-1.14.794,1.238,1.238,0,0,1-.423-.076,1.218,1.218,0,0,1-.717-1.563A3.55,3.55,0,0,1,687.353,159.425Zm-7.475-3.392h.062a3.866,3.866,0,0,1,2.787,1.255,1.216,1.216,0,0,1-1.8,1.639,1.409,1.409,0,0,0-1.029-.463,1.432,1.432,0,0,0-1.454,1.4,1.214,1.214,0,0,1-1.215,1.194h-.021a1.214,1.214,0,0,1-1.2-1.235A3.866,3.866,0,0,1,679.878,156.033Z" transform="translate(-649.939 -128.511)" fill="#368c0e"/>
        <path id="Trazado_58964" data-name="Trazado 58964" d="M670.987,160.782a4.9,4.9,0,0,1,2.386-2.4.161.161,0,0,0,.082-.085.163.163,0,0,1-.081.085A4.894,4.894,0,0,0,670.987,160.782Z" transform="translate(-649.859 -127.107)" fill="#368c0e"/>
        <path id="Trazado_58965" data-name="Trazado 58965" d="M673.05,155.774a4.964,4.964,0,0,1,1.432-2.034h0A4.956,4.956,0,0,0,673.05,155.774Z" transform="translate(-649.426 -128.062)" fill="#368c0e"/>
        <path id="Trazado_58966" data-name="Trazado 58966" d="M670.674,163.236a4.869,4.869,0,0,0,.411,1.279c0,.008,0,.017,0,.025h0c0-.008,0-.017,0-.025a4.824,4.824,0,0,1-.018-4.165A4.868,4.868,0,0,0,670.674,163.236Z" transform="translate(-649.939 -126.675)" fill="#368c0e"/>
        <path id="Trazado_58967" data-name="Trazado 58967" d="M672.866,157.969a4.811,4.811,0,0,0,.214.809.166.166,0,0,1,0,.116.17.17,0,0,0,0-.117,4.8,4.8,0,0,1-.214-.808,4.87,4.87,0,0,1,.238-2.548A4.872,4.872,0,0,0,672.866,157.969Z" transform="translate(-649.48 -127.709)" fill="#368c0e"/>
        <path id="Trazado_58968" data-name="Trazado 58968" d="M674.234,153.772h0v-.184h0Z" transform="translate(-649.178 -128.094)" fill="#368c0e"/>
        <path id="Trazado_58969" data-name="Trazado 58969" d="M671.114,165.934a4.936,4.936,0,0,1,2.369-6.57.163.163,0,0,0,.081-.085.166.166,0,0,0,0-.116,4.811,4.811,0,0,1-.214-.809,4.872,4.872,0,0,1,.238-2.548,4.956,4.956,0,0,1,1.432-2.034v-.184a5.045,5.045,0,0,0-1.829,4.793,4.984,4.984,0,0,0,.22.835,5.019,5.019,0,0,0-2.434,6.794c.045-.015.087-.038.133-.051C671.112,165.951,671.118,165.942,671.114,165.934Z" transform="translate(-649.967 -128.094)" fill="#368c0e"/>
        <path id="Trazado_58970" data-name="Trazado 58970" d="M686.99,155.444a4.848,4.848,0,0,1,.071.834.164.164,0,0,0,.149.161,4.882,4.882,0,0,1,3.5,1.984,4.912,4.912,0,0,0-.756-.834l.011-.01a.984.984,0,0,1,.126-.083,5.065,5.065,0,0,0-2.87-1.219,5.092,5.092,0,0,0-.073-.861,5,5,0,0,0-.842-2.014l-.105.105A4.884,4.884,0,0,1,686.99,155.444Z" transform="translate(-646.667 -128.133)" fill="#368c0e"/>
        <path id="Trazado_58971" data-name="Trazado 58971" d="M690.746,159.246a4.857,4.857,0,0,0-.815-1.694,4.833,4.833,0,0,1,.814,1.694c.007.029.038.04.058.06h0C690.784,159.286,690.752,159.275,690.746,159.246Z" transform="translate(-645.885 -127.262)" fill="#368c0e"/>
        <path id="Trazado_58972" data-name="Trazado 58972" d="M690.934,159.467c.029-.028.064-.05.094-.077a5.033,5.033,0,0,0-1.586-2.6.984.984,0,0,0-.126.083l-.011.01a4.912,4.912,0,0,1,.756.834,4.857,4.857,0,0,1,.815,1.694C690.884,159.435,690.915,159.446,690.934,159.467Z" transform="translate(-646.016 -127.423)" fill="#368c0e"/>
        <path id="Trazado_58973" data-name="Trazado 58973" d="M671.018,163.923h0a.159.159,0,0,1-.079.073,5.063,5.063,0,0,0,3.535,2.634l-.022-.167a4.88,4.88,0,0,1-3.43-2.651l-.006,0a.161.161,0,0,1,0,.109Z" transform="translate(-649.869 -125.949)" fill="#368c0e"/>
        <path id="Trazado_58974" data-name="Trazado 58974" d="M671.018,163.9h0a.156.156,0,0,1-.079.071h0A.159.159,0,0,0,671.018,163.9Z" transform="translate(-649.869 -125.93)" fill="#368c0e"/>
        <path id="Trazado_58975" data-name="Trazado 58975" d="M671,163.923h0a.161.161,0,0,0,0-.109h0A.154.154,0,0,1,671,163.923Z" transform="translate(-649.856 -125.949)" fill="#368c0e"/>
        <path id="Trazado_58976" data-name="Trazado 58976" d="M671.028,163.923a.154.154,0,0,0,0-.109c-.046.013-.088.036-.133.051.019.042.035.088.057.129A.156.156,0,0,0,671.028,163.923Z" transform="translate(-649.879 -125.949)" fill="#368c0e"/>
        <path id="Trazado_58977" data-name="Trazado 58977" d="M676.274,160.294h.021a1.214,1.214,0,0,0,1.215-1.194,1.432,1.432,0,0,1,1.454-1.4,1.409,1.409,0,0,1,1.029.463,1.216,1.216,0,0,0,1.8-1.639A3.866,3.866,0,0,0,679,155.265h-.062a3.866,3.866,0,0,0-3.86,3.795A1.214,1.214,0,0,0,676.274,160.294Z" transform="translate(-649 -127.742)" fill="#89c947"/>
        <path id="Trazado_58978" data-name="Trazado 58978" d="M681.419,161.761a1.238,1.238,0,0,0,.423.076,1.216,1.216,0,0,0,1.14-.794,1.112,1.112,0,0,1,1.428-.656,1.091,1.091,0,0,1,.633.6,1.216,1.216,0,0,0,2.238-.951,3.541,3.541,0,0,0-6.579.157A1.218,1.218,0,0,0,681.419,161.761Z" transform="translate(-647.837 -127.192)" fill="#89c947"/>
        <path id="Trazado_58979" data-name="Trazado 58979" d="M710.739,169.674a4,4,0,0,0,.085-.394c.015-.092.021-.185.028-.277.011-.117.021-.235.022-.353,0-.1,0-.2-.011-.3a4.577,4.577,0,0,0-.048-.5,4.434,4.434,0,0,0-3.956-3.637.164.164,0,0,1-.149-.161,4.439,4.439,0,0,0-.064-.751,4.4,4.4,0,0,0-4.263-3.651c.007-.028.021-.054.028-.082a9.033,9.033,0,0,1-4.322,2.1,5.344,5.344,0,0,1,.105,1.039c0,.06,0,.12-.007.179h1.631a.875.875,0,0,1,.875.876,11.173,11.173,0,0,1-2.216,6.683h12a4.452,4.452,0,0,0,.213-.553C710.707,169.823,710.721,169.748,710.739,169.674Z" transform="translate(-644.174 -126.838)" fill="#368c0e"/>
        <path id="Trazado_58980" data-name="Trazado 58980" d="M702.432,159.588c.007-.028.019-.053.027-.081a4.59,4.59,0,0,0-3.961,2.053,4.427,4.427,0,0,0-.517-.317,4.533,4.533,0,0,1,.128.443A9.032,9.032,0,0,0,702.432,159.588Z" transform="translate(-644.197 -126.852)" fill="#368c0e"/>
        <path id="Trazado_58981" data-name="Trazado 58981" d="M701.637,159.669a4.4,4.4,0,0,1,4.263,3.651,4.439,4.439,0,0,1,.064.751.164.164,0,0,0,.149.161,4.373,4.373,0,0,1,1.855.6l-.013-.011c.034-.04.071-.077.105-.116a4.56,4.56,0,0,0-1.933-.638,4.467,4.467,0,0,0-.067-.777,4.568,4.568,0,0,0-4.309-3.78c-.028.025-.058.048-.086.074C701.658,159.615,701.644,159.641,701.637,159.669Z" transform="translate(-643.43 -126.851)" fill="#368c0e"/>
        <path id="Trazado_58982" data-name="Trazado 58982" d="M701.746,159.514c-.021,0-.039-.006-.059-.007-.007.028-.019.053-.027.081C701.688,159.563,701.718,159.54,701.746,159.514Z" transform="translate(-643.425 -126.852)" fill="#368c0e"/>
        <path id="Trazado_58983" data-name="Trazado 58983" d="M708.63,167.6a4,4,0,0,1-.085.394A4,4,0,0,0,708.63,167.6Z" transform="translate(-641.981 -125.155)" fill="#368c0e"/>
        <path id="Trazado_58984" data-name="Trazado 58984" d="M708.66,167.076c0,.119-.011.236-.022.353C708.649,167.312,708.659,167.195,708.66,167.076Z" transform="translate(-641.961 -125.265)" fill="#368c0e"/>
        <path id="Trazado_58985" data-name="Trazado 58985" d="M706.962,163.947a.156.156,0,0,1-.082-.023l-.01,0a4.4,4.4,0,0,1,2.1,3.034,4.577,4.577,0,0,1,.048.5c0-.065,0-.129-.007-.194l.137-.138c-.007-.064-.006-.127-.018-.192a4.55,4.55,0,0,0-2.026-3.057l-.021.022A.161.161,0,0,1,706.962,163.947Z" transform="translate(-642.332 -125.937)" fill="#368c0e"/>
        <path id="Trazado_58986" data-name="Trazado 58986" d="M708.325,168.659h0a4.453,4.453,0,0,0,.213-.553A4.453,4.453,0,0,1,708.325,168.659Z" transform="translate(-642.027 -125.048)" fill="#368c0e"/>
        <path id="Trazado_58987" data-name="Trazado 58987" d="M706.872,163.934l.01,0a.157.157,0,0,0,.082.023.161.161,0,0,0,.122-.056l.021-.022c-.046-.029-.1-.05-.143-.076-.034.039-.071.076-.105.116Z" transform="translate(-642.334 -125.95)" fill="#368c0e"/>
        <path id="Trazado_58988" data-name="Trazado 58988" d="M708.647,166.83c.006.1.011.2.011.3C708.658,167.028,708.653,166.929,708.647,166.83Z" transform="translate(-641.959 -125.316)" fill="#368c0e"/>
        <path id="Trazado_58989" data-name="Trazado 58989" d="M708.643,167.368c-.007.092-.013.185-.028.277C708.63,167.553,708.636,167.46,708.643,167.368Z" transform="translate(-641.966 -125.203)" fill="#368c0e"/>
        <path id="Trazado_58990" data-name="Trazado 58990" d="M708.554,167.923c-.018.074-.031.149-.053.221C708.523,168.072,708.536,168,708.554,167.923Z" transform="translate(-641.99 -125.087)" fill="#368c0e"/>
        <path id="Trazado_58991" data-name="Trazado 58991" d="M708.715,166.887c.006.1.011.2.011.3,0,.119-.011.236-.022.353-.007.092-.013.185-.028.277a4,4,0,0,1-.085.394c-.018.074-.031.149-.053.221a4.453,4.453,0,0,1-.213.553h.174a4.531,4.531,0,0,0,.345-2.428l-.137.138C708.713,166.758,708.71,166.822,708.715,166.887Z" transform="translate(-642.027 -125.374)" fill="#368c0e"/>
        <path id="Trazado_58992" data-name="Trazado 58992" d="M699.839,163.069a5.382,5.382,0,0,0-1.852-3.976c-.034-.029-.071-.054-.106-.082a5.3,5.3,0,0,0-.542-.38c-.062-.038-.123-.075-.187-.11a5.008,5.008,0,0,0-.662-.312l-.059-.027a5.158,5.158,0,0,0-1.783-.317c-.168,0-.334.01-.5.025a5.093,5.093,0,0,0-1.966.616c-.138.075-.279.142-.411.23a5.2,5.2,0,0,0-.661.524.17.17,0,0,1-.1.04,5.352,5.352,0,0,0-1.547,3.77c0,.06,0,.12.006.179h10.365C699.836,163.189,699.839,163.127,699.839,163.069Z" transform="translate(-645.983 -127.197)" fill="#f7931e"/>
        <path id="Trazado_58993" data-name="Trazado 58993" d="M691.5,158.585a5.115,5.115,0,0,0-.661.524.17.17,0,0,1-.1.04h0a.17.17,0,0,0,.1-.04A5.2,5.2,0,0,1,691.5,158.585Z" transform="translate(-645.715 -127.046)" fill="#f7931e"/>
        <path id="Trazado_58994" data-name="Trazado 58994" d="M691.712,158.525a5.093,5.093,0,0,1,1.966-.616h-.014c0-.046.007-.091.008-.137a5.272,5.272,0,0,0-1.734.455c.019.045.062.081.076.128C691.909,158.4,691.814,158.47,691.712,158.525Z" transform="translate(-645.512 -127.216)" fill="#f7931e"/>
        <path id="Trazado_58995" data-name="Trazado 58995" d="M691.372,158.625c.132-.088.273-.155.411-.23C691.645,158.47,691.5,158.537,691.372,158.625Z" transform="translate(-645.583 -127.085)" fill="#f7931e"/>
        <path id="Trazado_58996" data-name="Trazado 58996" d="M690.764,159.215c-.007.007-.013.018-.021.025a.17.17,0,0,0,.1-.04,5.115,5.115,0,0,1,.661-.524c.131-.088.273-.155.411-.23.1-.056.2-.122.3-.169-.015-.047-.057-.083-.076-.128a5.332,5.332,0,0,0-1.414.954C690.74,159.142,690.755,159.176,690.764,159.215Z" transform="translate(-645.717 -127.137)" fill="#f7931e"/>
        <path id="Trazado_58997" data-name="Trazado 58997" d="M693.342,157.917h0c.163-.016.329-.025.5-.025a5.158,5.158,0,0,1,1.783.317l-.013,0,.114-.115a5.3,5.3,0,0,0-1.884-.359c-.12,0-.231.028-.347.035A.162.162,0,0,1,693.342,157.917Z" transform="translate(-645.171 -127.225)" fill="#f7931e"/>
        <path id="Trazado_58998" data-name="Trazado 58998" d="M696.509,158.88a5.2,5.2,0,0,1,1.691,2.755c-.03-.122-.05-.249-.088-.369.063.031.117.075.178.109a5.332,5.332,0,0,0-1.189-2.135l-.1.1A5.176,5.176,0,0,0,696.509,158.88Z" transform="translate(-644.505 -126.984)" fill="#f7931e"/>
        <path id="Trazado_58999" data-name="Trazado 58999" d="M695.271,158.149a5.008,5.008,0,0,1,.662.312A5.008,5.008,0,0,0,695.271,158.149Z" transform="translate(-644.765 -127.137)" fill="#f7931e"/>
        <path id="Trazado_59000" data-name="Trazado 59000" d="M695.973,158.5a5.3,5.3,0,0,1,.542.38A5.3,5.3,0,0,0,695.973,158.5Z" transform="translate(-644.618 -127.064)" fill="#f7931e"/>
        <path id="Trazado_59001" data-name="Trazado 59001" d="M693.339,157.912h0a.162.162,0,0,0,.145-.151c-.053,0-.1.011-.156.016,0,.046-.007.091-.008.137Z" transform="translate(-645.173 -127.219)" fill="#f7931e"/>
        <path id="Trazado_59002" data-name="Trazado 59002" d="M696.421,158.812c.035.028.073.053.106.082C696.494,158.865,696.456,158.84,696.421,158.812Z" transform="translate(-644.524 -126.998)" fill="#f7931e"/>
        <path id="Trazado_59003" data-name="Trazado 59003" d="M695.818,158.407c.064.035.126.073.188.11C695.944,158.48,695.882,158.442,695.818,158.407Z" transform="translate(-644.65 -127.083)" fill="#f7931e"/>
        <path id="Trazado_59004" data-name="Trazado 59004" d="M695.222,158.127l.059.027Z" transform="translate(-644.775 -127.142)" fill="#f7931e"/>
        <path id="Trazado_59005" data-name="Trazado 59005" d="M695.224,158.148l.059.027a5.006,5.006,0,0,1,.662.312c.064.035.126.073.188.11a5.3,5.3,0,0,1,.542.38c.035.028.073.053.106.082a5.176,5.176,0,0,1,.488.463l.1-.1a5.318,5.318,0,0,0-2.048-1.39l-.114.115Z" transform="translate(-644.778 -127.162)" fill="#f7931e"/>
        <path id="Trazado_59006" data-name="Trazado 59006" d="M689.491,162.831a5.352,5.352,0,0,1,1.547-3.77l-.008,0h0a.158.158,0,0,1-.046-.007c-.025-.007-.034-.036-.053-.056a5.352,5.352,0,0,0-1.609,3.829c0,.06,0,.12.007.179h.168C689.5,162.951,689.491,162.891,689.491,162.831Z" transform="translate(-646.013 -126.958)" fill="#f7931e"/>
        <path id="Trazado_59007" data-name="Trazado 59007" d="M690.734,159.054h0l.008,0h0Z" transform="translate(-645.717 -126.948)" fill="#f7931e"/>
        <path id="Trazado_59008" data-name="Trazado 59008" d="M690.751,159.065h0a.143.143,0,0,1-.045-.007c-.027-.007-.035-.036-.055-.056h0c.019.019.028.048.053.056A.158.158,0,0,0,690.751,159.065Z" transform="translate(-645.734 -126.958)" fill="#f7931e"/>
        <path id="Trazado_59009" data-name="Trazado 59009" d="M690.78,159.049c-.009-.039-.024-.073-.034-.111-.03.028-.065.05-.094.077.019.019.028.048.055.056a.143.143,0,0,0,.045.007l.009,0C690.767,159.067,690.773,159.057,690.78,159.049Z" transform="translate(-645.734 -126.971)" fill="#f7931e"/>
        <path id="Trazado_59010" data-name="Trazado 59010" d="M698.062,162.558h.161c0-.059.007-.119.007-.179a5.345,5.345,0,0,0-.105-1.039c-.052.01-.1.029-.155.038-.014-.076-.045-.145-.063-.22a5.163,5.163,0,0,1,.161,1.222C698.068,162.437,698.064,162.5,698.062,162.558Z" transform="translate(-644.212 -126.506)" fill="#f7931e"/>
        <path id="Trazado_59011" data-name="Trazado 59011" d="M697.922,161.221c.018.075.048.144.063.22.053-.008.1-.028.155-.038a4.516,4.516,0,0,0-.128-.443c-.06-.034-.115-.077-.178-.109C697.873,160.972,697.892,161.1,697.922,161.221Z" transform="translate(-644.227 -126.57)" fill="#f7931e"/>
        <path id="Trazado_59012" data-name="Trazado 59012" d="M683.342,164.579a8.143,8.143,0,0,0-8.786-1.817.1.1,0,0,0-.035.023.092.092,0,0,0-.023.035,8.151,8.151,0,0,0-.512,4.021l.018,0a8.347,8.347,0,0,0,1,3.057h4.9l-1.617-1.621a1.216,1.216,0,0,1,1.722-1.717l3.33,3.338h2.251a11.17,11.17,0,0,1-2.106-5.173C683.435,164.678,683.391,164.627,683.342,164.579Z" transform="translate(-649.243 -126.291)" fill="#62cca2"/>
        <path id="Trazado_59013" data-name="Trazado 59013" d="M674,166.033c.006.056,0,.111.013.167-.052-.008-.1-.027-.151-.036a8.357,8.357,0,0,0,.968,2.93h.184a8.346,8.346,0,0,1-1-3.057Z" transform="translate(-649.256 -125.483)" fill="#62cca2"/>
        <path id="Trazado_59014" data-name="Trazado 59014" d="M674.525,162.848a.092.092,0,0,1,.023-.035.1.1,0,0,1,.035-.023,8.143,8.143,0,0,1,8.786,1.817c.048.048.093.1.14.15-.012-.091-.024-.181-.034-.272a8.305,8.305,0,0,0-8.953-1.845.269.269,0,0,0-.149.149,8.339,8.339,0,0,0-.52,4.044c.054.011.105.027.16.036A8.152,8.152,0,0,1,674.525,162.848Z" transform="translate(-649.27 -126.319)" fill="#62cca2"/>
        <path id="Trazado_59015" data-name="Trazado 59015" d="M674.016,166.206c-.008-.056-.007-.111-.013-.167-.054-.01-.105-.025-.16-.036l.022.167C673.916,166.18,673.964,166.2,674.016,166.206Z" transform="translate(-649.26 -125.49)" fill="#62cca2"/>
        <path id="Trazado_59016" data-name="Trazado 59016" d="M677.593,165.864a1.215,1.215,0,0,0,0,1.719l1.617,1.621h3.435l-3.33-3.338A1.215,1.215,0,0,0,677.593,165.864Z" transform="translate(-648.548 -125.593)" fill="#8befc4"/>
        <path id="Trazado_59017" data-name="Trazado 59017" d="M703,162.47h-1.628v-.021h-18.8a.715.715,0,0,0-.713.714,11.178,11.178,0,0,0,.111,1.443c.029.03.059.06.087.092a11.185,11.185,0,0,0,2.112,5.148h3.11a1.209,1.209,0,0,1,.105-1.582l1.181-1.183A1.216,1.216,0,0,1,690.3,168.8l-1.046,1.048h2.479v-.795a1.216,1.216,0,0,1,2.432,0v.795h2.286L695.4,168.8a1.216,1.216,0,0,1,1.722-1.718l1.181,1.183a1.211,1.211,0,0,1,.105,1.582h3.386a11.157,11.157,0,0,0,2.086-6.5A.876.876,0,0,0,703,162.47Zm-15.669,4.143h-1.669a1.216,1.216,0,1,1,0-2.432h1.669a1.216,1.216,0,0,1,0,2.432Zm12.8,0h-1.669a1.216,1.216,0,0,1,0-2.432h1.669a1.216,1.216,0,1,1,0,2.432Z" transform="translate(-647.577 -126.235)" fill="#e33e4e"/>
        <path id="Trazado_59018" data-name="Trazado 59018" d="M682.006,164.634a11.178,11.178,0,0,1-.111-1.443.715.715,0,0,1,.713-.714h8.319c0-.054,0-.109-.006-.162h-8.313a.875.875,0,0,0-.875.876,10.968,10.968,0,0,0,.077,1.238l.008.008C681.883,164.5,681.945,164.568,682.006,164.634Z" transform="translate(-647.605 -126.263)" fill="#e33e4e"/>
        <path id="Trazado_59019" data-name="Trazado 59019" d="M699.835,162.315H698.2c0,.053,0,.108-.006.162h-.2v.021h1.628a.876.876,0,0,1,.875.877,11.156,11.156,0,0,1-2.086,6.5h.083a11.174,11.174,0,0,0,2.216-6.683A.875.875,0,0,0,699.835,162.315Z" transform="translate(-644.194 -126.263)" fill="#e33e4e"/>
        <path id="Trazado_59020" data-name="Trazado 59020" d="M699.783,162.464h.045c0-.051,0-.1,0-.149H689.467c0,.053,0,.108.006.162h10.31Z" transform="translate(-645.982 -126.263)" fill="#e33e4e"/>
        <path id="Trazado_59021" data-name="Trazado 59021" d="M689.5,162.477c0-.054,0-.109-.006-.162h-.168c0,.053,0,.108.006.162Z" transform="translate(-646.012 -126.263)" fill="#e33e4e"/>
        <path id="Trazado_59022" data-name="Trazado 59022" d="M698.039,162.464h-.045v.013h.2c0-.054,0-.109.006-.162h-.161C698.041,162.365,698.041,162.413,698.039,162.464Z" transform="translate(-644.194 -126.263)" fill="#e33e4e"/>
        <path id="Trazado_59023" data-name="Trazado 59023" d="M681.987,164.232c.011.086.007.175.021.261-.059-.067-.122-.131-.183-.195a11.17,11.17,0,0,0,2.106,5.173h.255a11.185,11.185,0,0,1-2.112-5.148C682.046,164.292,682.016,164.262,681.987,164.232Z" transform="translate(-647.585 -125.861)" fill="#e33e4e"/>
        <path id="Trazado_59024" data-name="Trazado 59024" d="M682.014,164.529c-.013-.086-.01-.175-.021-.261-.062-.067-.123-.133-.187-.2l-.008-.008c.01.091.022.181.034.272C681.891,164.4,681.954,164.462,682.014,164.529Z" transform="translate(-647.591 -125.897)" fill="#e33e4e"/>
        <path id="Trazado_59025" data-name="Trazado 59025" d="M691.234,166.9a1.216,1.216,0,0,0-1.216,1.216v.795h2.432v-.795A1.216,1.216,0,0,0,691.234,166.9Z" transform="translate(-645.867 -125.301)" fill="#bf2e43"/>
        <path id="Trazado_59026" data-name="Trazado 59026" d="M696.017,167.522l-1.181-1.183a1.216,1.216,0,0,0-1.722,1.718l1.047,1.048h1.961A1.211,1.211,0,0,0,696.017,167.522Z" transform="translate(-645.292 -125.494)" fill="#bf2e43"/>
        <path id="Trazado_59027" data-name="Trazado 59027" d="M689.4,166.338a1.215,1.215,0,0,0-1.719,0l-1.181,1.183a1.209,1.209,0,0,0-.105,1.582h1.961l1.046-1.048A1.215,1.215,0,0,0,689.4,166.338Z" transform="translate(-646.679 -125.494)" fill="#bf2e43"/>
        <path id="Trazado_59028" data-name="Trazado 59028" d="M686.887,163.881h-1.669a1.216,1.216,0,1,0,0,2.432h1.669a1.216,1.216,0,0,0,0-2.432Z" transform="translate(-647.129 -125.935)" fill="#bf2e43"/>
        <path id="Trazado_59029" data-name="Trazado 59029" d="M697.466,163.881H695.8a1.216,1.216,0,0,0,0,2.432h1.669a1.216,1.216,0,1,0,0-2.432Z" transform="translate(-644.91 -125.935)" fill="#bf2e43"/>
        <path id="Trazado_59030" data-name="Trazado 59030" d="M724.384,168.563h-1.175c-.011.015-.018.031-.029.046H670.827a.827.827,0,0,0-.612.794,30.3,30.3,0,0,0,.833,7.083c.163-.006.316-.024.483-.024,2.814,0,5.1.9,5.1,2.012a.906.906,0,0,1-.139.442,11.328,11.328,0,0,1,7.09,8.749l25.6-9.724a4.5,4.5,0,0,1,6.023,3.37l.252,1.357a.139.139,0,0,0,.053-.014l7.741-4.569A37.923,37.923,0,0,0,725,173.01a30.722,30.722,0,0,0,.225-3.607A.84.84,0,0,0,724.384,168.563Z" transform="translate(-650.021 -124.953)" fill="#fff"/>
        <path id="Trazado_59031" data-name="Trazado 59031" d="M670.947,168.563a.792.792,0,0,0-.226.046h4.789c-.009-.015-.015-.031-.023-.046Z" transform="translate(-649.914 -124.953)" fill="#fff"/>
        <path id="Trazado_59032" data-name="Trazado 59032" d="M709.553,168.609h5.376c.011-.015.018-.031.029-.046H709.6Z" transform="translate(-641.769 -124.953)" fill="#fff"/>
        <path id="Trazado_59033" data-name="Trazado 59033" d="M708.472,168.563c-.006.015-.011.031-.017.046h1.328l.046-.046Z" transform="translate(-642 -124.953)" fill="#fff"/>
        <path id="Trazado_59034" data-name="Trazado 59034" d="M698.412,168.563c-.011.015-.021.031-.031.046h12.012c.007-.015.011-.031.018-.046Z" transform="translate(-644.113 -124.953)" fill="#fff"/>
        <path id="Trazado_59035" data-name="Trazado 59035" d="M708.328,168.563c-.007.015-.011.031-.018.046.007-.015.012-.031.018-.046Z" transform="translate(-642.03 -124.953)" fill="#fff"/>
        <path id="Trazado_59036" data-name="Trazado 59036" d="M708.328,168.563c-.006.015-.011.031-.018.046h.175c.006-.015.011-.031.017-.046Z" transform="translate(-642.03 -124.953)" fill="#fff"/>
        <path id="Trazado_59037" data-name="Trazado 59037" d="M674.68,168.6h0Z" transform="translate(-649.084 -124.945)" fill="#fff"/>
        <path id="Trazado_59038" data-name="Trazado 59038" d="M674.813,168.563c.008.015.015.031.023.046h4.926l-.046-.046Z" transform="translate(-649.056 -124.953)" fill="#fff"/>
        <path id="Trazado_59039" data-name="Trazado 59039" d="M681.705,168.563l.046.046h2.237c-.011-.015-.021-.031-.031-.046Z" transform="translate(-647.611 -124.953)" fill="#fff"/>
        <path id="Trazado_59040" data-name="Trazado 59040" d="M674.845,168.563h-.184c.008.015.014.031.023.046h.184C674.859,168.594,674.853,168.578,674.845,168.563Z" transform="translate(-649.088 -124.953)" fill="#fff"/>
        <path id="Trazado_59041" data-name="Trazado 59041" d="M674.832,168.6h0Z" transform="translate(-649.052 -124.945)" fill="#fff"/>
        <path id="Trazado_59042" data-name="Trazado 59042" d="M678.866,168.563l.046.046h3.434l-.046-.046Z" transform="translate(-648.206 -124.953)" fill="#fff"/>
        <path id="Trazado_59043" data-name="Trazado 59043" d="M695.543,168.563c-.011.015-.013.031-.025.046H698.9c.011-.015.019-.031.03-.046Z" transform="translate(-644.713 -124.953)" fill="#fff"/>
        <path id="Trazado_59044" data-name="Trazado 59044" d="M692.028,168.563v.046h2.332l-.046-.046Z" transform="translate(-645.445 -124.953)" fill="#fff"/>
        <path id="Trazado_59045" data-name="Trazado 59045" d="M687.977,168.563l-.046.046h2.524v-.046Z" transform="translate(-646.305 -124.953)" fill="#fff"/>
        <path id="Trazado_59046" data-name="Trazado 59046" d="M686.887,168.563h-3.11c.011.015.018.031.03.046h3.1C686.9,168.594,686.9,168.578,686.887,168.563Z" transform="translate(-647.176 -124.953)" fill="#fff"/>
        <path id="Trazado_59047" data-name="Trazado 59047" d="M698.343,168.563c-.011.015-.019.031-.03.046h.082c.011-.015.021-.031.031-.046Z" transform="translate(-644.127 -124.953)" fill="#fff"/>
        <path id="Trazado_59048" data-name="Trazado 59048" d="M683.566,168.563c.011.015.021.031.031.046h.254c-.012-.015-.019-.031-.03-.046Z" transform="translate(-647.22 -124.953)" fill="#fff"/>
        <rect id="Rect치ngulo_5428" data-name="Rect치ngulo 5428" width="2.431" height="0.046" transform="translate(44.151 43.61)" fill="#fff"/>
        <path id="Trazado_59049" data-name="Trazado 59049" d="M693.918,168.563l.045.046h1.891c.012-.015.015-.031.025-.046Z" transform="translate(-645.049 -124.953)" fill="#fff"/>
        <path id="Trazado_59050" data-name="Trazado 59050" d="M686.348,168.563c.011.015.013.031.024.046h1.891l.046-.046Z" transform="translate(-646.637 -124.953)" fill="#fff"/>
        <path id="Trazado_59051" data-name="Trazado 59051" d="M668.305,168.664a.163.163,0,0,1-.121.053H666.72a.679.679,0,0,0-.676.679q0,.465.013.927l0,.076a29.975,29.975,0,0,0,.88,6.326c.009.033-.013.059-.025.09l.106.029V174.77a1.216,1.216,0,0,1,2.432,0v2.074a10.632,10.632,0,0,1,2.47-.365,30.3,30.3,0,0,1-.833-7.083.827.827,0,0,1,.612-.794h-3.376C668.318,168.623,668.321,168.647,668.305,168.664Z" transform="translate(-650.896 -124.945)" fill="#fff"/>
        <path id="Trazado_59052" data-name="Trazado 59052" d="M668.305,168.664a.163.163,0,0,1-.121.053H666.72a.679.679,0,0,0-.676.679q0,.465.013.927l0,.076a29.975,29.975,0,0,0,.88,6.326c.009.033-.013.059-.025.09l.106.029V174.77a1.216,1.216,0,0,1,2.432,0v2.074a10.632,10.632,0,0,1,2.47-.365,30.3,30.3,0,0,1-.833-7.083.827.827,0,0,1,.612-.794h-3.376C668.318,168.623,668.321,168.647,668.305,168.664Z" transform="translate(-650.896 -124.945)" opacity="0.1" style="isolation: isolate"/>
        <path id="Trazado_59053" data-name="Trazado 59053" d="M666.969,176.732a29.971,29.971,0,0,1-.879-6.326l0-.076q-.013-.463-.013-.927a.679.679,0,0,1,.676-.679h1.464a.163.163,0,0,0,.121-.053c.016-.017.013-.041.021-.063h-.137c0-.016,0-.03,0-.046h-1.466a.839.839,0,0,0-.838.84,30.255,30.255,0,0,0,.911,7.386l.122.034C666.955,176.792,666.977,176.765,666.969,176.732Z" transform="translate(-650.924 -124.953)" fill="#fff"/>
        <path id="Trazado_59054" data-name="Trazado 59054" d="M666.969,176.732a29.971,29.971,0,0,1-.879-6.326l0-.076q-.013-.463-.013-.927a.679.679,0,0,1,.676-.679h1.464a.163.163,0,0,0,.121-.053c.016-.017.013-.041.021-.063h-.137c0-.016,0-.03,0-.046h-1.466a.839.839,0,0,0-.838.84,30.255,30.255,0,0,0,.911,7.386l.122.034C666.955,176.792,666.977,176.765,666.969,176.732Z" transform="translate(-650.924 -124.953)" opacity="0.1" style="isolation: isolate"/>
        <path id="Trazado_59055" data-name="Trazado 59055" d="M667.945,168.563a.156.156,0,0,1-.015.046h3.376a.792.792,0,0,1,.226-.046Z" transform="translate(-650.5 -124.953)" fill="#fff"/>
        <path id="Trazado_59056" data-name="Trazado 59056" d="M667.945,168.563a.156.156,0,0,1-.015.046h3.376a.792.792,0,0,1,.226-.046Z" transform="translate(-650.5 -124.953)" opacity="0.1" style="isolation: isolate"/>
        <path id="Trazado_59057" data-name="Trazado 59057" d="M667.954,168.609a.156.156,0,0,0,.015-.046h-.154c0,.016,0,.03,0,.046Z" transform="translate(-650.524 -124.953)" fill="#fff"/>
        <path id="Trazado_59058" data-name="Trazado 59058" d="M667.954,168.609a.156.156,0,0,0,.015-.046h-.154c0,.016,0,.03,0,.046Z" transform="translate(-650.524 -124.953)" opacity="0.1" style="isolation: isolate"/>
        <path id="Trazado_59059" data-name="Trazado 59059" d="M669.125,175.994c-.009-.019-.027-.033-.027-.053v-2.058a1.054,1.054,0,0,0-2.107,0v2.058c0,.021-.019.034-.027.053a1.574,1.574,0,0,0,2.161,0Z" transform="translate(-650.703 -124.058)" fill="#89c947"/>
        <path id="Trazado_59060" data-name="Trazado 59060" d="M667.014,175.969v-2.058a1.054,1.054,0,0,1,2.107,0v2.058c0,.021.018.034.027.053.044-.013.091-.024.135-.038v-2.074a1.216,1.216,0,1,0-2.432,0v2.074c.045.013.092.024.135.038C666.995,176,667.014,175.989,667.014,175.969Z" transform="translate(-650.726 -124.086)" fill="#89c947"/>
        <path id="Trazado_59061" data-name="Trazado 59061" d="M673.2,194.579a4.475,4.475,0,0,1,2.819-5l9.7-3.686c0-.011-.018-.017-.021-.03a11.228,11.228,0,0,0-6.988-8.621c-.012,0-.016-.021-.027-.029a5.257,5.257,0,0,1-3.431,1.369c1.29,1.031,1.88,2.115,1.355,2.707-.7.786-3.085.413-5.335-.832a10.26,10.26,0,0,1-1.639-1.115A10.1,10.1,0,0,1,668,180.463c-2.249,1.245-4.638,1.619-5.334.832-.525-.593.065-1.677,1.354-2.707-.255-.03-.5-.069-.738-.113a11.319,11.319,0,0,0-3.934,4.884,38.29,38.29,0,0,0,14.065,12.05,4.487,4.487,0,0,1-.166-.6Z" transform="translate(-652.3 -123.137)" fill="#e33e4e"/>
        <path id="Trazado_59062" data-name="Trazado 59062" d="M678.409,194.789h-.331l.007,0h.311Z" transform="translate(-648.371 -119.452)" fill="#e33e4e"/>
        <path id="Trazado_59063" data-name="Trazado 59063" d="M657.8,178.67c-.168.139-.334.281-.494.428h0c.16-.148.325-.289.494-.428Z" transform="translate(-652.729 -122.833)" fill="#e33e4e"/>
        <path id="Trazado_59064" data-name="Trazado 59064" d="M660.856,177.117h0A12.338,12.338,0,0,0,657.711,179h0A12.359,12.359,0,0,1,660.856,177.117Z" transform="translate(-652.643 -123.158)" fill="#e33e4e"/>
        <path id="Trazado_59065" data-name="Trazado 59065" d="M675.364,177.268a11.228,11.228,0,0,1,6.988,8.621c0,.013.016.019.021.03l.132-.05a11.328,11.328,0,0,0-7.09-8.749,1.145,1.145,0,0,1-.076.119C675.348,177.247,675.352,177.263,675.364,177.268Z" transform="translate(-648.946 -123.158)" fill="#e33e4e"/>
        <path id="Trazado_59066" data-name="Trazado 59066" d="M663.712,178.475a4.479,4.479,0,0,1-2.692-1.257c-.011.008-.014.023-.027.029a12.121,12.121,0,0,0-3.2,1.933v-.206c-.168.139-.334.281-.494.428a38.023,38.023,0,0,0,2.475,3.956A11.319,11.319,0,0,1,663.712,178.475Z" transform="translate(-652.729 -123.137)" fill="#bf2e43"/>
        <path id="Trazado_59067" data-name="Trazado 59067" d="M657.711,179v.206a12.121,12.121,0,0,1,3.2-1.933c.012-.006.016-.021.027-.029a1.241,1.241,0,0,1-.079-.122A12.359,12.359,0,0,0,657.711,179Z" transform="translate(-652.643 -123.158)" fill="#bf2e43"/>
        <path id="Trazado_59068" data-name="Trazado 59068" d="M669.435,176.172a5.62,5.62,0,0,0-1.216-.483v-.09h0a.18.18,0,0,1-.044-.006c-.048-.015-.1-.025-.149-.039l-.007-.034c-.013,0-.024.016-.039.016a.136.136,0,0,1-.039,0,11.262,11.262,0,0,0-2.676-.306c-2.952,0-4.933.957-4.933,1.851a.732.732,0,0,0,.1.358c0,.006,0,.013,0,.021l.008,0v0a1.524,1.524,0,0,0,.348.373c.019.016.036.033.058.048a3.285,3.285,0,0,0,.543.322l.1.048a5.98,5.98,0,0,0,.731.272c.03.008.063.017.093.027a8.719,8.719,0,0,0,.927.214h0c.189.033.382.062.583.086a.162.162,0,0,1,.082.287,3.576,3.576,0,0,0-1.481,1.989.617.617,0,0,0,.148.486,1.561,1.561,0,0,0,1.175.357,8.915,8.915,0,0,0,3.96-1.224,10,10,0,0,0,1.613-1.1.161.161,0,0,1,.209,0,10.111,10.111,0,0,0,1.614,1.1,8.906,8.906,0,0,0,3.958,1.224h0a1.563,1.563,0,0,0,1.176-.357.621.621,0,0,0,.148-.486,3.579,3.579,0,0,0-1.482-1.989.162.162,0,0,1,.082-.287c1.7-.2,3.007-.755,3.386-1.392l.008,0c0-.006,0-.015,0-.021a.733.733,0,0,0,.1-.359c0-.893-1.982-1.85-4.932-1.85-.393,0-.769.035-1.146.07-.159.015-.323.022-.478.042a9.443,9.443,0,0,0-1.286.255.18.18,0,0,1-.044.006v.09A5.621,5.621,0,0,0,669.435,176.172Z" transform="translate(-652.093 -123.555)" fill="#368c0e"/>
        <path id="Trazado_59069" data-name="Trazado 59069" d="M660.465,177.463a.732.732,0,0,1-.1-.358c0-.894,1.982-1.851,4.933-1.851a11.261,11.261,0,0,1,2.676.306.136.136,0,0,0,.039,0c.014,0,.025-.012.039-.016-.011-.044-.018-.087-.029-.131a11.2,11.2,0,0,0-2.724-.327c-2.814,0-5.1.9-5.1,2.012a.9.9,0,0,0,.135.438c.045-.019.088-.041.133-.058C660.465,177.476,660.469,177.469,660.465,177.463Z" transform="translate(-652.121 -123.583)" fill="#368c0e"/>
        <path id="Trazado_59070" data-name="Trazado 59070" d="M668.9,175.574a9.447,9.447,0,0,1,1.286-.255A9.447,9.447,0,0,0,668.9,175.574Z" transform="translate(-650.297 -123.536)" fill="#368c0e"/>
        <path id="Trazado_59071" data-name="Trazado 59071" d="M670.356,175.324c.376-.035.752-.07,1.146-.07,2.951,0,4.932.957,4.932,1.85a.733.733,0,0,1-.1.359c0,.006,0,.014,0,.021.046.018.086.044.131.062a.906.906,0,0,0,.139-.442c0-1.111-2.282-2.012-5.1-2.012-.167,0-.319.018-.483.024.012.048.021.1.031.146C670.812,175.271,670.588,175.3,670.356,175.324Z" transform="translate(-649.991 -123.583)" fill="#368c0e"/>
        <path id="Trazado_59072" data-name="Trazado 59072" d="M669.961,175.326c.155-.021.319-.028.478-.042C670.279,175.3,670.116,175.306,669.961,175.326Z" transform="translate(-650.074 -123.543)" fill="#368c0e"/>
        <path id="Trazado_59073" data-name="Trazado 59073" d="M666.687,175.487l.007.034c.05.013.1.024.149.039a.18.18,0,0,0,.044.006h0v-.146l-.107-.029c-.007.022,0,.048-.017.065A.17.17,0,0,1,666.687,175.487Z" transform="translate(-650.761 -123.521)" fill="#368c0e"/>
        <path id="Trazado_59074" data-name="Trazado 59074" d="M668.862,175.624a.18.18,0,0,0,.044-.006,9.454,9.454,0,0,1,1.286-.255c.155-.021.318-.028.478-.042.232-.022.456-.053.694-.062-.011-.048-.019-.1-.031-.146a10.634,10.634,0,0,0-2.47.365Z" transform="translate(-650.304 -123.579)" fill="#368c0e"/>
        <path id="Trazado_59075" data-name="Trazado 59075" d="M666.768,175.461c.017-.017.01-.044.017-.065l-.122-.034c.011.044.018.087.029.131A.17.17,0,0,0,666.768,175.461Z" transform="translate(-650.766 -123.526)" fill="#368c0e"/>
        <path id="Trazado_59076" data-name="Trazado 59076" d="M669.186,175.521c-.024-.018-.028-.05-.037-.076a1.574,1.574,0,0,1-2.161,0c-.011.027-.013.058-.038.076a.17.17,0,0,1-.1.033v.09a1.772,1.772,0,0,0,2.432,0v-.09h0A.167.167,0,0,1,669.186,175.521Z" transform="translate(-650.726 -123.509)" fill="#368c0e"/>
        <path id="Trazado_59077" data-name="Trazado 59077" d="M666.95,175.528c.024-.018.027-.05.038-.076-.044-.013-.091-.024-.135-.038v.146A.17.17,0,0,0,666.95,175.528Z" transform="translate(-650.726 -123.516)" fill="#368c0e"/>
        <path id="Trazado_59078" data-name="Trazado 59078" d="M668.788,175.528a.167.167,0,0,0,.1.033h0v-.146c-.045.013-.092.024-.135.038C668.76,175.478,668.763,175.51,668.788,175.528Z" transform="translate(-650.328 -123.516)" fill="#368c0e"/>
        <path id="Trazado_59079" data-name="Trazado 59079" d="M661.316,177.729l-.1-.048Z" transform="translate(-651.909 -123.04)" fill="#368c0e"/>
        <path id="Trazado_59080" data-name="Trazado 59080" d="M662,177.973c-.03-.01-.063-.018-.093-.027C661.932,177.956,661.964,177.963,662,177.973Z" transform="translate(-651.764 -122.984)" fill="#368c0e"/>
        <path id="Trazado_59081" data-name="Trazado 59081" d="M660.421,177.069h0l.008,0,0,0,0,0Z" transform="translate(-652.075 -123.169)" fill="#368c0e"/>
        <path id="Trazado_59082" data-name="Trazado 59082" d="M660.775,177.423c-.022-.016-.039-.033-.058-.048C660.738,177.391,660.753,177.408,660.775,177.423Z" transform="translate(-652.013 -123.104)" fill="#368c0e"/>
        <path id="Trazado_59083" data-name="Trazado 59083" d="M678.094,177.07l-.008,0c-.379.638-1.685,1.193-3.386,1.392a.162.162,0,0,0-.082.287,3.579,3.579,0,0,1,1.482,1.989.621.621,0,0,1-.148.486,1.563,1.563,0,0,1-1.176.357h0a8.906,8.906,0,0,1-3.958-1.224,10.112,10.112,0,0,1-1.614-1.1.161.161,0,0,0-.209,0,10,10,0,0,1-1.613,1.1,8.915,8.915,0,0,1-3.96,1.224,1.561,1.561,0,0,1-1.175-.357.617.617,0,0,1-.148-.486,3.576,3.576,0,0,1,1.481-1.989.162.162,0,0,0-.082-.287c-.2-.024-.394-.053-.583-.086-.062.041-.115.091-.174.134.237.044.483.082.738.113-1.288,1.031-1.879,2.115-1.354,2.707.7.786,3.085.413,5.334-.832a10.1,10.1,0,0,0,1.639-1.115,10.261,10.261,0,0,0,1.639,1.115c2.25,1.245,4.638,1.619,5.335.832.525-.593-.065-1.677-1.355-2.707a5.257,5.257,0,0,0,3.431-1.369.165.165,0,0,1-.064-.068A.159.159,0,0,1,678.094,177.07Z" transform="translate(-651.758 -123.169)" fill="#368c0e"/>
        <path id="Trazado_59084" data-name="Trazado 59084" d="M660.444,177.069c-.045.017-.088.039-.133.058h0c.045-.018.088-.041.133-.058Z" transform="translate(-652.098 -123.168)" fill="#368c0e"/>
        <path id="Trazado_59085" data-name="Trazado 59085" d="M675.285,177.182a.165.165,0,0,0,.064.068,1.145,1.145,0,0,0,.076-.119c-.045-.018-.085-.044-.131-.062A.159.159,0,0,0,675.285,177.182Z" transform="translate(-648.958 -123.168)" fill="#368c0e"/>
        <path id="Trazado_59086" data-name="Trazado 59086" d="M661.979,177.968a8.956,8.956,0,0,0,.927.215h0A8.727,8.727,0,0,1,661.979,177.968Z" transform="translate(-651.748 -122.98)" fill="#368c0e"/>
        <path id="Trazado_59087" data-name="Trazado 59087" d="M660.777,177.44a1.523,1.523,0,0,1-.348-.373A1.523,1.523,0,0,0,660.777,177.44Z" transform="translate(-652.073 -123.169)" fill="#368c0e"/>
        <path id="Trazado_59088" data-name="Trazado 59088" d="M662.029,177.993a5.977,5.977,0,0,1-.731-.272A5.977,5.977,0,0,0,662.029,177.993Z" transform="translate(-651.891 -123.032)" fill="#368c0e"/>
        <path id="Trazado_59089" data-name="Trazado 59089" d="M661.308,177.737a3.287,3.287,0,0,1-.543-.322A3.287,3.287,0,0,0,661.308,177.737Z" transform="translate(-652.003 -123.096)" fill="#368c0e"/>
        <path id="Trazado_59090" data-name="Trazado 59090" d="M662.315,178.157c-.031-.01-.063-.017-.093-.027a5.977,5.977,0,0,1-.731-.272l-.1-.048a3.286,3.286,0,0,1-.543-.322c-.022-.016-.037-.033-.058-.048a1.523,1.523,0,0,1-.348-.373h0l-.008,0a.159.159,0,0,1,.01.113c-.01.03-.039.048-.064.068a4.479,4.479,0,0,0,2.692,1.257c.059-.044.112-.093.174-.134A8.948,8.948,0,0,1,662.315,178.157Z" transform="translate(-652.084 -123.169)" fill="#368c0e"/>
        <path id="Trazado_59091" data-name="Trazado 59091" d="M660.444,177.069c-.045.017-.088.04-.133.058a1.241,1.241,0,0,0,.079.122c.025-.019.055-.038.064-.068A.159.159,0,0,0,660.444,177.069Z" transform="translate(-652.098 -123.168)" fill="#368c0e"/>
        <path id="Trazado_59092" data-name="Trazado 59092" d="M717.595,193.386l-1.188-6.417-1.094-5.9a.13.13,0,0,1-.029.008.166.166,0,0,1-.068-.015.162.162,0,0,1-.092-.119l-.223-1.2a4.308,4.308,0,0,0-2.139-2.98,4.355,4.355,0,0,0-3.668-.27l-25.59,9.722a.166.166,0,0,1-.035.006v.006l-9.807,3.726a4.315,4.315,0,0,0-2.718,4.815l.044.232a4.353,4.353,0,0,0,.2.727,37.9,37.9,0,0,0,7.7,2.8h.755c.293.094.427.156.278.161l16.57-.006,16.685-.006a4.483,4.483,0,0,0,4.419-5.289Z" transform="translate(-649.883 -123.35)" fill="#fec000"/>
        <path id="Trazado_59093" data-name="Trazado 59093" d="M681.326,186.238l25.59-9.722a4.335,4.335,0,0,1,5.807,3.249l.223,1.2a.162.162,0,0,0,.092.119.166.166,0,0,0,.068.015.131.131,0,0,0,.029-.008l-.252-1.357a4.5,4.5,0,0,0-6.023-3.37l-25.6,9.724c.007.053.024.1.03.155A.164.164,0,0,0,681.326,186.238Z" transform="translate(-647.704 -123.378)" fill="#fec000"/>
        <path id="Trazado_59094" data-name="Trazado 59094" d="M671.017,193.277l-.044-.232a4.315,4.315,0,0,1,2.718-4.815L683.5,184.5V184.5a.14.14,0,0,1-.022,0,.162.162,0,0,1-.082-.023.158.158,0,0,1-.058-.087l-9.7,3.686a4.475,4.475,0,0,0-2.819,5l.044.233a4.487,4.487,0,0,0,.166.6l.2.1A4.354,4.354,0,0,1,671.017,193.277Z" transform="translate(-649.91 -121.632)" fill="#fec000"/>
        <path id="Trazado_59095" data-name="Trazado 59095" d="M678.253,194.656H677.5c.232.057.467.109.7.161h.331C678.68,194.812,678.546,194.75,678.253,194.656Z" transform="translate(-648.493 -119.479)" fill="#fec000"/>
        <path id="Trazado_59096" data-name="Trazado 59096" d="M681.21,184.489a.162.162,0,0,0,.082.023.14.14,0,0,0,.022,0c-.006-.053-.023-.1-.03-.155l-.132.05A.158.158,0,0,0,681.21,184.489Z" transform="translate(-647.726 -121.641)" fill="#fec000"/>
      </g>
      <rect id="Rect치ngulo_5429" data-name="Rect치ngulo 5429" width="8.392" height="5.6" transform="translate(664.388 141.229)" fill="#48c1e1"/>
      <g id="Grupo_29181" data-name="Grupo 29181" transform="translate(674.352 185.207)" opacity="0.1">
        <path id="Trazado_59097" data-name="Trazado 59097" d="M670.859,195.053a4.377,4.377,0,0,0,.284.932,4.68,4.68,0,0,1,2.422-2.083l37-14.057a4.7,4.7,0,0,1,4.688.786l-.166-.9a4.5,4.5,0,0,0-6.023-3.37l-35.432,13.46a4.475,4.475,0,0,0-2.819,5Z" transform="translate(-670.74 -176.071)"/>
      </g>
      <g id="Grupo_29182" data-name="Grupo 29182" transform="translate(682.341 189.249)">
        <path id="Trazado_59098" data-name="Trazado 59098" d="M704.462,190.25a1.216,1.216,0,1,0-2.388.456l1,5.231h2.475Z" transform="translate(-672.161 -177.346)" fill="#ffe278"/>
        <path id="Trazado_59099" data-name="Trazado 59099" d="M699.015,191.442a1.216,1.216,0,0,0-2.389.45l.716,3.8h2.474Z" transform="translate(-673.304 -177.096)" fill="#ffe278"/>
        <path id="Trazado_59100" data-name="Trazado 59100" d="M693.461,184.6a1.216,1.216,0,0,0,1.178.919,1.259,1.259,0,0,0,.3-.036,1.216,1.216,0,0,0,.882-1.476l-1.156-4.6-2.289.87Z" transform="translate(-674.192 -179.412)" fill="#ffe278"/>
        <path id="Trazado_59101" data-name="Trazado 59101" d="M688.461,190.567a1.216,1.216,0,0,0-2.393.432l.881,4.881h2.47Z" transform="translate(-675.518 -177.282)" fill="#ffe278"/>
        <path id="Trazado_59102" data-name="Trazado 59102" d="M678.024,189.229a1.215,1.215,0,0,0,1.188.967,1.194,1.194,0,0,0,.252-.027,1.216,1.216,0,0,0,.94-1.44l-.759-3.611-2.3.873Z" transform="translate(-677.344 -178.215)" fill="#ffe278"/>
      </g>
      <path id="Trazado_59103" data-name="Trazado 59103" d="M726.2,184.333l-.325-1.761a1.125,1.125,0,0,0-1.309-.9l-12.6,2.314,8.045-5.377a1.12,1.12,0,0,0,.479-1.132,1.134,1.134,0,0,0-.126-.346l-.911-1.613a1.125,1.125,0,0,0-1.552-.414l-10.466,6.177,1.98,10.688,12,2.158a1.128,1.128,0,0,0,.854-.192,1.115,1.115,0,0,0,.456-.745l.272-1.821a1.116,1.116,0,0,0-.86-1.255l-9.442-2.165,12.6-2.315A1.118,1.118,0,0,0,726.2,184.333Z" transform="translate(11.308 8.901)" fill="#62cca2"/>
      <path id="Trazado_59104" data-name="Trazado 59104" d="M672.927,140.4a.836.836,0,0,1-.835.835H661.908a.837.837,0,0,1-.835-.835v-6.017a.837.837,0,0,1,.835-.835h10.185a.836.836,0,0,1,.835.835V140.4Z" transform="translate(1.584 0.216)" fill="#6b6bd6"/>
      <g id="Grupo_29183" data-name="Grupo 29183" transform="translate(662.657 133.76)" opacity="0.1">
        <path id="Trazado_59105" data-name="Trazado 59105" d="M664.556,140.4v-6.017a.836.836,0,0,1,.835-.835h-3.483a.837.837,0,0,0-.835.835V140.4a.837.837,0,0,0,.835.835h3.483A.836.836,0,0,1,664.556,140.4Z" transform="translate(-661.073 -133.544)"/>
      </g>
      <path id="Trazado_59106" data-name="Trazado 59106" d="M662.732,182.165V148.794a4.667,4.667,0,0,1,4.648-4.659H662.36a4.668,4.668,0,0,0-4.649,4.659V186.12a12.121,12.121,0,0,1,3.2-1.933.163.163,0,0,0,.091-.1.16.16,0,0,0-.012-.133.732.732,0,0,1-.1-.358C660.883,183.073,661.569,182.527,662.732,182.165Z" transform="translate(0.879 2.438)" fill="#48c1e1" opacity="0.47"/>
    </g>
    <rect id="Rect치ngulo_5238" data-name="Rect치ngulo 5238" width="107" height="107" transform="translate(287 927)" fill="none"/>
  </g>
</svg>
