<svg xmlns="http://www.w3.org/2000/svg" width="298" height="298" viewBox="0 0 298 298">
  <g id="Grupo_29325" data-name="Grupo 29325" transform="translate(1876 5101)">
    <rect id="Rectángulo_5443" data-name="Rectángulo 5443" width="298" height="298" transform="translate(-1876 -5101)" fill="none"/>
    <g id="Image_Place_Holder" data-name="Image Place Holder" transform="translate(-1876 -5004.639)">
      <rect id="Image_Place_Holder-2" data-name="Image Place Holder" width="298" height="202" rx="10" transform="translate(0 -0.361)" fill="#f5faff"/>
    </g>
    <g id="Grupo_29320" data-name="Grupo 29320" transform="translate(-1777.225 -5035.705)">
      <path id="Trazado_58611" data-name="Trazado 58611" d="M42.743,404.209c4.191-5.594,4.7-11.921,3.956-14.042s-5.467,2.636-5.467,2.636Z" transform="translate(17.933 -382.694)" fill="#7b2e22"/>
      <path id="Trazado_58612" data-name="Trazado 58612" d="M72.317,431.612c-2.063-8.136-8.875-18.895-23.3-29.984l4.531,55.544C70.788,465.663,74.906,441.825,72.317,431.612Z" transform="translate(27.425 -368.061)" fill="#f0c86a"/>
      <path id="Trazado_58613" data-name="Trazado 58613" d="M71.4,423.61c-3.661.976-11.367-3.9-17.9-11.309a53.866,53.866,0,0,1-4.034-5.176L53,450.473c17.237,8.491,21.355-15.347,18.766-25.56C71.664,424.487,71.536,424.05,71.4,423.61Z" transform="translate(27.971 -361.361)" fill="#f1de91"/>
      <path id="Trazado_58614" data-name="Trazado 58614" d="M83.172,430.394l-56.685,1.145c-1.529,37.45,10.446,113.473,10.446,113.473h1.018L59.7,476.679h.992L76.93,545.012h1.018S85.847,462.876,83.172,430.394Z" transform="translate(-0.201 -333.002)" fill="#172e60"/>
      <path id="Trazado_58615" data-name="Trazado 58615" d="M83.171,428.778l-56.685,1.147c-.1,2.532-.142,5.245-.131,8.094a110.213,110.213,0,0,0,25.615,1.735c12.789-.5,24.129-2.753,31.517-5.866C83.406,432.077,83.3,430.367,83.171,428.778Z" transform="translate(-0.2 -334.972)" fill="#3e364c"/>
      <path id="Trazado_58616" data-name="Trazado 58616" d="M64.181,472.367a48.052,48.052,0,0,1-5.928-.761c-.053.475-10.22,33.319-15.906,32.591s-11.482-50.3-9.234-73.347l-6.625.133c-1.529,37.45,10.446,113.473,10.446,113.473h1.018L59.7,476.871h.992L76.93,544.456h1.018s.9-9.314,1.981-22.9C75.28,514.672,63.542,484.018,64.181,472.367Z" transform="translate(-0.201 -332.447)" fill="#12214a"/>
      <path id="Trazado_58617" data-name="Trazado 58617" d="M38.468,448.777a22.948,22.948,0,0,0,16.357,1.456Z" transform="translate(14.565 -310.598)" fill="#3e364c"/>
      <path id="Trazado_58618" data-name="Trazado 58618" d="M83.906,406.645,23.485,418.32C28.2,429.021,29.9,463.2,29.9,463.2s38.524,3.563,56.966-3.4C86.864,459.8,86.963,412.758,83.906,406.645Z" transform="translate(-3.696 -361.946)" fill="#edb984"/>
      <path id="Trazado_58619" data-name="Trazado 58619" d="M83.906,406.645,23.485,418.32C28.2,429.021,29.9,463.2,29.9,463.2s1.464.135,3.949.3c-1.728-22.159,11.249-44.581,25.9-43.068s25.788,38.9,25.7,39.866c.479-.16.952-.324,1.409-.5C86.864,459.8,86.963,412.758,83.906,406.645Z" transform="translate(-3.696 -361.946)" fill="#e79b69"/>
      <path id="Trazado_58620" data-name="Trazado 58620" d="M30.2,443.915c-4.065-7.564-9.414-24.632-9.414-25.78,3.694-5.223,17.961-19.745,30.825-20.763s30.166,7.3,33.246,10.794c3.949,4.491,4.158,21.662,4.158,21.662C77.6,422.466,41.521,427.587,30.2,443.915Z" transform="translate(-6.984 -373.352)" fill="#f0c86a"/>
      <path id="Trazado_58621" data-name="Trazado 58621" d="M46.116,397.372c-7.2.57-14.839,5.372-20.819,10.4a47.525,47.525,0,0,0,17.794,3.148c12.205,0,22.478-3.787,25.584-8.946C61.96,399.169,53.34,396.8,46.116,397.372Z" transform="translate(-1.487 -373.352)" fill="#dbb363"/>
      <g id="Grupo_29092" data-name="Grupo 29092" transform="translate(19.383 42.859)">
        <path id="Trazado_58622" data-name="Trazado 58622" d="M47.487,416.566a22.558,22.558,0,0,1,8.988,2.867,95.065,95.065,0,0,0-1.245-13.616A16.971,16.971,0,0,1,47.487,416.566Z" transform="translate(6.173 -405.816)" fill="#dbb363"/>
        <path id="Trazado_58623" data-name="Trazado 58623" d="M23.3,407.473c.621,6.669,2.066,18.005,3.834,24.027a43.311,43.311,0,0,1,9.177-8.32C29.381,418.3,25.286,412.638,23.3,407.473Z" transform="translate(-23.302 -403.797)" fill="#dbb363"/>
      </g>
      <path id="Trazado_58624" data-name="Trazado 58624" d="M16.394,450.787c-6.117-15.374,4.386-33.443,12.764-43.853s12.989,43.7,12.363,57.592C41.522,464.526,23.508,468.668,16.394,450.787Z" transform="translate(-14.566 -363.205)" fill="#f0c86a"/>
      <path id="Trazado_58625" data-name="Trazado 58625" d="M34.638,407.327a54.7,54.7,0,0,1-.067,10.157c-1.325,13.714-7.127,24.373-12.957,23.809-2.833-.273-5.152-3.157-6.634-7.617A28.347,28.347,0,0,0,16.393,448.7c7.113,17.881,25.127,13.739,25.127,13.739C41.991,451.964,39.488,418.64,34.638,407.327Z" transform="translate(-14.565 -361.115)" fill="#dbb363"/>
      <path id="Trazado_58626" data-name="Trazado 58626" d="M16.874,439.63c2.935-10.8,15.414-23.31,24.712-27l2.929,5.6s-4.5,36.787-5.338,37.748C35.609,460.054,13.309,452.752,16.874,439.63Z" transform="translate(-12.221 -354.657)" fill="#edb984"/>
      <path id="Trazado_58627" data-name="Trazado 58627" d="M26.291,423.035a37.01,37.01,0,0,1,1.93-6.159c-5.254,5.216-9.736,11.653-11.347,17.575-3.566,13.122,18.735,20.423,22.3,16.348.244-.28.8-3.6,1.462-8.158C36.428,447.668,22.419,441.424,26.291,423.035Z" transform="translate(-12.221 -349.477)" fill="#e79b69"/>
      <path id="Trazado_58628" data-name="Trazado 58628" d="M60,446.281c7.7,5.23,18.706-10.5,11.129-24.429-2.9-5.336-22.414-13.193-22.414-13.193l-1.93,5.092S53.683,441.99,60,446.281Z" transform="translate(24.704 -359.491)" fill="#edb984"/>
      <path id="Trazado_58629" data-name="Trazado 58629" d="M68.713,415.039a5.479,5.479,0,0,0-.539-.788c1.848,6.834.885,13.013-2.918,15.394-4.457,2.785-11.336-.561-16.485-7.559,2.494,7.451,5.722,15.283,8.813,17.382C65.283,444.7,76.29,428.963,68.713,415.039Z" transform="translate(27.122 -352.677)" fill="#dbb363"/>
      <path id="Trazado_58630" data-name="Trazado 58630" d="M29.057,401.964c9.419,7.794,26.9,9.643,35.1.2C54.144,396.639,41.46,394.5,29.057,401.964Z" transform="translate(3.095 -373.512)" fill="#e79b69"/>
      <path id="Trazado_58631" data-name="Trazado 58631" d="M48.935,484.54H57.9s-6.175-3.424-7.881-3.494S48.935,484.54,48.935,484.54Z" transform="translate(27.184 -271.272)" fill="#dfcc9a"/>
      <path id="Trazado_58632" data-name="Trazado 58632" d="M36.836,484.3H27.872s5.321-3,7.009-3.057S36.836,484.3,36.836,484.3Z" transform="translate(1.651 -271.032)" fill="#dfcc9a"/>
      <path id="Trazado_58633" data-name="Trazado 58633" d="M31.92,413.73a90.778,90.778,0,0,1,33.013-3.437A41.329,41.329,0,0,0,48.652,408.5C40.957,409.172,31.92,413.73,31.92,413.73Z" transform="translate(6.584 -359.874)" fill="#dbb363"/>
      <path id="Trazado_58634" data-name="Trazado 58634" d="M29.429,415.339C40.853,408.7,55,407.62,55,407.62a38.822,38.822,0,0,0-14.145,1.08C34.838,410.4,29.429,415.339,29.429,415.339Z" transform="translate(3.549 -361.031)" fill="#dbb363"/>
      <path id="Trazado_58635" data-name="Trazado 58635" d="M41.406,408.395c1.3.75,5.341.2,10.259.129l-6.434,3.5C39.724,412.71,40.11,407.643,41.406,408.395Z" transform="translate(17.154 -359.907)" fill="#edb984"/>
      <path id="Trazado_58636" data-name="Trazado 58636" d="M55.763,419.414c3.75-5.418,1.83-9.095,0-10.109-3.559-1.966-10.794-1.185-12.616,1.735s-2.607,4.954-1.3,6.7,3.062.169,3.062.169-.419,1.558,1.533,2.13a1.751,1.751,0,0,0,2.307-.945,2.075,2.075,0,0,0,1.66,1.895c1.6.348,3.29-2.4,3.29-2.4Z" transform="translate(17.886 -360.026)" fill="#edb984"/>
      <path id="Trazado_58637" data-name="Trazado 58637" d="M36.991,409.562c-.726,1.309-4.482,2.913-8.74,5.378l7.32-.3C40.649,412.4,37.716,408.253,36.991,409.562Z" transform="translate(2.113 -358.696)" fill="#edb984"/>
      <path id="Trazado_58638" data-name="Trazado 58638" d="M31.99,424.869c-6-2.722-6.239-6.862-5.187-8.673,2.046-3.517,8.655-6.559,11.717-4.99s4.781,2.911,4.557,5.079S40.537,418,40.537,418a1.791,1.791,0,0,1-.222,2.616,1.753,1.753,0,0,1-2.467.37,2.08,2.08,0,0,1-.45,2.481c-1.194,1.12-4.056-.368-4.056-.368Z" transform="translate(-0.239 -356.903)" fill="#edb984"/>
      <path id="Trazado_58639" data-name="Trazado 58639" d="M39.01,391.972c-2.121,2.467-6.45,12.713-6.45,12.713s3.08,3.7,9.747,3.641Z" transform="translate(7.364 -379.829)" fill="#d27558"/>
      <path id="Trazado_58640" data-name="Trazado 58640" d="M34.3,406.448c1.93-9.117,4.231-19.177,11.746-17.521s8.547,6.477,7.7,13.221c-.89,7.133-3.574,16.9-10.947,16.2S33.53,410.056,34.3,406.448Z" transform="translate(9.288 -383.76)" fill="#edb984"/>
      <path id="Trazado_58641" data-name="Trazado 58641" d="M46.08,434.033l-4.481.56v2.129l4.481-.56Z" transform="translate(18.38 -328.568)" fill="#605875"/>
      <path id="Trazado_58642" data-name="Trazado 58642" d="M44.632,431.107c0-.393-.737-.71-1.644-.71s-1.642.317-1.642.71.734.71,1.642.71S44.632,431.5,44.632,431.107Z" transform="translate(18.072 -332.999)" fill="#e79b69"/>
      <path id="Trazado_58643" data-name="Trazado 58643" d="M33.6,406.208l2.256-1.081s2.418-10.246,5.767-10.779c2.8-.444,5.469,5.039,13.048,3.63,2.8-.521,2.321-8.125-4.085-10.384-3.441-1.214-7.149-1.489-9.554-.473C35.871,388.54,33.372,396.412,33.6,406.208Z" transform="translate(8.618 -386.499)" fill="#401f43"/>
      <path id="Trazado_58644" data-name="Trazado 58644" d="M40.677,388.739,35.3,392.156l-.85,9.274,3.015.306s2.354-10.681,6.556-8.74Z" transform="translate(9.667 -383.769)" fill="#401f43"/>
      <path id="Trazado_58645" data-name="Trazado 58645" d="M37.353,395.859c0-2-.768-3.619-1.713-3.619s-1.711,1.62-1.711,3.619.768,3.617,1.711,3.617S37.353,397.856,37.353,395.859Z" transform="translate(9.033 -379.503)" fill="#edb984"/>
      <ellipse id="Elipse_2745" data-name="Elipse 2745" cx="1.084" cy="2.291" rx="1.084" ry="2.291" transform="translate(43.515 14.401)" fill="#d27558"/>
      <ellipse id="Elipse_2746" data-name="Elipse 2746" cx="0.818" cy="1.729" rx="0.818" ry="1.729" transform="translate(43.818 16.12)" fill="#edb984"/>
      <g id="Grupo_29093" data-name="Grupo 29093" transform="translate(49.448 15.841)">
        <path id="Trazado_58646" data-name="Trazado 58646" d="M39.59,396.275c.18-.692-.113-1.289-.657-1.336a1.443,1.443,0,0,0-1.309,1.169c-.18.692.113,1.289.657,1.336A1.438,1.438,0,0,0,39.59,396.275Z" transform="translate(-35.977 -392.057)" fill="#5a4949"/>
        <path id="Trazado_58647" data-name="Trazado 58647" d="M40.131,393.639l-2.871.126a.441.441,0,0,0-.406.486l.069.972a.466.466,0,0,0,.468.446l2.871-.126a.441.441,0,0,0,.406-.486l-.067-.972A.466.466,0,0,0,40.131,393.639Z" transform="translate(-36.852 -393.639)" fill="#7b2e22"/>
        <path id="Trazado_58648" data-name="Trazado 58648" d="M42.426,397.348a1.545,1.545,0,0,0-.657-1.671c-.49-.209-.992.2-1.118.914a1.539,1.539,0,0,0,.655,1.669C41.8,398.468,42.3,398.06,42.426,397.348Z" transform="translate(-32.26 -391.221)" fill="#5a4949"/>
        <path id="Trazado_58649" data-name="Trazado 58649" d="M44.853,395.635l-2.529-1.347a.5.5,0,0,0-.639.282l-.533,1.009a.508.508,0,0,0,.131.692l2.529,1.345a.5.5,0,0,0,.641-.28l.53-1.012A.506.506,0,0,0,44.853,395.635Z" transform="translate(-31.705 -392.898)" fill="#7b2e22"/>
        <path id="Trazado_58650" data-name="Trazado 58650" d="M40.906,395.979c.182,2.09.071,3.355-.719,3.592a1.954,1.954,0,0,1-1.5-.386l-.022.033s1.245,1.138,2.083.952S41.438,398.484,40.906,395.979Z" transform="translate(-34.641 -390.787)" fill="#d27558"/>
        <path id="Trazado_58651" data-name="Trazado 58651" d="M40.274,400.125l-2.352-.652s-.191.417.832.83A1.293,1.293,0,0,0,40.274,400.125Z" transform="translate(-35.566 -386.528)" fill="#d27558"/>
        <path id="Trazado_58652" data-name="Trazado 58652" d="M42.616,400.08a2.4,2.4,0,0,0,.881-.235l-6.226-1.251s-.12.173.359.459Z" transform="translate(-36.358 -387.601)" fill="#d27558"/>
      </g>
    </g>
  </g>
</svg>
