<svg xmlns="http://www.w3.org/2000/svg" width="45.104" height="42.032" viewBox="0 0 45.104 42.032">
  <g id="Grupo_29135" data-name="Grupo 29135" transform="translate(-642.673 -127.181)">
    <path id="Trazado_58830" data-name="Trazado 58830" d="M666.477,144.746c.846.721,1.721,1.467,2.652,2.281l.671.587.672-.587c.966-.846,1.875-1.617,2.753-2.363l-.242-.285.318.221c4.886-4.148,8.114-6.888,7.916-11.1a6.844,6.844,0,0,0-1.862-4.383,6.028,6.028,0,0,0-4.347-1.935h-.047a5.589,5.589,0,0,0-4.046,1.7,7.68,7.68,0,0,0-1.115,1.409,7.677,7.677,0,0,0-1.115-1.409,5.589,5.589,0,0,0-4.046-1.7h-.047a5.9,5.9,0,0,0-4.312,1.944,6.922,6.922,0,0,0-1.811,4.374C658.269,137.752,661.528,140.529,666.477,144.746Zm2.117-12.366a1.308,1.308,0,0,0,2.412,0c.5-1.179,1.677-3.159,3.985-3.159a4.47,4.47,0,0,1,4.188,4.374,6.169,6.169,0,0,1-1.722,4.34,45.705,45.705,0,0,1-5.481,5.113c-.7.6-1.422,1.207-2.176,1.86-.7-.605-1.367-1.175-2.033-1.742a46.411,46.411,0,0,1-5.527-5.177,6.254,6.254,0,0,1-1.733-4.394,4.38,4.38,0,0,1,4.133-4.374C666.917,129.221,668.095,131.2,668.594,132.38Z" fill="#e33e4e"/>
    <path id="Trazado_58831" data-name="Trazado 58831" d="M687.259,149.376l-.015-.012a5.467,5.467,0,0,0-7.567.952l-4.672,5.209a3.893,3.893,0,0,0,.871-2.331v-.1a3.823,3.823,0,0,0-3.8-3.839h-12.51a2.207,2.207,0,0,0-.877.181l-2.142.921a2.26,2.26,0,0,0-2.238-1.956h-9.383a2.262,2.262,0,0,0-2.258,2.259v16.292a2.261,2.261,0,0,0,2.258,2.259h9.383a2.261,2.261,0,0,0,2.258-2.259v-.4h17.144a3.508,3.508,0,0,0,2.765-1.344l10.483-13.252,0,0,.515-.657A1.379,1.379,0,0,0,687.259,149.376Zm-15.234,5.7h-4.266a2.619,2.619,0,0,0-1.876.786,2.685,2.685,0,0,0-.773,1.9l0,.1a2.687,2.687,0,0,0,2.69,2.566h4.119a2.667,2.667,0,0,0,1.983-.888l7.19-8.02a3.653,3.653,0,0,1,4.6-.948l-10.669,13.489a1.664,1.664,0,0,1-1.312.64H656.572V152.374l2.855-1.229a.389.389,0,0,1,.144-.029h12.51a1.888,1.888,0,0,1,1.366.583,2.045,2.045,0,0,1,.571,1.43A1.992,1.992,0,0,1,672.025,155.073Zm.5,3.223a.808.808,0,0,1-.6.269h-4.136a.832.832,0,0,1-.818-.817.824.824,0,0,1,.237-.583.772.772,0,0,1,.555-.235h4.285a3.8,3.8,0,0,0,2.72-1.136Zm-17.806-7.636v16.294a.4.4,0,0,1-.4.4h-9.383a.4.4,0,0,1-.4-.4V150.662a.4.4,0,0,1,.4-.4h9.383A.4.4,0,0,1,654.715,150.66Z" fill="#e33e4e"/>
  </g>
</svg>
