<svg xmlns="http://www.w3.org/2000/svg" width="298" height="298" viewBox="0 0 298 298">
  <g id="Grupo_29324" data-name="Grupo 29324" transform="translate(1560 5101)">
    <rect id="Rectángulo_5442" data-name="Rectángulo 5442" width="298" height="298" transform="translate(-1560 -5101)" fill="none"/>
    <g id="Image_Place_Holder" data-name="Image Place Holder" transform="translate(-1560.186 -5004.639)">
      <rect id="Image_Place_Holder-2" data-name="Image Place Holder" width="298" height="202" rx="10" transform="translate(0.186 -0.361)" fill="#f5faff"/>
    </g>
    <g id="Grupo_29321" data-name="Grupo 29321" transform="translate(-1440.926 -5035.706)">
      <path id="Trazado_58653" data-name="Trazado 58653" d="M128.833,461.932c-24.469-6.768-26.794-22.723-25.119-34.085,0,0-15.244-29.975,11.941-39.041,27.06-9.026,29.984,24.294,29.984,24.294C164.784,417.453,163.653,467.56,128.833,461.932Z" transform="translate(-98.188 -387.256)" fill="#401f43"/>
      <path id="Trazado_58654" data-name="Trazado 58654" d="M136.81,426.46l-8.706,7.089s-3.589-7.056-9.627-10.736l-4.405-21.49C122.465,404.677,135.971,420.879,136.81,426.46Z" transform="translate(-80.382 -370.119)" fill="#62cca2"/>
      <path id="Trazado_58655" data-name="Trazado 58655" d="M120.728,410.3c5.315-.992,11.57,3.409,11.657,6.535.12,4.359-5.186,11.395-10.594,6.6C117.076,419.254,120.728,410.3,120.728,410.3Z" transform="translate(-73.916 -359.353)" fill="#62cca2"/>
      <path id="Trazado_58656" data-name="Trazado 58656" d="M99.478,436.865l9.212,5.616s4.11-9.509,10.769-15.8l5.448-26.878C115.706,406.458,100.563,429.984,99.478,436.865Z" transform="translate(-98.16 -371.976)" fill="#59b58d"/>
      <path id="Trazado_58657" data-name="Trazado 58657" d="M110.856,413.444c3.429,4.876,1.4,13.908-1.73,15.335-4.128,1.883-11.89-1.748-9.931-8.684C101,413.723,110.856,413.444,110.856,413.444Z" transform="translate(-98.884 -355.353)" fill="#62cca2"/>
      <path id="Trazado_58658" data-name="Trazado 58658" d="M143.7,421.938l-31.683-4.8s-9.407,28.056-9.139,40.766c.282,13.436,20,74.339,28.244,105.753h1.961s18.152-96.042,18.429-104.314C151.93,447.117,143.7,421.938,143.7,421.938Z" transform="translate(-94.018 -350.848)" fill="#172e60"/>
      <path id="Trazado_58659" data-name="Trazado 58659" d="M131.928,437.458,120.8,441.514l-11.877-2.768,10.851,4.761,4.454,93.945.681,0L122,443.391Z" transform="translate(-86.656 -326.099)" fill="#12214a"/>
      <path id="Trazado_58660" data-name="Trazado 58660" d="M127.013,447.716c9.234,0,17.653,6.02,24.014,15.909.293-2.052.466-3.529.49-4.277.413-12.231-7.813-37.41-7.813-37.41l-31.683-4.8s-9.407,28.056-9.139,40.766a36.513,36.513,0,0,0,.575,5.024C109.764,453.463,118,447.716,127.013,447.716Z" transform="translate(-94.018 -350.848)" fill="#12214a"/>
      <path id="Trazado_58661" data-name="Trazado 58661" d="M103.865,461.545c11.69,5.166,45.684,4.521,45.684,4.521s-14.305-56.7-16.3-58.636-11.191-7.79-12.883-7.628-6.967,7.99-7.7,10.9C112.254,412.327,103.865,461.545,103.865,461.545Z" transform="translate(-92.815 -371.977)" fill="#7ae2b6"/>
      <path id="Trazado_58662" data-name="Trazado 58662" d="M120.5,405.919a30.412,30.412,0,0,0,3.21-1.426c-3.429-2.28-7.815-4.8-8.933-4.692-1.247.12-4.434,4.4-6.32,7.806A26.236,26.236,0,0,0,120.5,405.919Z" transform="translate(-87.226 -371.977)" fill="#7ae2b6"/>
      <path id="Trazado_58663" data-name="Trazado 58663" d="M120.786,415.514a74.134,74.134,0,0,1-13.722-1.247c-.5,2.9-1.016,5.9-1.52,8.835a45.964,45.964,0,0,1,14.917-2.422,43.658,43.658,0,0,1,20.942,5.082c-1.067-4.057-2.183-8.263-3.274-12.3A71.255,71.255,0,0,1,120.786,415.514Z" transform="translate(-90.769 -355.325)" fill="#62cca2"/>
      <path id="Trazado_58664" data-name="Trazado 58664" d="M117.851,425.171s3.066-11.566,4.931-21.288c-2.629-2.4-6.584-4.43-7.553-4.337-1.222.115-5.277,3.323-7.176,6.695A158.338,158.338,0,0,0,117.851,425.171Z" transform="translate(-87.713 -372.287)" fill="#62cca2"/>
      <path id="Trazado_58665" data-name="Trazado 58665" d="M108.053,406.241q.329.789.677,1.57c2.739.816,8.7-.315,13.709-2.176.1-.479.255-1.28.344-1.752-2.629-2.4-6.584-4.43-7.553-4.337C114.007,399.662,109.952,402.87,108.053,406.241Z" transform="translate(-87.713 -372.287)" fill="#7ae2b6"/>
      <path id="Trazado_58666" data-name="Trazado 58666" d="M114.643,394.367c2.1,5.836,4.113,13.686,4.113,13.686s-5.162,5.082-9.157.845C107.011,406.152,114.643,394.367,114.643,394.367Z" transform="translate(-86.482 -378.593)" fill="#d27558"/>
      <path id="Trazado_58667" data-name="Trazado 58667" d="M105.9,403.432c1.553,5.171,4.616,10.585,11.175,12.258a16.092,16.092,0,0,0,3.6-14.7c-2.114-8.083-6.7-10.678-11.439-9.505C104.4,392.682,104.64,399.23,105.9,403.432Z" transform="translate(-91.281 -382.434)" fill="#edb984"/>
      <path id="Trazado_58668" data-name="Trazado 58668" d="M99.458,433.275c-.273-4.215,16-30.019,16-30.019l1.007.007s-5.206,33.318-7.746,35.008C105.29,440.555,99.693,436.88,99.458,433.275Z" transform="translate(-98.188 -367.764)" fill="#edb984"/>
      <path id="Trazado_58669" data-name="Trazado 58669" d="M107.958,431.021c-2.294,1.355-5.353.169-7.242-1.812a11.443,11.443,0,0,0-1.258,4.064c.235,3.6,5.832,7.28,9.261,5,2.54-1.69,7.746-35.008,7.746-35.008l-.384,0C113.881,413,109.824,429.919,107.958,431.021Z" transform="translate(-98.188 -367.762)" fill="#e79b69"/>
      <path id="Trazado_58670" data-name="Trazado 58670" d="M140.325,422.7c-2.021-3.975-28.9-18.917-28.9-18.917l-.958,1.182s20.263,25.119,23.231,26.142C138.034,432.6,142.055,426.1,140.325,422.7Z" transform="translate(-84.771 -367.124)" fill="#edb984"/>
      <path id="Trazado_58671" data-name="Trazado 58671" d="M140.325,422.05a6.566,6.566,0,0,0-1.42-1.6c-1.1,2.121-3.1,3.74-5.424,3.212s-23.014-19.349-23.014-19.349,20.263,25.119,23.231,26.142C138.034,431.95,142.055,425.452,140.325,422.05Z" transform="translate(-84.771 -366.474)" fill="#e79b69"/>
      <path id="Trazado_58672" data-name="Trazado 58672" d="M115.935,485.3h9.685s-6.38-3.4-8.218-3.467S115.935,485.3,115.935,485.3Z" transform="translate(-78.149 -272.037)" fill="#f9ebc9"/>
      <path id="Trazado_58673" data-name="Trazado 58673" d="M119.32,485.3h-6.027s3.971-3.4,5.115-3.467S119.32,485.3,119.32,485.3Z" transform="translate(-81.33 -272.037)" fill="#f9ebc9"/>
      <path id="Trazado_58674" data-name="Trazado 58674" d="M106.214,392.754c-2.6,4.856,12.619,10.958,12.619,10.958l2.349-2.9S111.647,382.612,106.214,392.754Z" transform="translate(-90.318 -384.302)" fill="#401f43"/>
      <path id="Trazado_58675" data-name="Trazado 58675" d="M107.81,390.631c3.664,2.125-1.2,17.349-1.2,17.349l-2.631-1.511S101.435,386.935,107.81,390.631Z" transform="translate(-93.285 -383.712)" fill="#401f43"/>
      <path id="Trazado_58676" data-name="Trazado 58676" d="M114.3,398.609c.14-1.961-.313-3.971-1.014-4.492s-1.38.65-1.522,2.611.315,3.971,1.014,4.49S114.156,400.57,114.3,398.609Z" transform="translate(-83.228 -379.047)" fill="#edb984"/>
      <path id="Trazado_58677" data-name="Trazado 58677" d="M113.463,397.435a3.429,3.429,0,0,0-.563-2.491c-.388-.288-.765.359-.843,1.446a3.444,3.444,0,0,0,.561,2.493C113.006,399.172,113.385,398.522,113.463,397.435Z" transform="translate(-82.853 -377.974)" fill="#d27558"/>
      <path id="Trazado_58678" data-name="Trazado 58678" d="M113.239,397.433a2.671,2.671,0,0,0-.437-1.934c-.3-.224-.594.279-.654,1.122a2.671,2.671,0,0,0,.437,1.934C112.884,398.779,113.179,398.275,113.239,397.433Z" transform="translate(-82.738 -377.28)" fill="#edb984"/>
      <g id="Grupo_29096" data-name="Grupo 29096" transform="translate(15.039 18.047)">
        <g id="Grupo_29095" data-name="Grupo 29095">
          <path id="Trazado_58679" data-name="Trazado 58679" d="M108.981,398.349l-2.487.373a.621.621,0,0,1-.679-.475l-.138-.612A.514.514,0,0,1,106.1,397l2.484-.373a.619.619,0,0,1,.681.475l.138.61A.516.516,0,0,1,108.981,398.349Z" transform="translate(-105.663 -393.899)" fill="#703e31"/>
          <path id="Trazado_58680" data-name="Trazado 58680" d="M110.828,396.823l-1.795,1.817a.536.536,0,0,1-.781,0l-.415-.448a.589.589,0,0,1,.02-.812l1.795-1.819a.535.535,0,0,1,.779.007l.417.446A.592.592,0,0,1,110.828,396.823Z" transform="translate(-103.2 -395.392)" fill="#703e31"/>
        </g>
        <path id="Trazado_58681" data-name="Trazado 58681" d="M108.042,397.806s.14.071.344.193c.078,1.158.47,2.972,1.8,1.868a1.059,1.059,0,0,1,.051.131C108.209,402.247,107.985,398.591,108.042,397.806Z" transform="translate(-102.775 -392.451)" fill="#d27558"/>
        <path id="Trazado_58682" data-name="Trazado 58682" d="M109.987,400.245a.983.983,0,0,0-1.116-.308c-.308.173-.311.592,0,.934a.983.983,0,0,0,1.116.308C110.294,401.006,110.3,400.587,109.987,400.245Z" transform="translate(-102.038 -389.946)" fill="#443239"/>
        <path id="Trazado_58683" data-name="Trazado 58683" d="M109.609,397.978c-1.189.113,1.466-1.464,1.466-1.464-2.331.947-3.438,1.777-2.174,1.9a9.225,9.225,0,0,0,3.358-.792S110.332,397.911,109.609,397.978Z" transform="translate(-102.365 -394.025)" fill="#d27558"/>
        <path id="Trazado_58684" data-name="Trazado 58684" d="M108.254,398.478c.379-.761-1.726.5-1.726.5,1.435-1.251,2.475-1.721,2.3-.836s-1.522,1.992-1.522,1.992S108.021,398.939,108.254,398.478Z" transform="translate(-104.61 -392.593)" fill="#d27558"/>
      </g>
      <path id="Trazado_58685" data-name="Trazado 58685" d="M120.932,404.083c-3.913-4.148-8.416-5.215-13.87,4.505s-6.814,9.128-6.814,9.128a23.757,23.757,0,0,0,10.372-3.321C115.537,411.314,120.932,404.083,120.932,404.083Z" transform="translate(-97.223 -370.448)" fill="#fbf5dd"/>
      <path id="Trazado_58686" data-name="Trazado 58686" d="M114.469,406.186a13.5,13.5,0,0,0-3.957-3.826l-1.812,2.165s3.556,2.569,5.177,2.846S114.469,406.186,114.469,406.186Z" transform="translate(-86.926 -368.856)" fill="#edb984"/>
      <path id="Trazado_58687" data-name="Trazado 58687" d="M111.983,403.589c-1.185-.75-5.295-.947-5.1-.552s2.134.2,5.415,1.5Z" transform="translate(-89.144 -368.274)" fill="#edb984"/>
      <path id="Trazado_58688" data-name="Trazado 58688" d="M112.349,403.692c-1.049-.934-5.073-1.792-4.942-1.371s2.074.541,5.1,2.358Z" transform="translate(-88.505 -369.037)" fill="#edb984"/>
      <path id="Trazado_58689" data-name="Trazado 58689" d="M112.141,404.2c-.725-1.2-4.314-3.214-4.312-2.773s1.821,1.131,4.172,3.762Z" transform="translate(-87.986 -370.068)" fill="#edb984"/>
    </g>
  </g>
</svg>
